<svg width="70" height="28" viewBox="0 0 70 28" fill="none" xmlns="http://www.w3.org/2000/svg">
<g id="Layer_1" style="mix-blend-mode:luminosity" opacity="0.7" clip-path="url(#clip0_2111_677)">
<path id="Vector" d="M7.91442 13.7796C7.79439 13.4161 7.72104 13.0327 7.551 12.6993C5.89724 9.43178 4.2268 6.17427 2.55637 2.91343C2.32298 2.45664 2.06291 2.0132 1.81952 1.56308C1.78284 1.4964 1.76617 1.41971 1.72949 1.31301C1.86953 1.29634 1.97289 1.273 2.07958 1.273C4.78695 1.24633 7.49765 1.22633 10.205 1.18965C10.6218 1.18298 10.8719 1.34636 11.0619 1.70978C13.0458 5.4941 15.0396 9.27507 17.0401 13.0527C17.2935 13.5328 17.3235 13.9563 17.0201 14.4464C15.6964 16.5803 14.4061 18.7342 13.1024 20.8814C12.9024 21.2115 12.6957 21.5382 12.4889 21.8683C12.4389 21.8283 12.3722 21.7983 12.3456 21.745C11.9921 21.0615 11.6421 20.3779 11.2953 19.6944C10.4184 17.954 9.55485 16.2002 8.65128 14.4731C8.50458 14.193 8.17116 14.0096 7.92443 13.7829L7.91442 13.7796Z" fill="white"/>
<path id="Vector_2" d="M12.9955 1.30633C13.7324 1.29633 14.4659 1.28299 15.2028 1.28299C17.0933 1.27633 18.9804 1.293 20.8709 1.26966C21.5544 1.26299 21.9612 1.51972 22.2813 2.14989C23.675 4.89726 25.1253 7.61797 26.5524 10.3487C26.9958 11.1956 27.4226 12.0558 27.886 12.8927C28.2228 13.5062 28.2461 14.0663 27.8494 14.6731C27.0992 15.8234 26.3857 17.0004 25.6721 18.1707C25.0186 19.2443 24.3851 20.3346 23.7316 21.4082C23.6049 21.6149 23.4182 21.785 23.2582 21.9717C23.0815 21.5549 22.9214 21.1315 22.7247 20.7247C21.9178 19.0643 21.121 17.4005 20.2707 15.7601C19.924 15.0899 19.4605 14.4831 19.0504 13.8496C18.2002 12.1558 17.3567 10.4554 16.4931 8.76493C15.2761 6.38431 14.0458 4.01704 12.8288 1.63642C12.7921 1.56307 12.8622 1.43637 12.8822 1.33301C12.9188 1.323 12.9555 1.313 12.9922 1.303L12.9955 1.30633Z" fill="white"/>
<path id="Vector_3" d="M7.91449 13.7787C8.16123 14.0055 8.49464 14.1888 8.64135 14.4689C9.54492 16.196 10.4085 17.9465 11.2854 19.6903C11.6321 20.3771 11.9822 21.0606 12.3356 21.7408C12.3623 21.7941 12.4323 21.8241 12.479 21.8642C11.6888 23.2078 10.8953 24.5482 10.1084 25.8919C9.94835 26.1653 9.7583 26.392 9.41155 26.4053C9.38488 26.4053 9.3582 26.4053 9.33153 26.4053C7.32101 26.392 5.30715 26.3787 3.29663 26.3686C2.34305 26.3653 1.38947 26.3686 0.352539 26.3686C0.465902 26.1286 0.532586 25.9552 0.625943 25.7952C2.97655 21.8842 5.33049 17.9765 7.68777 14.0688C7.75112 13.9654 7.83781 13.8721 7.91449 13.7754V13.7787Z" fill="white"/>
<path id="Vector_4" d="M19.0543 13.851C19.4644 14.4878 19.9278 15.0946 20.2746 15.7615C21.1215 17.4019 21.9183 19.0657 22.7285 20.7261C22.9253 21.1329 23.0853 21.5563 23.262 21.9731C23.0319 22.3965 22.8119 22.8233 22.5752 23.2401C22.0584 24.1403 21.5482 25.0472 21.0048 25.9308C20.8781 26.1342 20.6213 26.2542 20.4246 26.4142C20.3679 26.4142 20.3112 26.4142 20.2546 26.4142C18.2274 26.4042 16.2002 26.3942 14.173 26.3842C13.2728 26.3809 12.3725 26.3842 11.4189 26.3842C11.4756 26.2575 11.519 26.1075 11.599 25.9775C13.1527 23.4435 14.7098 20.9162 16.2635 18.3822C17.0537 17.0918 17.8373 15.7982 18.6275 14.5045C18.7642 14.2811 18.9142 14.0644 19.0609 13.8477L19.0543 13.851Z" fill="white"/>
<g id="Group">
<path id="Vector_5" d="M68.6039 15.6939C68.6039 15.5005 68.4705 15.2138 68.3172 15.1304C68.0638 14.9937 67.8604 15.2105 67.7203 15.4405C66.9535 16.6942 66.1766 17.9412 65.4131 19.2015C64.5762 20.5852 63.7526 21.9789 62.8791 23.4359C62.7524 23.2492 62.649 23.1092 62.5557 22.9591C61.9989 22.0622 61.452 21.162 60.8919 20.2684C59.9583 18.788 59.0214 17.3143 58.0745 15.844C57.9745 15.6906 57.8311 15.5139 57.6711 15.4572C57.3343 15.3405 57.1143 15.6106 57.1143 16.114C57.1176 19.4049 57.1276 22.6991 57.1343 25.9899C57.1343 26.33 57.1343 26.6701 57.1343 27.0068H58.0345V17.0809C58.3079 17.341 58.5013 17.6344 58.6813 17.9345C59.875 19.9684 61.0586 22.0055 62.2623 24.0327C62.7057 24.7829 62.9391 24.8596 63.4559 24.0027C64.6662 21.9955 65.8532 19.975 67.0502 17.9578C67.2335 17.6511 67.4336 17.351 67.627 17.0509C67.727 17.251 67.7503 17.4144 67.7503 17.5777C67.757 20.3685 67.7637 23.1625 67.767 25.9532C67.767 26.0366 67.7737 26.1233 67.7603 26.2033C67.6003 27.0502 67.6303 27.0835 68.4805 27.0235C68.5172 27.0235 68.5539 26.9902 68.6106 26.9668C68.6106 26.6367 68.6106 26.3067 68.6106 25.9732C68.6106 22.5423 68.6206 19.1148 68.6106 15.6839L68.6039 15.6939Z" fill="white"/>
<path id="Vector_6" d="M49.6752 15.1354C47.4413 15.4688 45.9842 17.0625 45.264 19.2698C44.8906 20.4067 44.9673 21.5337 45.3007 22.674C45.6808 23.9777 46.3243 25.1046 47.4346 25.8982C48.4949 26.655 49.6485 27.1985 51.0189 26.9618C53.5629 26.525 55.9101 24.5745 55.8501 21.0569C55.9268 20.19 55.7301 19.2831 55.36 18.4029C54.4531 16.239 52.2359 14.7486 49.6785 15.1354H49.6752ZM54.6265 23.1474C54.2564 24.2811 53.4562 25.0779 52.3959 25.6181C50.1186 26.7784 48.1215 25.7648 46.8878 24.0577C46.2343 23.1541 45.9742 22.0972 45.9109 20.8702C46.1043 19.3931 46.5344 17.9128 47.8714 16.8625C48.845 16.0956 49.9386 15.9789 51.1522 16.0856C53.1761 16.2623 54.5731 18.3095 54.8765 19.9199C55.0866 21.0369 54.9666 22.1038 54.6265 23.1474Z" fill="white"/>
<path id="Vector_7" d="M42.7035 25.4088C41.84 26.0357 40.8097 26.2724 39.8094 25.999C36.982 25.2188 35.4216 22.7915 35.9351 20.0541C36.1952 18.6671 36.8387 17.4868 38.0623 16.6633C39.5827 15.6397 41.7066 15.6797 42.9636 16.8066C43.3237 17.13 43.6404 17.5035 43.9605 17.8669C44.2906 18.2403 44.4206 17.7535 44.6474 17.7035C44.674 17.6969 44.7074 17.3968 44.6407 17.3201C44.2706 16.89 43.9038 16.4432 43.4704 16.0831C42.3101 15.1262 40.9564 14.7561 39.4894 15.1062C36.3786 15.8497 34.4747 18.8071 35.0082 21.8713C35.2749 23.395 35.9318 24.7053 37.1788 25.6622C37.999 26.2891 38.8992 26.8259 39.9328 26.9392C42.05 27.1693 43.6338 26.1824 44.8941 24.5686C44.9241 24.532 44.9208 24.4686 44.9374 24.4053C44.714 24.2686 44.504 24.1385 44.3306 24.0318C43.7571 24.522 43.2603 25.0054 42.7035 25.4088Z" fill="white"/>
</g>
<g id="Group_2">
<path id="Vector_8" d="M66.9334 0.707031V5.92838C66.7 5.93838 66.4666 5.95506 66.2332 5.95506C64.3828 5.95172 62.5356 5.94172 60.6851 5.93505V0.720368H58.2012V14.0138H60.6818C60.6818 12.2867 60.6818 10.5929 60.6851 8.89915C60.6851 8.74244 60.7385 8.58574 60.7652 8.42903C62.599 8.4557 64.4328 8.48238 66.2666 8.50905C66.4666 8.52239 66.67 8.53239 66.9301 8.54906V14.0005H69.3374V0.707031H66.9301H66.9334Z" fill="white"/>
<path id="Vector_9" d="M57.4473 10.9672C56.9338 10.5671 56.4503 10.1269 55.9002 9.65349C54.9033 10.7938 53.683 11.5206 52.0992 11.4573C50.8589 11.3573 49.7286 11.0038 48.9384 9.9669C48.7017 9.65349 48.5383 9.28673 48.3382 8.9433C48.2582 8.58321 48.1182 8.22979 48.1082 7.86636C48.0715 6.67938 48.5316 5.63245 49.2218 4.71221C49.7686 3.98202 50.4921 3.42187 51.429 3.26183C52.8094 3.02844 54.0164 3.44521 55.09 4.30877C55.3567 4.52216 55.6168 4.74222 55.8969 4.97228C56.437 4.45214 56.9438 3.95868 57.4573 3.47522C57.624 3.31851 57.6506 3.20849 57.4639 3.03844C56.357 2.01818 55.1467 1.19797 53.6396 0.874549C52.6327 0.657827 51.6291 0.594477 50.6288 0.874549C47.2846 1.80479 45.1741 5.78582 45.6642 8.38983C45.9643 9.9769 46.6011 11.3873 47.8381 12.3875C49.5085 13.7379 51.4857 14.2914 53.6263 13.8312C55.1167 13.5112 56.4137 12.7743 57.4873 11.674C57.7473 11.4073 57.764 11.2139 57.4473 10.9672Z" fill="white"/>
</g>
<path id="Vector_10" d="M38.2627 10.752C38.2894 10.752 38.316 10.7553 38.3394 10.7586L38.2994 10.7653L38.2627 10.752Z" fill="white"/>
<path id="Vector_11" d="M39.0096 8.90082C38.9096 8.87081 38.8062 8.84414 38.7129 8.81746C39.2897 7.18704 39.8599 5.58329 40.43 3.97954C40.45 3.9262 40.4733 3.87952 40.4967 3.82617C40.53 3.83951 40.5634 3.85285 40.5967 3.86618C40.7868 4.39632 40.9835 4.91979 41.1602 5.45326C41.5069 6.49019 41.8504 7.53046 42.1771 8.57407C42.2105 8.67743 42.1238 8.81746 42.0904 8.94083L42.0971 8.92749C42.0638 8.92082 42.0304 8.91416 41.9937 8.90749C40.9968 8.90749 39.9999 8.90082 39.003 8.89748L39.0096 8.90082Z" fill="white"/>
<path id="Vector_12" d="M46.3181 13.2656C45.668 11.4151 44.9945 9.5713 44.361 7.71749C43.5808 5.44023 42.8339 3.15297 42.0604 0.875717C42.027 0.779025 41.837 0.678999 41.7203 0.675665C40.9701 0.662328 40.2199 0.689002 39.473 0.682333C39.203 0.682333 39.0863 0.802364 38.9996 1.04576C38.5495 2.32276 38.0893 3.59309 37.6259 4.86341C37.2991 5.75365 36.959 6.64054 36.6323 7.53411C35.9921 9.28122 35.3586 11.0283 34.7285 12.7755C34.5851 13.1756 34.4651 13.5823 34.3184 14.0325C35.1019 14.0325 35.8354 14.0458 36.5656 14.0191C36.6856 14.0158 36.8523 13.8557 36.9057 13.729C37.0991 13.2589 37.2491 12.7721 37.4258 12.2953C37.6125 11.7885 37.8126 11.2817 38.0093 10.7783C38.096 10.7716 38.1794 10.7649 38.266 10.7583C38.2927 10.7583 38.3194 10.7616 38.3427 10.7649C38.6461 10.7716 38.9462 10.7849 39.2496 10.7883C40.5033 10.7949 41.7536 10.8016 43.0073 10.8083C43.274 11.6385 43.5407 12.4654 43.8075 13.2956C44.0409 14.0291 44.0409 14.0225 44.8111 14.0124C45.3712 14.0024 45.9314 14.0124 46.5382 14.0124C46.4548 13.7257 46.3981 13.499 46.3215 13.2789L46.3181 13.2656ZM40.4333 3.97652C40.4533 3.92317 40.4766 3.87649 40.5 3.82315C40.5333 3.83648 40.5666 3.84982 40.6 3.86316C40.79 4.39329 40.9868 4.91676 41.1635 5.45023C41.5102 6.48717 41.8536 7.52744 42.1804 8.57104C42.2104 8.67107 42.1337 8.80443 42.1004 8.92447C42.067 8.9178 42.0337 8.91113 42.0003 8.90446C41.0034 8.90446 40.0065 8.89779 39.0096 8.89446C38.9095 8.86445 38.8062 8.83778 38.7128 8.8111C39.2896 7.18068 39.8598 5.57693 40.4299 3.97318L40.4333 3.97652Z" fill="white"/>
<path id="Vector_13" d="M42.1034 8.92821C42.07 8.92154 42.0367 8.91487 42 8.9082C42.0333 8.91487 42.0667 8.92154 42.1034 8.92821Z" fill="white"/>
</g>
<defs>
<clipPath id="clip0_2111_677">
<rect width="68.9878" height="26.3802" fill="white" transform="translate(0.352539 0.671875)"/>
</clipPath>
</defs>
</svg>
