<svg width="49" height="49" viewBox="0 0 49 49" fill="none" xmlns="http://www.w3.org/2000/svg">
<g id="atlassian">
<path id="vector" fill-rule="evenodd" clip-rule="evenodd" d="M15.1141 22.7261C14.824 22.3463 14.3567 22.1458 13.8819 22.1975C13.407 22.2491 12.9937 22.5453 12.7919 22.9786L1.0254 46.5209C0.807457 46.9571 0.830755 47.4752 1.08697 47.8901C1.34319 48.305 1.79581 48.5575 2.28319 48.5576H18.6675C19.2036 48.57 19.6967 48.265 19.9253 47.7796C23.4596 40.4712 21.3176 29.3588 15.1141 22.7261Z" fill="url(#paint0_linear_2234_24)"/>
<path id="vector_2" fill-rule="evenodd" clip-rule="evenodd" d="M23.7442 1.31383C17.7796 10.498 17.0912 22.1474 21.9325 31.971L29.8316 47.7802C30.0698 48.257 30.5567 48.5582 31.0894 48.5582H47.4707C47.9581 48.5582 48.4107 48.3056 48.6669 47.8907C48.9231 47.4758 48.9464 46.9578 48.7285 46.5215C48.7285 46.5215 26.6901 2.40836 26.1362 1.305C25.9127 0.846709 25.447 0.556721 24.9374 0.558603C24.4278 0.560485 23.9643 0.853904 23.7442 1.31383Z" fill="#2684FF"/>
</g>
<defs>
<linearGradient id="paint0_linear_2234_24" x1="21.5626" y1="26.3593" x2="5.05854" y2="44.0757" gradientUnits="userSpaceOnUse">
<stop stop-color="#0052CC"/>
<stop offset="0.923" stop-color="#2684FF"/>
</linearGradient>
</defs>
</svg>
