<svg width="24" height="32" viewBox="0 0 24 32" fill="none" xmlns="http://www.w3.org/2000/svg">
<g clip-path="url(#clip0_1867_1846)">
<path d="M13.6971 0C13.8334 0.0274011 13.9682 0.0651701 14.1059 0.0799815C14.6362 0.138486 15.1398 0.293265 15.6286 0.496922C16.181 0.72798 16.692 1.03458 17.1497 1.41893C17.731 1.90697 18.2191 2.4772 18.5968 3.14224C18.91 3.69322 19.1366 4.27531 19.2692 4.89072C19.3366 5.20324 19.3551 5.52761 19.3847 5.84754C19.4069 6.0897 19.4121 6.33409 19.4255 6.58588H12.8203V0C13.1136 0 13.4054 0 13.6971 0Z" fill="#3B5AFB" fill-opacity="0.75"/>
<path d="M7.9241 27.2699C6.3726 27.2699 4.84777 27.2833 3.32368 27.2647C2.54682 27.2551 1.86698 26.9544 1.27156 26.4509C0.622084 25.9021 0.21403 25.2126 0.0429589 24.3861C-0.00147526 24.1729 0.00370873 23.947 0.00296816 23.727C0.000746452 19.762 0.00667101 15.7978 5.88289e-06 11.8342C-0.00295639 10.1946 1.11308 8.84974 2.7179 8.43058C3.02153 8.35134 3.35108 8.35134 3.66879 8.35134C9.1016 8.34689 14.5337 8.34689 19.9665 8.34912C21.7276 8.34912 23.1435 9.41257 23.5671 11.1751C23.6301 11.438 23.6442 11.718 23.6442 11.9898C23.6486 15.8703 23.6471 19.7517 23.6471 23.6322C23.6471 24.6927 23.2702 25.6059 22.4955 26.319C21.8587 26.9056 21.0973 27.2655 20.205 27.2684C18.8097 27.2721 17.4145 27.2707 16.02 27.2707C15.92 27.2707 15.8193 27.2707 15.6912 27.2707C15.8926 28.0764 16.0874 28.8547 16.2836 29.6412C16.7421 29.6412 17.1849 29.639 17.6278 29.6412C18.3817 29.6457 18.7882 30.0508 18.9149 30.7343C19.0119 31.2608 18.4506 31.9303 17.8803 31.9873C17.7796 31.9977 17.6774 31.997 17.5759 31.997C13.7324 31.997 9.88883 31.9955 6.04601 31.9999C5.5639 31.9999 5.14918 31.8918 4.88702 31.4482C4.66337 31.0705 4.66263 30.6765 4.83815 30.2877C5.01514 29.8952 5.33581 29.6738 5.76608 29.6546C6.22745 29.6338 6.68957 29.6523 7.15094 29.6346C7.23241 29.6316 7.36349 29.5472 7.382 29.4768C7.57233 28.7496 7.74414 28.0172 7.92484 27.2707L7.9241 27.2699ZM11.7825 23.7219C12.4749 23.7433 12.98 23.1575 12.9903 22.5414C13.0007 21.9482 12.4593 21.4187 11.9076 21.3794C11.053 21.318 10.6064 22 10.6146 22.5562C10.6242 23.1568 11.1234 23.7418 11.7817 23.7219H11.7825Z" fill="#43CEEF"/>
<path d="M12.1818 7.22504V1.62411C11.9797 1.60412 11.7745 1.59375 11.5672 1.59375C8.13462 1.59375 5.35156 4.37607 5.35156 7.80935C5.35156 11.2426 8.13388 14.0249 11.5672 14.0249C15.0004 14.0249 17.7828 11.2426 17.7828 7.80935C17.7828 7.61236 17.7724 7.41759 17.7546 7.22578H12.1826L12.1818 7.22504Z" fill="#3B5AFB" fill-opacity="0.75"/>
</g>
<defs>
<clipPath id="clip0_1867_1846">
<rect width="23.6471" height="32" fill="white"/>
</clipPath>
</defs>
</svg>
