<svg width="87" height="24" viewBox="0 0 87 24" fill="none" xmlns="http://www.w3.org/2000/svg">
<g id="Layer_1" style="mix-blend-mode:luminosity" opacity="0.7" clip-path="url(#clip0_2111_377)">
<path id="Vector" d="M0.575195 12.1783C0.597201 12.1353 0.622593 12.0933 0.640198 12.0486C0.80609 11.6305 1.14058 11.4392 1.66636 11.4629C1.97918 11.4771 2.31063 11.7744 2.41389 12.1332C2.58858 12.7409 2.14948 13.328 1.51943 13.3297C1.10266 13.3307 0.793564 13.1201 0.637151 12.7304C0.621239 12.6912 0.596186 12.6556 0.575534 12.6184C0.575534 12.4718 0.575534 12.3249 0.575534 12.1783H0.575195Z" fill="white"/>
<path id="Vector_2" d="M76.8553 7.71251C77.876 7.71048 78.8968 7.70507 79.9175 7.70777C80.3102 7.70879 80.7067 7.69796 81.095 7.74502C82.2928 7.89026 83.2089 8.45767 83.6887 9.60436C83.8258 9.93208 83.8976 10.2832 83.9026 10.6491C83.9087 11.0794 83.8996 11.5043 83.7581 11.914C83.5174 12.6101 83.0769 13.1497 82.4452 13.5272C82.3304 13.5959 82.3243 13.6372 82.388 13.754C82.8294 14.5659 83.2594 15.3842 83.6938 16.1998C83.8326 16.4608 83.9734 16.7205 84.1237 17.0001C84.0648 17.0062 84.0242 17.014 83.9832 17.014C83.4134 17.0147 82.8436 17.0109 82.2742 17.0177C82.1645 17.0191 82.1178 16.9757 82.0731 16.8864C81.6286 15.9959 81.1786 15.1079 80.7355 14.2168C80.6837 14.1129 80.6254 14.0743 80.5069 14.0757C79.926 14.0828 79.345 14.0787 78.7641 14.079C78.7146 14.079 78.6649 14.0831 78.5995 14.0858V17.0062H76.8356C76.8312 16.9717 76.8228 16.9348 76.8228 16.8979C76.8221 13.8681 76.8221 10.8387 76.8228 7.809C76.8228 7.78666 76.8262 7.76397 76.8279 7.74163C76.837 7.73181 76.8461 7.72165 76.8553 7.71184V7.71251ZM78.6053 12.4303C79.1503 12.4303 79.6792 12.4391 80.2077 12.4266C80.4731 12.4201 80.7422 12.3968 81.0019 12.3433C81.4833 12.2437 81.8131 11.9522 82.0078 11.4945C82.1269 11.2142 82.1137 10.9261 82.0992 10.6393C82.0765 10.186 81.8635 9.83492 81.4647 9.60673C81.1278 9.41409 80.7558 9.36771 80.3776 9.36331C79.8312 9.35688 79.2844 9.36162 78.7376 9.36196C78.6943 9.36196 78.651 9.36771 78.6053 9.3711V12.4299V12.4303Z" fill="white"/>
<path id="Vector_3" d="M61.5021 15.2916V16.9949H55.3271V7.7168H61.4987V9.39739H57.1015V11.489H60.68V13.1875H57.1012V15.2913H61.5017L61.5021 15.2916Z" fill="white"/>
<path id="Vector_4" d="M42.3399 9.89051C41.8154 10.224 41.3063 10.5477 40.7893 10.8764C40.7063 10.7471 40.6363 10.6272 40.556 10.5145C40.1278 9.9132 39.5651 9.51099 38.8247 9.40536C38.2721 9.32682 37.721 9.3214 37.185 9.53537C36.4927 9.81197 35.9943 10.29 35.6564 10.9468C35.4218 11.4032 35.3033 11.8944 35.3186 12.4002C35.3538 13.5791 36.0123 14.7444 37.2717 15.2001C37.767 15.3792 38.264 15.3968 38.7769 15.3044C39.753 15.128 40.4148 14.5612 40.835 13.6834C40.837 13.679 40.8445 13.6773 40.88 13.6563C41.3967 13.9352 41.9299 14.2233 42.5068 14.5352C42.3003 14.8402 42.1188 15.1493 41.8974 15.4262C41.3218 16.1463 40.5858 16.643 39.7049 16.9199C39.3024 17.0466 38.8927 17.1197 38.4671 17.1268C37.8533 17.137 37.2507 17.0994 36.6667 16.8881C35.3612 16.4162 34.4363 15.5454 33.8993 14.265C33.6999 13.7897 33.594 13.295 33.5452 12.7794C33.4765 12.0529 33.5713 11.3554 33.8174 10.6753C34.2992 9.34443 35.1977 8.41272 36.5147 7.8927C37.0919 7.66485 37.6942 7.55245 38.3165 7.57513C39.3098 7.6117 40.231 7.87442 41.0422 8.4679C41.5649 8.85013 41.9986 9.31463 42.3395 9.89018L42.3399 9.89051Z" fill="white"/>
<path id="Vector_5" d="M64.7715 17.0142C65.9368 13.8978 67.0943 10.8018 68.2522 7.70533C68.8203 7.70533 69.3728 7.70364 69.9253 7.70905C69.9653 7.70939 70.0269 7.75408 70.0411 7.792C70.2632 8.38718 70.4744 8.98642 70.6976 9.58126C71.1018 10.6585 71.5152 11.7328 71.9194 12.8101C72.2038 13.5684 72.4767 14.3315 72.76 15.0906C72.9923 15.7128 73.2327 16.3324 73.4686 16.9533C73.4741 16.9675 73.468 16.9858 73.4666 17.0139C72.8907 17.0139 72.3165 17.0163 71.7427 17.0092C71.7007 17.0088 71.6377 16.9506 71.6208 16.9059C71.4986 16.5758 71.3858 16.2423 71.2694 15.9102C71.2149 15.7541 71.1533 15.6004 71.1048 15.4423C71.0734 15.3401 71.0188 15.3123 70.9125 15.3127C69.7279 15.3171 68.5437 15.3167 67.3591 15.3137C67.2504 15.3137 67.1966 15.3337 67.1576 15.4532C67.0087 15.9079 66.8357 16.3544 66.6823 16.8077C66.6308 16.9594 66.5638 17.0244 66.3888 17.0193C65.8535 17.0044 65.3179 17.0139 64.7715 17.0139V17.0142ZM70.4602 13.6785C70.0232 12.4583 69.5895 11.2483 69.1561 10.038C69.1429 10.038 69.1297 10.0387 69.1168 10.0387C68.6815 11.247 68.2464 12.4553 67.806 13.6785H70.4606H70.4602Z" fill="white"/>
<path id="Vector_6" d="M47.561 7.74404C47.5623 8.4831 47.565 9.22217 47.5654 9.96158C47.566 11.6601 47.5654 13.3586 47.5654 15.0572V15.2573H51.802V16.9978H45.7832V7.71289H47.5346C47.5434 7.72339 47.5522 7.73354 47.561 7.74404Z" fill="white"/>
<path id="Vector_7" d="M15.4044 5.82604C15.4301 6.44086 14.9406 6.82275 14.4212 6.82851C13.9039 6.83426 13.456 6.33591 13.4783 5.90526C13.5071 5.35613 13.9337 4.90619 14.5075 4.92853C15.0059 4.94783 15.4068 5.3348 15.404 5.82638L15.4044 5.82604Z" fill="white"/>
<path id="Vector_8" d="M17.7354 17.3944C17.2415 17.3961 16.8437 16.9614 16.822 16.4407C16.7996 15.9004 17.3153 15.4599 17.7249 15.4609C18.2974 15.4623 18.6834 15.8987 18.6878 16.348C18.6942 17.0061 18.3391 17.3924 17.7354 17.3944Z" fill="white"/>
<path id="Vector_9" d="M22.1423 18.8977C22.1934 19.4912 21.6639 19.8562 21.2184 19.8748C20.7386 19.8944 20.2531 19.3565 20.2751 18.8757C20.2975 18.3912 20.7034 17.9345 21.1513 17.9355C21.7841 17.9369 22.1426 18.2849 22.1423 18.8977Z" fill="white"/>
<path id="Vector_10" d="M24.2413 12.4362C24.2413 12.9563 23.8177 13.3679 23.2774 13.3632C22.798 13.3591 22.3565 12.9309 22.3545 12.4014C22.3521 11.8553 22.8241 11.4818 23.2402 11.4605C23.8838 11.4273 24.2768 11.9372 24.2413 12.4362Z" fill="white"/>
<path id="Vector_11" d="M7.01964 17.3592C6.56123 17.4245 6.09267 16.9011 6.09572 16.4451C6.09944 15.9183 6.48709 15.4782 6.9895 15.4727C7.62904 15.466 7.97199 15.8733 7.98621 16.4224C8.00043 16.9705 7.5857 17.3568 7.0193 17.3595L7.01964 17.3592Z" fill="white"/>
<path id="Vector_12" d="M20.2803 5.91885C20.283 5.37208 20.716 4.9868 21.3379 5.00035C21.7469 5.00915 22.1802 5.36429 22.1654 5.93205C22.1508 6.48525 21.8332 6.86511 21.1957 6.88915C20.7465 6.90607 20.2955 6.48897 20.2803 5.91885Z" fill="white"/>
<path id="Vector_13" d="M19.11 11.4671C19.6639 11.4665 20.0414 11.8555 20.0393 12.3934C20.037 12.9876 19.6334 13.3495 19.0802 13.3546C18.5558 13.3593 18.1519 12.9002 18.1475 12.4208C18.1428 11.8991 18.5822 11.4671 19.1097 11.4668L19.11 11.4671Z" fill="white"/>
<path id="Vector_14" d="M11.2744 5.88942C11.2754 6.43144 10.8877 6.82078 10.3562 6.83365C9.8416 6.84583 9.44753 6.3854 9.41299 5.94155C9.36627 5.34096 9.90593 4.9181 10.344 4.92589C10.8427 4.93503 11.316 5.31218 11.2744 5.88942Z" fill="white"/>
<path id="Vector_15" d="M17.5346 6.04938C17.02 6.05073 16.6256 5.64311 16.6202 5.11835C16.6144 4.57971 17.0481 4.16904 17.4859 4.16227C18.0682 4.15347 18.4382 4.50252 18.489 5.0371C18.5479 5.65699 17.9934 6.10693 17.5346 6.04938Z" fill="white"/>
<path id="Vector_16" d="M17.7646 7.47171C18.2575 7.46901 18.6855 7.85293 18.6915 8.30321C18.7 8.91768 18.3181 9.3551 17.7839 9.36966C17.293 9.3832 16.8187 8.91599 16.8193 8.41595C16.8197 7.88103 17.3221 7.41348 17.7646 7.47171Z" fill="white"/>
<path id="Vector_17" d="M10.3471 17.9699C10.9311 17.9221 11.2572 18.4391 11.2795 18.7946C11.3232 19.4927 10.8218 19.8671 10.3058 19.8611C9.86266 19.856 9.4293 19.4335 9.41745 18.9781C9.40188 18.3677 9.78106 17.9699 10.3471 17.9699Z" fill="white"/>
<path id="Vector_18" d="M9.95327 1.91495C9.94955 2.47593 9.56867 2.86053 9.03646 2.87441C8.61225 2.88559 8.07463 2.46205 8.08411 1.89802C8.09122 1.48498 8.44095 0.973763 9.02326 0.970716C9.54396 0.968008 9.957 1.39052 9.95361 1.91495H9.95327Z" fill="white"/>
<path id="Vector_19" d="M8.09111 5.1747C8.09381 5.70623 7.68484 6.1152 7.14417 6.11182C6.67188 6.10877 6.23244 5.67745 6.22567 5.16014C6.21822 4.61134 6.73655 4.2325 7.07612 4.21286C7.70075 4.1763 8.14257 4.6672 8.09144 5.17503L8.09111 5.1747Z" fill="white"/>
<path id="Vector_20" d="M16.617 19.7046C16.6204 19.1443 17.0274 18.7681 17.6398 18.7857C18.0884 18.7986 18.5062 19.1663 18.4862 19.7537C18.4669 20.315 18.0325 20.6786 17.5291 20.6735C17.0429 20.6688 16.5944 20.2378 16.617 19.7043V19.7046Z" fill="white"/>
<path id="Vector_21" d="M16.6914 22.9119C16.6924 23.4611 16.2976 23.8613 15.7563 23.8606C15.2745 23.8599 14.8364 23.4066 14.8273 22.9167C14.8175 22.3794 15.3168 21.9681 15.7265 21.9555C16.299 21.9383 16.7615 22.4204 16.6914 22.9123V22.9119Z" fill="white"/>
<path id="Vector_22" d="M4.80265 12.4015C4.80164 11.9083 5.18996 11.4668 5.62568 11.4668C6.27334 11.4665 6.66606 11.8121 6.67013 12.3782C6.67487 12.9954 6.24151 13.3471 5.68967 13.3566C5.28577 13.3634 4.78268 12.9683 4.80232 12.4019L4.80265 12.4015Z" fill="white"/>
<path id="Vector_23" d="M16.6906 1.92652C16.6923 2.45501 16.2949 2.85281 15.7803 2.8738C15.308 2.89276 14.8205 2.4181 14.8262 1.92787C14.8316 1.47082 15.1715 0.977888 15.7671 0.970778C16.3016 0.964346 16.6883 1.37129 16.6903 1.92652H16.6906Z" fill="white"/>
<path id="Vector_24" d="M7.22146 18.8148C7.79599 18.7955 8.18702 19.1997 8.17788 19.7647C8.16806 20.367 7.75976 20.6971 7.20114 20.7059C6.7275 20.7134 6.28332 20.2343 6.29822 19.7482C6.31548 19.1794 6.79725 18.7762 7.22146 18.8151V18.8148Z" fill="white"/>
<path id="Vector_25" d="M3.56189 19.8317C3.06185 19.8849 2.63628 19.33 2.63967 18.8997C2.64339 18.4294 3.0544 17.9924 3.47522 17.9643C4.22377 17.9138 4.53964 18.4474 4.52949 18.9044C4.51662 19.484 4.07074 19.8764 3.56223 19.8317H3.56189Z" fill="white"/>
<path id="Vector_26" d="M13.3056 3.37931C13.3056 3.92201 12.9132 4.31744 12.3885 4.33099C11.8932 4.34385 11.4331 3.85701 11.4415 3.36949C11.4503 2.85895 11.8759 2.41612 12.3827 2.42797C12.92 2.44083 13.3398 2.82882 13.3056 3.37931Z" fill="white"/>
<path id="Vector_27" d="M21.7357 9.60408C21.7374 10.1346 21.3227 10.552 20.7905 10.5531C20.3639 10.5541 19.8679 10.1197 19.8662 9.60848C19.8645 9.08576 20.3256 8.63649 20.8037 8.64868C21.3393 8.66256 21.7513 9.06443 21.7354 9.60408H21.7357Z" fill="white"/>
<path id="Vector_28" d="M14.4439 18.0038C14.9503 18.0038 15.3712 18.3633 15.3742 18.7991C15.3793 19.5246 15.0526 19.8669 14.3545 19.8672C13.9018 19.8672 13.5074 19.4091 13.5098 18.8807C13.5118 18.4331 13.9597 17.9259 14.4439 18.0041V18.0038Z" fill="white"/>
<path id="Vector_29" d="M8.1192 22.8761C8.08162 22.42 8.57557 21.9224 9.1457 21.9589C9.64642 21.9911 10.0155 22.4065 9.98566 22.9976C9.96196 23.4655 9.55197 23.8315 8.99911 23.8345C8.57862 23.8369 8.08162 23.4137 8.1192 22.8764V22.8761Z" fill="white"/>
<path id="Vector_30" d="M7.95644 8.35814C7.97303 8.87783 7.55932 9.28308 7.04438 9.29899C6.55381 9.31422 6.10048 8.86564 6.10353 8.33648C6.10658 7.81713 6.54365 7.39665 7.01797 7.4024C7.58471 7.40917 7.95509 7.77955 7.95644 8.35814Z" fill="white"/>
<path id="Vector_31" d="M4.90911 15.2159C4.90911 15.7424 4.53196 16.1324 4.037 16.1487C3.43301 16.1683 3.05214 15.6337 3.05078 15.1966C3.04943 14.7406 3.47567 14.2467 4.02684 14.2704C4.5103 14.291 4.96159 14.6746 4.90911 15.2163V15.2159Z" fill="white"/>
<path id="Vector_32" d="M13.3053 21.4469C13.3087 21.9679 12.923 22.3586 12.422 22.3779C11.9446 22.3965 11.4581 21.9012 11.4669 21.4266C11.4764 20.9201 11.864 20.4722 12.3549 20.4766C12.8834 20.4817 13.3117 20.8504 13.3049 21.4469H13.3053Z" fill="white"/>
<path id="Vector_33" d="M4.90949 9.59947C4.93489 10.0819 4.56857 10.54 3.96662 10.541C3.5265 10.5417 3.09856 10.133 3.08333 9.59744C3.06978 9.12651 3.49027 8.65693 3.90635 8.65625C4.53336 8.6549 4.90712 9.00666 4.90949 9.59913V9.59947Z" fill="white"/>
<path id="Vector_34" d="M20.7867 14.2778C21.2891 14.2778 21.7039 14.6441 21.7035 15.0883C21.7035 15.7227 21.366 16.1405 20.8537 16.1405C20.3138 16.1405 19.856 15.7194 19.8777 15.2075C19.8983 14.7199 20.2799 14.2345 20.7867 14.2781V14.2778Z" fill="white"/>
<path id="Vector_35" d="M3.59743 4.99876C4.01047 4.95983 4.50442 5.35086 4.5007 5.91185C4.49664 6.53953 4.06837 6.87097 3.53209 6.89095C3.1238 6.90618 2.67724 6.39598 2.67386 5.94807C2.66979 5.45175 3.11939 4.95577 3.59743 4.99876Z" fill="white"/>
<path id="Vector_36" d="M86.0005 7.74212C86.3827 7.67577 86.8018 8.04581 86.8096 8.4602C86.8208 9.04319 86.4992 9.3875 85.9896 9.41053C85.5316 9.43118 85.1375 8.95551 85.1466 8.56244C85.1551 8.18529 85.5119 7.66967 86.0008 7.74212H86.0005ZM85.9734 9.23245C86.4264 9.22804 86.641 8.99072 86.641 8.49372C86.641 8.16058 86.3553 7.94221 85.924 7.94593C85.6071 7.94864 85.3484 8.24691 85.3521 8.60544C85.3559 8.95144 85.6372 9.23583 85.9737 9.23245H85.9734Z" fill="white"/>
<path id="Vector_37" d="M86.3809 8.98402C86.2407 9.03209 86.176 8.97149 86.1188 8.86146C86.0697 8.76667 86.041 8.62143 85.8615 8.67153V8.99248H85.7129V8.10547C85.8561 8.12037 85.9949 8.12138 86.1259 8.15354C86.2014 8.17216 86.3118 8.23209 86.3223 8.28897C86.3389 8.37936 86.2874 8.4833 86.259 8.57978C86.2519 8.60416 86.2234 8.62244 86.1987 8.6502C86.2583 8.75956 86.3192 8.87094 86.3809 8.98402ZM85.8693 8.27305V8.51952C85.9895 8.50632 86.1611 8.57538 86.1615 8.39121C86.1618 8.19654 85.9793 8.3235 85.8693 8.27305Z" fill="white"/>
</g>
<defs>
<clipPath id="clip0_2111_377">
<rect width="86.2348" height="22.8908" fill="white" transform="translate(0.575195 0.970703)"/>
</clipPath>
</defs>
</svg>
