<svg width="105" height="17" viewBox="0 0 105 17" fill="none" xmlns="http://www.w3.org/2000/svg">
<g id="Layer_1" style="mix-blend-mode:luminosity" opacity="0.7" clip-path="url(#clip0_2111_449)">
<path id="Vector" d="M96.084 10.9871C95.8863 10.9871 95.7432 11.0041 95.6068 10.9871C95.191 10.9325 95.0342 11.0654 95.0478 11.5188C95.0717 12.2346 95.041 12.9572 94.9762 13.6696C94.8263 15.316 93.0504 15.9772 91.8062 15.3637C90.9098 14.9206 90.6166 14.1298 90.5382 13.206C90.5451 11.7233 90.5621 10.2372 90.5587 8.75442C90.5587 7.2819 90.5417 5.81279 90.5314 4.34027C90.7394 3.81535 90.8416 3.20521 91.1791 2.78254C91.8165 1.99175 92.73 1.99175 93.6367 2.28148C94.4922 2.55757 95.0274 3.38927 95.0581 4.40504C95.0785 4.99473 95.0615 5.58782 95.0615 6.21841C95.3342 6.21841 95.5659 6.2525 95.7807 6.20478C95.8932 6.18092 96.05 6.01049 96.0534 5.90482C96.0636 5.44466 96.0261 4.98109 95.9988 4.51752C95.8557 2.0122 94.3047 1.01007 92.0721 1.28957C91.7176 1.33389 91.3461 1.49068 91.0461 1.68838C89.9588 2.411 89.5907 3.51198 89.5429 4.75953C89.5361 7.54095 89.5327 10.3224 89.5293 13.1038C89.5293 13.1379 89.5634 13.1754 89.5804 13.2095C89.6452 13.5503 89.6861 13.9014 89.7849 14.232C90.4598 16.5397 92.9924 17.1396 94.7717 15.8579C95.4091 15.3978 95.6546 14.7161 95.8761 13.9934C96.1795 13.0049 96.05 12.0164 96.0874 10.9836L96.084 10.9871Z" fill="white"/>
<path id="Vector_2" d="M27.6058 8.86073C26.7195 7.48025 25.4515 6.69968 23.7847 6.64173C23.3961 6.6281 23.3586 6.37245 23.3007 6.08272C23.2087 5.60893 23.086 5.14195 22.9769 4.67156C22.8235 4.50795 22.6394 4.36479 22.5235 4.18072C22.3088 3.84668 22.1315 3.48878 21.9407 3.1411C21.6475 2.9059 21.3748 2.65708 21.3339 2.25145C21.3271 2.23441 21.3169 2.22077 21.2998 2.21396C20.7851 1.53565 20.0455 1.19138 19.3024 0.853925C18.8218 0.734624 18.3412 0.615323 17.8606 0.492613C17.8026 0.465344 17.7413 0.410807 17.6833 0.414215C16.9232 0.438075 16.1597 0.414215 15.4064 0.506247C14.0702 0.666452 12.9454 1.26977 12.0455 2.28213C11.0672 3.13428 10.5287 4.23867 10.1742 5.46236C10.1299 5.60893 9.96283 5.79981 9.82648 5.82708C9.48222 5.88843 9.11409 5.81344 8.77323 5.88502C6.84396 6.28724 5.60323 7.52115 4.8397 9.27317C4.72381 9.53905 4.62155 9.63449 4.37954 9.62085C3.77281 9.58677 3.22743 9.76401 2.6991 10.0401C1.37315 10.7389 0.694837 12.2693 0.916396 13.4283C1.2334 15.0883 2.32074 16.421 4.2841 16.5642C4.32159 16.5642 4.35909 16.5642 4.39999 16.5642C5.86569 16.571 7.33139 16.5778 8.80049 16.5846C8.8414 16.5846 8.87889 16.5846 8.9198 16.5846C8.96752 16.588 9.01524 16.5949 9.06296 16.5983C9.09704 16.5983 9.12772 16.6051 9.16181 16.6085C9.25725 16.5608 9.3561 16.513 9.45154 16.4653C9.45836 16.4278 9.46517 16.3869 9.47199 16.3494C9.47199 14.0759 9.47199 11.8058 9.46176 9.53223C9.46176 9.07888 9.63901 8.74825 10.048 8.61191C10.4537 8.47556 10.9275 8.51306 11.1592 8.88459C11.3569 9.20159 11.4353 9.63449 11.4422 10.0197C11.4694 11.7785 11.4558 13.5407 11.4558 15.303C11.4558 15.7359 11.4558 16.1688 11.4558 16.588H13.1635C13.1635 16.4006 13.1635 16.2472 13.1635 16.0904C13.1635 12.5386 13.1635 8.99026 13.1635 5.4385C13.1635 4.93402 13.5282 4.46364 13.9441 4.42273C14.636 4.35456 15.0382 4.6068 15.1166 5.25443C15.1916 5.85094 15.1678 6.46108 15.1882 7.0644C15.1882 7.09508 15.1882 7.12235 15.1882 7.15302C15.1882 7.40867 15.1882 7.66091 15.1882 7.91655C15.1882 9.6788 15.1882 11.441 15.1882 13.2033C15.1882 13.2885 15.1882 13.3703 15.1882 13.4555C15.1882 13.4862 15.1882 13.5135 15.1882 13.5442C15.1882 13.5987 15.1882 13.6566 15.1882 13.7112C15.1882 13.7691 15.1882 13.8271 15.1882 13.885C15.1882 13.9975 15.1882 14.11 15.1882 14.2225C15.1882 14.2531 15.1882 14.2804 15.1882 14.3111V14.5633C15.1678 14.7951 15.1473 15.0235 15.1269 15.2553C15.1269 15.5961 15.0996 15.9404 15.1337 16.2744C15.1473 16.3937 15.3007 16.588 15.403 16.5949C15.8938 16.6289 16.388 16.6085 16.913 16.6085V16.1074C16.913 13.5373 16.913 10.9673 16.913 8.39716C16.913 6.69286 16.913 4.98856 16.9164 3.28767C16.9164 2.77297 17.3152 2.38439 17.8197 2.37416C18.5593 2.36053 18.8968 2.72184 18.8934 3.55354C18.89 7.79725 18.8797 12.041 18.8763 16.2847C18.8763 16.3903 18.89 16.4994 18.8968 16.6085C19.3467 16.6085 19.7592 16.5812 20.1682 16.6153C20.5704 16.6494 20.6693 16.496 20.6693 16.1074C20.6556 13.3396 20.6693 10.5719 20.6556 7.80066C20.6556 7.33709 20.8908 7.10189 21.2692 6.96214C21.9407 6.71331 22.5406 7.17348 22.6394 7.99836C22.6496 8.01881 22.6633 8.03926 22.6667 8.05971C22.6667 8.06653 22.6496 8.07675 22.6394 8.08357C22.6394 10.4423 22.6394 12.8011 22.636 15.1564C22.6462 15.1769 22.6565 15.1973 22.6633 15.2178C22.6633 15.2246 22.6462 15.2348 22.636 15.2416V16.6392C23.0928 16.5983 23.4984 16.5642 23.9006 16.5233C25.3493 16.3767 26.5082 15.6609 27.3637 14.5326C28.6488 12.8386 28.7613 10.6468 27.6058 8.85051V8.86073Z" fill="white"/>
<path id="Vector_3" d="M15.1879 7.91797C15.1879 9.68022 15.1879 11.4425 15.1879 13.2047C15.1675 13.0956 15.1266 12.99 15.1266 12.8809C15.1232 11.3334 15.1232 9.78929 15.1266 8.24179C15.1266 8.13271 15.1675 8.02704 15.1879 7.91797Z" fill="white"/>
<path id="Vector_4" d="M22.9766 4.67328C22.8233 4.50966 22.6392 4.3665 22.5233 4.18244C22.3086 3.84839 22.1313 3.49049 21.9404 3.14281C21.9745 3.11214 22.0052 3.08146 22.0393 3.05078C22.3529 3.58934 22.6665 4.13131 22.9801 4.66987L22.9766 4.67328Z" fill="white"/>
<path id="Vector_5" d="M22.0357 3.05543C22.0016 3.0861 21.9709 3.11678 21.9368 3.14746C21.6437 2.91226 21.371 2.66344 21.3301 2.25781C21.5653 2.52368 21.8005 2.78955 22.0323 3.05883L22.0357 3.05543Z" fill="white"/>
<path id="Vector_6" d="M72.036 1.50803C72.036 1.42623 71.8656 1.28988 71.7667 1.28306C71.3884 1.2558 71.0066 1.27284 70.5908 1.27284C70.4817 1.82844 70.3794 2.36018 70.2738 2.88852C70.2431 2.93624 70.1988 2.98055 70.1886 3.03168C69.7284 4.99844 69.2716 6.96521 68.8183 8.93197C68.5831 9.95796 68.3547 10.9874 68.1195 12.0133C67.9491 12.7564 67.7719 13.4961 67.598 14.2392C67.5605 14.246 67.523 14.2494 67.4855 14.2562C67.4208 14.1301 67.3253 14.0142 67.2912 13.8779C66.8004 11.8804 66.3164 9.88638 65.8358 7.88553C65.5665 6.75387 65.3143 5.61881 65.0484 4.48715C64.895 3.83611 64.7246 3.19188 64.561 2.54425C64.4996 2.17612 64.4451 1.80458 64.3633 1.43986C64.3496 1.37169 64.2303 1.28306 64.1553 1.27966C63.7531 1.26261 63.3475 1.27284 62.9453 1.27284V2.72149C62.9453 2.97714 62.9453 3.23279 62.9453 3.48843C62.9419 3.54638 62.9316 3.60091 62.9316 3.65886C62.9316 7.80372 62.9316 11.9486 62.9316 16.0934C62.9316 16.1753 62.9419 16.2571 62.9487 16.3355C63.7156 16.3968 63.777 16.3423 63.777 15.6265C63.777 15.4833 63.777 15.3436 63.777 15.2004C63.7702 12.6303 63.7633 10.0636 63.7565 7.49354C63.7633 7.14245 63.777 6.78796 63.777 6.43687C63.777 5.86082 63.7497 5.28136 63.7633 4.7053C63.7736 4.29286 63.8349 3.88042 63.8724 3.46798C63.8963 3.48161 63.9235 3.48843 63.9542 3.48843C64.1553 4.35081 64.3598 5.21318 64.561 6.07215C65.0313 8.05937 65.5051 10.0432 65.9687 12.0304C66.2721 13.3223 66.555 14.6175 66.8618 15.9094C66.8993 16.0662 67.0049 16.3252 67.0935 16.332C67.3935 16.3559 67.6969 16.2911 68.0002 16.2468C68.0241 16.2468 68.0377 16.148 68.048 16.0934C68.2491 15.1902 68.4434 14.2835 68.6479 13.3802C69.0671 11.5327 69.5 9.68868 69.9193 7.84463C70.2397 6.44369 70.5465 5.03934 70.8737 3.64182C70.8907 3.57365 71.0305 3.53615 71.1123 3.48843C71.1123 5.55745 71.1123 7.62307 71.1123 9.69209C71.1123 11.7441 71.1225 13.7995 71.1259 15.8514V16.4923C71.4634 16.3423 71.719 16.2298 71.9781 16.1139C71.9883 16.0491 71.9985 15.9878 72.0053 15.923C72.0019 15.5685 71.9951 15.214 71.9917 14.8595C71.9781 11.1544 71.9644 7.45264 71.9474 3.74748C71.9747 3.69976 72.0224 3.64863 72.0224 3.60091C72.0326 2.90556 72.0462 2.2102 72.0292 1.51485L72.036 1.50803Z" fill="white"/>
<path id="Vector_7" d="M97.6892 4.33594C97.6892 4.36639 97.6892 4.39346 97.6892 4.42392C97.679 4.40362 97.6689 4.38331 97.6621 4.35963C97.6621 4.35286 97.679 4.34271 97.6892 4.33594Z" fill="white"/>
<path id="Vector_8" d="M9.0625 16.5996C9.09659 16.5996 9.12726 16.6064 9.16135 16.6098C9.12726 16.6098 9.09659 16.603 9.0625 16.5996Z" fill="white"/>
<path id="Vector_9" d="M81.3249 10.0488C81.3249 10.0793 81.3249 10.1064 81.3249 10.1368C81.3148 10.1165 81.3046 10.0962 81.2979 10.0725C81.2979 10.0657 81.3148 10.0556 81.3249 10.0488Z" fill="white"/>
<path id="Vector_10" d="M98.6844 8.36497C98.6674 8.33429 98.6504 8.30021 98.6367 8.26953C98.6538 8.30021 98.6708 8.33429 98.6844 8.36497Z" fill="white"/>
<path id="Vector_11" d="M15.1872 13.457C15.1872 13.4875 15.1872 13.5146 15.1872 13.545C15.1771 13.5247 15.1669 13.5044 15.1602 13.4807C15.1602 13.474 15.1771 13.4638 15.1872 13.457Z" fill="white"/>
<path id="Vector_12" d="M97.6892 13.8848C97.6892 13.9152 97.6892 13.9423 97.6892 13.9727C97.679 13.9524 97.6689 13.9321 97.6621 13.9085C97.6621 13.9017 97.679 13.8915 97.6892 13.8848Z" fill="white"/>
<path id="Vector_13" d="M15.1872 14.2246C15.1872 14.2551 15.1872 14.2821 15.1872 14.3126C15.1771 14.2923 15.1669 14.272 15.1602 14.2483C15.1602 14.2415 15.1771 14.2314 15.1872 14.2246Z" fill="white"/>
<path id="Vector_14" d="M98.6162 8.09931C98.6162 8.06182 98.6196 8.02773 98.623 7.99023C98.623 8.02773 98.6196 8.06182 98.6162 8.09931Z" fill="white"/>
<path id="Vector_15" d="M81.3216 14.8203C81.3012 14.851 81.2807 14.8851 81.2637 14.9158C81.2841 14.8851 81.3046 14.851 81.3216 14.8203Z" fill="white"/>
<path id="Vector_16" d="M22.6357 15.1621C22.6459 15.1824 22.656 15.2027 22.6628 15.223C22.6628 15.2298 22.6459 15.2399 22.6357 15.2467C22.6357 15.2196 22.6357 15.1892 22.6357 15.1621Z" fill="white"/>
<path id="Vector_17" d="M22.6387 8.00391C22.6488 8.02421 22.6624 8.04451 22.6657 8.06482C22.6657 8.07159 22.6488 8.08174 22.6387 8.08851V8.00391Z" fill="white"/>
<path id="Vector_18" d="M15.1911 7.0625C15.1911 7.09296 15.1911 7.12003 15.1911 7.15048C15.181 7.13018 15.1708 7.10988 15.1641 7.08619C15.1641 7.07942 15.181 7.06927 15.1911 7.0625Z" fill="white"/>
<path id="Vector_19" d="M97.6892 5.78516C97.6892 5.81561 97.6892 5.84268 97.6892 5.87314C97.679 5.85284 97.6655 5.83253 97.6621 5.81223C97.6621 5.80546 97.679 5.79531 97.6892 5.78516Z" fill="white"/>
<path id="Vector_20" d="M98.5586 16.2732C98.5825 16.2425 98.6029 16.2118 98.6268 16.1777C98.6029 16.2084 98.5825 16.2391 98.5586 16.2732Z" fill="white"/>
<path id="Vector_21" d="M79.6475 15.4835C79.6134 15.4733 79.5827 15.4596 79.5486 15.4494C79.4089 15.4596 79.2726 15.4698 79.1328 15.4801C78.8158 15.4801 78.4988 15.4801 78.1852 15.4801C78.1341 15.4801 78.0795 15.4801 78.0284 15.4801C77.0604 15.4801 76.0889 15.4801 75.1209 15.4801C75.0902 15.4801 75.0663 15.4903 75.0391 15.5073C74.9879 15.4869 74.9402 15.4664 74.8891 15.446C74.855 15.4085 74.8243 15.371 74.7902 15.3335C74.78 15.3062 74.7698 15.279 74.7596 15.2517C74.7596 15.2244 74.7596 15.1937 74.7596 15.1665C74.7664 13.6531 74.7766 12.1396 74.7732 10.6296C74.7732 10.282 74.7289 9.93428 74.6982 9.59001C74.6743 9.33095 74.7493 9.18438 75.0425 9.19802C75.2674 9.20824 75.4958 9.19461 75.7208 9.1912H75.8946C75.9798 9.18779 76.0651 9.18779 76.1469 9.18779C76.1775 9.18779 76.2048 9.18779 76.2355 9.18779C76.3207 9.18779 76.4025 9.18779 76.4877 9.18779C76.5184 9.18779 76.5457 9.18779 76.5763 9.18779C77.2581 9.18779 77.9364 9.18779 78.6181 9.1912C78.6488 9.1912 78.676 9.18779 78.7067 9.18438C78.9453 8.97305 78.9521 8.56061 78.7169 8.33564C77.7148 8.32882 76.7127 8.32201 75.7106 8.31519C75.6049 8.3186 75.4992 8.32541 75.3936 8.32882C75.2708 8.32882 75.1447 8.32882 75.022 8.32882C74.9402 8.2811 74.8584 8.23338 74.7766 8.18566C74.7766 8.15839 74.7732 8.12772 74.7698 8.10045C74.7732 7.88911 74.78 7.67437 74.78 7.46304C74.7834 5.7451 74.7868 4.03057 74.7902 2.31264C74.8755 2.28878 74.9573 2.26492 75.0425 2.24106C75.0732 2.24106 75.1004 2.24106 75.1311 2.23765C76.4332 2.23424 77.7353 2.2172 79.0374 2.23083C79.7872 2.23765 79.7873 2.2581 79.7259 1.47753C79.7225 1.42299 79.702 1.37186 79.685 1.29688H79.051C79.0237 1.29688 78.993 1.29688 78.9658 1.29688C78.9078 1.29688 78.8533 1.29688 78.7953 1.29688C78.7681 1.29688 78.7374 1.29688 78.7101 1.29688C78.567 1.29688 78.4272 1.29688 78.2841 1.29688C78.2261 1.29688 78.1716 1.29688 78.1136 1.29688C78.0557 1.29688 78.0011 1.29688 77.9432 1.29688H77.858C76.6377 1.32414 75.414 1.348 74.1937 1.37527C73.8665 1.21848 73.7608 1.30369 73.7642 1.67864C73.7779 4.22827 73.7711 6.78132 73.7711 9.33095C73.7711 11.5431 73.7677 13.7519 73.7711 15.9641C73.7711 16.1311 73.6586 16.4106 74.0267 16.3493C74.0812 16.3493 74.1358 16.3493 74.1937 16.3493C74.2517 16.3493 74.3096 16.3493 74.3676 16.3493C74.4255 16.3493 74.4801 16.3493 74.538 16.3493C74.7084 16.3493 74.8789 16.3493 75.0493 16.3493C75.4174 16.3493 75.7856 16.3493 76.1537 16.3493C76.1844 16.3493 76.2116 16.3493 76.2423 16.3493C76.3275 16.3493 76.4093 16.3493 76.4945 16.3493C76.5252 16.3493 76.5525 16.3493 76.5832 16.3493C77.4728 16.3561 78.3659 16.339 79.2521 16.3765C79.6373 16.3936 79.76 16.2402 79.7293 15.8993C79.7191 15.763 79.6816 15.6266 79.6577 15.4937L79.6475 15.4835Z" fill="white"/>
<path id="Vector_22" d="M104.357 1.79731C104.357 1.42577 104.241 1.22807 103.842 1.26897C103.73 1.2792 103.617 1.27579 103.501 1.2792C103.454 1.30647 103.409 1.33714 103.362 1.36441C103.355 1.56211 103.348 1.75981 103.345 1.95751C103.338 3.97881 103.334 5.9967 103.324 8.01801C103.324 8.18503 103.403 8.42022 103.082 8.37591L102.891 8.36909C101.487 8.36909 100.083 8.36909 98.6782 8.36909C98.6612 8.33841 98.6442 8.30433 98.6305 8.27365C98.6237 8.21571 98.6169 8.16117 98.6101 8.10322C98.6101 8.06573 98.6135 8.03164 98.6169 7.99415C98.6169 5.87059 98.6169 3.74362 98.6169 1.62006C98.593 1.53484 98.5692 1.44963 98.5453 1.36441C98.2726 1.33714 98.0033 1.30647 97.6216 1.26556V2.79262C97.642 2.90851 97.6625 3.02781 97.6829 3.1437C97.6829 3.31413 97.6829 3.48456 97.6829 3.65159C97.6829 3.70953 97.6829 3.76748 97.6829 3.82542V3.99245C97.6829 4.05039 97.6829 4.10834 97.6829 4.16628V4.33331C97.6829 4.36398 97.6829 4.39125 97.6829 4.42193C97.6829 4.50714 97.6829 4.58895 97.6829 4.67417C97.6829 4.73211 97.6829 4.79006 97.6829 4.84801C97.6829 4.90254 97.6829 4.96049 97.6829 5.01503C97.6829 5.07297 97.6829 5.13092 97.6829 5.18887C97.6829 5.2434 97.6829 5.30135 97.6829 5.35589C97.6829 5.41383 97.6829 5.47178 97.6829 5.52973C97.6829 5.61494 97.6829 5.69675 97.6829 5.78196C97.6829 5.81264 97.6829 5.83991 97.6829 5.87059C97.6829 5.92512 97.6829 5.98307 97.6829 6.03761V6.21145C97.6829 6.83522 97.6829 7.459 97.6829 8.08618C97.6625 8.31455 97.6386 8.54634 97.6182 8.77472C97.6182 9.39508 97.6182 10.012 97.6182 10.6324C97.6386 10.6665 97.6591 10.6972 97.6795 10.7278C97.6795 10.7824 97.6795 10.8403 97.6795 10.8949C97.6795 10.9255 97.6795 10.9528 97.6795 10.9835C97.6795 11.038 97.6795 11.096 97.6795 11.1505C97.6795 11.2085 97.6795 11.2664 97.6795 11.3244C97.6795 11.3789 97.6795 11.4368 97.6795 11.4914C97.6795 11.5493 97.6795 11.6073 97.6795 11.6652C97.6795 11.7232 97.6795 11.7777 97.6795 11.8322V12.0061C97.6795 12.0606 97.6795 12.1186 97.6795 12.1731C97.6795 12.231 97.6795 12.289 97.6795 12.3469C97.6795 12.4015 97.6795 12.4594 97.6795 12.514C97.6795 12.5719 97.6795 12.6298 97.6795 12.6878C97.6795 13.0832 97.6795 13.482 97.6795 13.8774C97.6795 13.9081 97.6795 13.9353 97.6795 13.966V16.3827C98.0102 16.3384 98.2794 16.3009 98.5487 16.2668C98.5726 16.2361 98.593 16.2055 98.6169 16.1714C98.6169 13.9626 98.6203 11.7538 98.6169 9.54847C98.6169 9.30305 98.7464 9.27237 98.9373 9.27578C99.4315 9.28601 99.9292 9.28942 100.423 9.29623C100.481 9.29623 100.539 9.29623 100.597 9.29623H100.938C100.993 9.29623 101.051 9.29623 101.105 9.29623C101.163 9.29623 101.221 9.29623 101.279 9.29623C101.334 9.29623 101.391 9.29623 101.446 9.29623H101.62C101.674 9.29623 101.732 9.29623 101.787 9.29623C101.845 9.29623 101.903 9.29623 101.961 9.29623C102.302 9.29282 102.639 9.30305 102.976 9.27919C103.259 9.26215 103.358 9.32009 103.355 9.64732C103.338 11.7129 103.355 13.7785 103.355 15.8407C103.355 15.9703 103.355 16.0964 103.355 16.2259C103.355 16.2498 103.362 16.2702 103.386 16.2805C103.423 16.3009 103.457 16.3248 103.495 16.3452C103.593 16.3452 103.692 16.352 103.791 16.352C104.347 16.3452 104.343 16.3452 104.343 15.8033C104.343 13.5024 104.343 11.205 104.343 8.90424C104.343 6.53526 104.34 4.16288 104.35 1.7939L104.357 1.79731Z" fill="white"/>
<path id="Vector_23" d="M97.6862 10.9023C97.6862 10.9328 97.6862 10.9599 97.6862 10.9903C97.6761 10.97 97.6626 10.9497 97.6592 10.926C97.6592 10.9193 97.6761 10.9091 97.6862 10.9023Z" fill="white"/>
<path id="Vector_24" d="M37.8722 12.3373C37.879 10.0262 37.8756 7.7186 37.8722 5.40756C37.8722 5.27804 37.8245 5.14851 37.7972 5.01898C37.7597 4.54519 37.804 4.04412 37.6711 3.5976C37.2314 2.15576 36.1884 1.40927 34.6409 1.35814C34.4636 1.33428 34.2864 1.28997 34.1091 1.28997C33.0865 1.28315 32.0639 1.30701 31.0448 1.27975C30.7244 1.27293 30.6357 1.3411 30.6357 1.66833C30.646 6.18132 30.6426 10.6977 30.646 15.2107C30.646 15.4493 30.6664 15.6913 30.6732 15.9299C30.6698 16.0117 30.663 16.0969 30.6596 16.1787C30.6801 16.2094 30.7005 16.2401 30.721 16.2708C30.7891 16.2878 30.8539 16.3219 30.9221 16.3219C32.1151 16.3219 33.3081 16.356 34.5011 16.3117C35.0056 16.2912 35.5203 16.1719 35.9975 16.0015C37.2212 15.5652 37.9029 14.2018 37.7836 12.8622C37.8177 12.6849 37.879 12.5111 37.879 12.3338L37.8722 12.3373ZM33.2365 3.40331C33.6251 3.4408 34.0171 3.47829 34.4091 3.48511C35.1215 3.49875 35.5714 3.90096 35.5748 4.61677C35.5919 6.3347 35.5884 8.04923 35.5884 9.76717C35.5884 10.7591 35.5919 11.7544 35.5714 12.7463C35.5509 13.745 35.1726 14.2836 34.0887 14.2324C33.7069 14.2154 33.3251 14.2222 32.9434 14.2222C32.9468 10.7182 32.9536 7.21753 32.957 3.71349C32.957 3.51238 32.9911 3.38285 33.2365 3.40671V3.40331Z" fill="white"/>
<path id="Vector_25" d="M61.5551 14.9946L61.3983 14.2276C61.337 13.822 61.279 13.413 61.2108 13.0073C61.0234 11.8621 60.8257 10.7202 60.6382 9.57829C60.4848 8.62047 60.345 7.66265 60.1951 6.70143C60.0519 5.80156 59.9053 4.90168 59.7622 4.00181C59.6531 3.16671 59.5474 2.33501 59.4247 1.50331C59.4145 1.44195 59.2747 1.40105 59.1929 1.34992C59.1589 1.32947 59.1248 1.30902 59.0907 1.29197C58.2147 1.29879 57.3353 1.30902 56.4592 1.31583C56.4286 1.31583 56.3945 1.31583 56.3638 1.31583C56.282 1.30902 56.2002 1.3022 56.1184 1.29538C56.0877 1.29538 56.057 1.28856 56.0264 1.28516C55.948 1.62261 55.8661 1.96006 55.7878 2.29751C55.7434 2.65541 55.7128 3.01673 55.6548 3.37463C55.5014 4.30518 55.331 5.22891 55.181 6.15946C54.997 7.29452 54.8265 8.433 54.6527 9.56806C54.4891 10.6213 54.3289 11.678 54.1584 12.7312C53.9846 13.8118 53.838 14.8991 53.6131 15.9694C53.5381 16.3273 53.6369 16.3648 53.9164 16.3648C54.3698 16.3648 54.8265 16.3614 55.2799 16.3648C55.573 16.3648 55.7298 16.2489 55.6889 15.9353C55.7707 15.4513 55.8525 14.9707 55.9343 14.4867C55.9957 14.1935 56.0604 13.9004 56.1218 13.6038H59.0361C59.1793 14.4867 59.302 15.2945 59.452 16.0989C59.469 16.1978 59.6088 16.3478 59.6974 16.3512C60.3757 16.3716 61.054 16.3614 61.746 16.3614C61.6778 15.8774 61.6165 15.4377 61.5551 14.998V14.9946ZM57.4784 4.09384C57.5364 4.19269 57.6284 4.28473 57.6454 4.38698C57.7204 4.83351 57.7647 5.28686 57.8295 5.73679C57.9931 6.84118 58.1601 7.94557 58.3272 9.04654C58.3817 9.41127 58.4362 9.77599 58.4874 10.1373C58.5453 10.6043 58.5998 11.0678 58.6646 11.603H56.6263C56.5683 11.5996 56.507 11.5962 56.449 11.5894C56.4115 11.528 56.374 11.4667 56.3365 11.4053C56.4013 10.9792 56.4627 10.5566 56.5274 10.1305C56.582 9.87484 56.6365 9.61919 56.691 9.36014C56.7831 8.70568 56.8717 8.05464 56.9637 7.40019C56.9876 7.34224 57.008 7.2843 57.0319 7.22976C57.0319 7.03206 57.0319 6.83095 57.0353 6.63325C57.0967 6.23786 57.1614 5.84246 57.2228 5.44706C57.308 4.99372 57.3932 4.54037 57.475 4.08362L57.4784 4.09384Z" fill="white"/>
<g id="Group">
<path id="Vector_26" d="M53.8856 2.97711V1.35461C51.9836 1.35461 50.1123 1.35461 48.2444 1.35461C47.7945 1.35461 47.3445 1.3103 46.8946 1.31712C46.8128 1.31712 46.6662 1.45687 46.6662 1.53186C46.6526 2.01247 46.6696 2.4965 46.6798 2.97711C46.6798 3.11686 46.6798 3.25321 46.6833 3.39296C46.7071 3.40659 46.7276 3.42364 46.7514 3.43727C47.5149 3.43727 48.2751 3.43727 49.0386 3.43727C49.0693 3.45431 49.1 3.46795 49.1306 3.48499C49.1306 3.45772 49.1306 3.42704 49.134 3.39978C49.1613 3.20549 49.1068 3.10323 49.0147 3.04528C49.1102 3.09982 49.1647 3.20549 49.134 3.39978C49.134 3.42704 49.134 3.45772 49.1306 3.48499C49.1443 3.51226 49.1579 3.54294 49.1715 3.57361C49.1613 3.74404 49.1409 3.91107 49.1409 4.0815C49.1409 7.14242 49.1409 10.1999 49.1409 13.2609C49.1409 14.1232 49.1545 14.989 49.1613 15.8514C49.3488 15.8787 49.5397 15.9025 49.7271 15.9298C49.993 15.9298 50.2589 15.9162 50.5247 15.9366C50.2623 15.9128 49.993 15.9298 49.7271 15.9298C49.5397 15.9025 49.3488 15.8787 49.1613 15.8514C49.2193 16.0116 49.2704 16.3116 49.3351 16.315C50.0237 16.3491 50.7122 16.3354 51.4246 16.3354V14.7402C51.4314 14.6857 51.4451 14.6277 51.4451 14.5732C51.4451 11.2123 51.4451 7.85141 51.4451 4.49053C51.4451 4.15649 51.4451 3.81903 51.4451 3.4884C51.6291 3.46795 51.7825 3.4509 51.9359 3.43045C52.437 3.43727 52.9414 3.41682 53.4391 3.46113C53.8481 3.49863 53.9743 3.35887 53.8856 2.97711ZM51.2712 3.36569C51.1894 3.45431 51.1349 3.55316 51.0974 3.66224C51.1349 3.55316 51.1928 3.45431 51.2712 3.36569C51.353 3.27707 51.4587 3.20208 51.5985 3.14754C51.4587 3.20549 51.353 3.28047 51.2712 3.36569Z" fill="white"/>
<path id="Vector_27" d="M46.2166 11.2466C46.1586 10.8716 46.0461 10.5069 45.9609 10.1354C45.9677 10.0808 45.9848 10.0195 45.978 9.96835C45.8075 8.89123 45.6337 7.81411 45.4599 6.7404C45.2008 5.14517 44.9418 3.54995 44.6827 1.95813C44.6043 1.28664 44.6043 1.29004 43.9839 1.29345C43.2613 1.30027 42.5353 1.30027 41.8127 1.30027C40.9639 1.30027 41.223 1.27982 41.0457 2.03994C40.981 2.6194 40.9332 3.20227 40.8446 3.77492C40.6946 4.72592 40.514 5.67351 40.3572 6.62451C40.1902 7.63005 40.03 8.63899 39.8663 9.64453C39.7505 10.3774 39.638 11.1068 39.5221 11.8397C39.4812 12.0374 39.4403 12.2351 39.4028 12.4328C39.3789 12.4634 39.3414 12.4941 39.338 12.5282C39.2494 13.1554 39.1608 13.786 39.079 14.4166C39.0176 14.8938 38.9699 15.371 38.9153 15.8516C38.7824 16.0834 38.687 16.3322 39.0824 16.3561C39.5902 16.3867 40.1015 16.3799 40.6094 16.3493C40.7015 16.3424 40.7833 16.1413 40.8685 16.0323C40.4117 16.0016 39.9584 15.9675 39.5016 15.9368L40.8685 16.0323C40.9196 15.7153 40.9707 15.3983 41.0219 15.0847C41.0832 14.7063 41.1855 14.328 41.1957 13.9462C41.2059 13.636 41.3082 13.5644 41.5979 13.5746C42.4876 13.6087 43.3806 13.619 44.2703 13.6394C44.3043 13.7246 44.3384 13.8098 44.3725 13.8951C44.4577 14.6211 44.5361 15.3505 44.6452 16.0732C44.6588 16.1686 44.8259 16.3118 44.9247 16.3118C45.6098 16.3322 46.2984 16.322 46.9767 16.322C46.8063 15.2721 46.6392 14.2393 46.4722 13.2099C46.3904 12.5555 46.3188 11.901 46.22 11.25L46.2166 11.2466ZM43.9396 11.4988C43.7999 11.5329 43.6635 11.5977 43.5238 11.6011C42.9511 11.6147 42.3751 11.6113 41.8024 11.6147C41.7718 11.6113 41.7377 11.6045 41.707 11.6011C41.6525 11.5431 41.5979 11.4818 41.5434 11.4238C41.6865 10.5717 41.8263 9.71611 41.9695 8.86396C42.0853 8.22996 42.2081 7.59596 42.3137 6.95855C42.358 6.68586 42.3614 6.40636 42.3819 6.12685C42.4467 5.78599 42.5114 5.44513 42.5796 5.10427C42.5694 4.90657 42.5626 4.70546 42.5523 4.50777C42.5694 4.48731 42.5728 4.46005 42.5694 4.43278C42.5932 4.4021 42.6171 4.36801 42.6409 4.33734C42.6955 4.2453 42.7466 4.15668 42.8386 3.99988C42.9068 4.26916 42.958 4.47368 43.0091 4.6782C42.9954 4.79068 42.9852 4.90657 42.9716 5.01906C43.0057 5.09405 43.0568 5.16563 43.067 5.24402C43.1863 6.09617 43.2988 6.94492 43.4181 7.79707C43.5885 9.03098 43.7658 10.2615 43.9396 11.492V11.4988Z" fill="white"/>
</g>
<path id="Vector_28" d="M87.8218 15.7889C87.7707 15.5775 87.682 15.3662 87.6718 15.1515C87.6241 13.9244 87.6139 12.6938 87.5593 11.4668C87.5116 10.4033 86.939 9.69769 85.9096 9.35342C85.8073 9.31933 85.7221 9.24093 85.6062 9.16935C85.7494 9.09436 85.8652 9.02278 85.988 8.97166C86.7004 8.66829 87.2048 8.16723 87.4298 7.42074C87.815 6.1357 87.682 4.82339 87.5286 3.52812C87.4877 3.18726 87.2321 2.87026 87.0753 2.54303C86.9867 2.43055 86.8981 2.31806 86.8128 2.20558C86.2845 1.54431 85.5142 1.47273 84.7609 1.35343C84.6995 1.33638 84.6416 1.31593 84.5802 1.29889C84.4677 1.29889 84.3552 1.29889 84.2428 1.29889C83.8167 1.29889 83.3906 1.29889 82.9645 1.29889C82.9066 1.29889 82.8486 1.29889 82.7907 1.3023C82.7362 1.3023 82.6816 1.3023 82.6237 1.3023C82.593 1.3023 82.5623 1.3023 82.5316 1.3023C82.2215 1.29889 81.9113 1.30571 81.6045 1.28526C81.3114 1.2648 81.2398 1.39774 81.2534 1.6602C81.2705 2.03856 81.2602 2.42032 81.2602 2.79868C81.2773 2.82935 81.2977 2.86344 81.3148 2.89412C81.3148 5.28014 81.3182 7.66616 81.3216 10.0522C81.3216 10.0829 81.3216 10.1101 81.3216 10.1408C81.3216 11.7019 81.3216 13.2631 81.3216 14.8276C81.3011 14.8583 81.2807 14.8924 81.2636 14.9231C81.2636 15.2469 81.2909 15.5775 81.25 15.8979C81.1852 16.399 81.4886 16.3581 81.8226 16.3683C82.184 16.3786 82.3851 16.3445 82.3782 15.8775C82.351 13.7982 82.368 11.7156 82.368 9.63633C82.8964 9.66019 83.4281 9.68405 83.9564 9.71473C84.3177 9.73518 84.6893 9.71814 85.0335 9.80676C85.8141 10.0045 86.4277 10.4339 86.5436 11.2963C86.6424 12.0428 86.6697 12.7961 86.7276 13.5494C86.7276 13.5767 86.7276 13.6074 86.7276 13.6346C86.7276 14.0607 86.7344 14.4868 86.7378 14.9129C86.7378 14.9401 86.7379 14.9674 86.7413 14.9981C86.7413 15.056 86.7481 15.114 86.7515 15.1719C86.7447 15.1992 86.7379 15.2264 86.7344 15.2537C86.8435 16.3172 86.8878 16.4672 87.9411 16.3206C87.9002 16.1399 87.8627 15.9661 87.8218 15.7923V15.7889ZM84.2359 8.76032C83.6156 8.80122 82.9918 8.76032 82.3714 8.7535V2.19535H83.9837C84.2393 2.2124 84.495 2.23285 84.754 2.24989C84.7813 2.26352 84.812 2.27716 84.8393 2.28738C85.0915 2.34533 85.3471 2.40328 85.5994 2.46122L86.5299 3.56902C86.5913 4.4314 86.7004 5.29718 86.6935 6.15956C86.6935 6.8481 86.6015 7.55027 86.0766 8.09224C85.5721 8.61375 84.9006 8.7126 84.2359 8.7535V8.76032Z" fill="white"/>
</g>
<defs>
<clipPath id="clip0_2111_449">
<rect width="103.482" height="16.2284" fill="white" transform="translate(0.875 0.419922)"/>
</clipPath>
</defs>
</svg>
