<svg width="12" height="55" viewBox="0 0 12 55" fill="none" xmlns="http://www.w3.org/2000/svg">
<path id="Arrow 8" d="M6 55L8.88675 50L3.11325 50L6 55ZM6.5 52.0536L6.5 50.0893L5.5 50.0893L5.5 52.0536L6.5 52.0536ZM6.5 48.125L6.5 46.1607L5.5 46.1607L5.5 48.125L6.5 48.125ZM6.5 44.1964L6.5 42.2321L5.5 42.2321L5.5 44.1964L6.5 44.1964ZM6.5 40.2679L6.5 38.3036L5.5 38.3036L5.5 40.2679L6.5 40.2679ZM6.5 36.3393L6.5 34.375L5.5 34.375L5.5 36.3393L6.5 36.3393ZM6.5 32.4107L6.5 30.4464L5.5 30.4464L5.5 32.4107L6.5 32.4107ZM6.5 28.4821L6.5 26.5179L5.5 26.5179L5.5 28.4821L6.5 28.4821ZM6.5 24.5536L6.5 22.5893L5.5 22.5893L5.5 24.5536L6.5 24.5536ZM6.5 20.625L6.5 18.6607L5.5 18.6607L5.5 20.625L6.5 20.625ZM6.5 16.6964L6.5 14.7321L5.5 14.7321L5.5 16.6964L6.5 16.6964ZM6.5 12.7679L6.5 10.8036L5.5 10.8036L5.5 12.7679L6.5 12.7679ZM6.5 8.83928L6.5 6.875L5.5 6.875L5.5 8.83928L6.5 8.83928ZM6.5 4.91071L6.5 2.94642L5.5 2.94642L5.5 4.91071L6.5 4.91071ZM6.5 0.982136L6.5 1.41206e-10L5.5 -1.41206e-10L5.5 0.982136L6.5 0.982136ZM6 55L11.7735 45L0.226497 45L6 55ZM7 52.0536L7 50.0893L5 50.0893L5 52.0536L7 52.0536ZM7 48.125L7 46.1607L5 46.1607L5 48.125L7 48.125ZM7 44.1964L7 42.2321L5 42.2321L5 44.1964L7 44.1964ZM7 40.2679L7 38.3036L5 38.3036L5 40.2679L7 40.2679ZM7 36.3393L7 34.375L5 34.375L5 36.3393L7 36.3393ZM7 32.4107L7 30.4464L5 30.4464L5 32.4107L7 32.4107ZM7 28.4821L7 26.5179L5 26.5179L5 28.4821L7 28.4821ZM7 24.5536L7 22.5893L5 22.5893L5 24.5536L7 24.5536ZM7 20.625L7 18.6607L5 18.6607L5 20.625L7 20.625ZM7 16.6964L7 14.7321L5 14.7321L5 16.6964L7 16.6964ZM7 12.7679L7 10.8036L5 10.8036L5 12.7679L7 12.7679ZM7 8.83928L7 6.875L5 6.875L5 8.83928L7 8.83928ZM7 4.91071L7 2.94642L5 2.94642L5 4.91071L7 4.91071ZM7 0.982136L7 2.82405e-10L5 -2.82405e-10L5 0.982136L7 0.982136Z" fill="white" fill-opacity="0.8"/>
</svg>
