<svg width="40" height="40" viewBox="0 0 40 40" fill="none" xmlns="http://www.w3.org/2000/svg">
<g id="Group 482">
<g id="Enterprise">
<g id="layer">
<path id="Vector" d="M32.2828 8.14922L22.5161 3.79922C21.0828 3.16589 18.9161 3.16589 17.4828 3.79922L7.71615 8.14922C5.24948 9.24922 4.88281 10.7492 4.88281 11.5492C4.88281 12.3492 5.24948 13.8492 7.71615 14.9492L17.4828 19.2992C18.1995 19.6159 19.0995 19.7826 19.9995 19.7826C20.8995 19.7826 21.7995 19.6159 22.5161 19.2992L32.2828 14.9492C34.7495 13.8492 35.1161 12.3492 35.1161 11.5492C35.1161 10.7492 34.7661 9.24922 32.2828 8.14922Z" fill="#43CEEF"/>
<path id="Vector_2" opacity="0.75" d="M20.0005 28.4007C19.3672 28.4007 18.7339 28.2673 18.1505 28.0173L6.91719 23.0173C5.20052 22.2507 3.86719 20.2007 3.86719 18.3173C3.86719 17.634 4.41719 17.084 5.10052 17.084C5.78385 17.084 6.33385 17.634 6.33385 18.3173C6.33385 19.2173 7.08385 20.384 7.91719 20.7507L19.1505 25.7507C19.6839 25.984 20.3005 25.984 20.8339 25.7507L32.0672 20.7507C32.9005 20.384 33.6505 19.234 33.6505 18.3173C33.6505 17.634 34.2005 17.084 34.8839 17.084C35.5672 17.084 36.1172 17.634 36.1172 18.3173C36.1172 20.184 34.7839 22.2507 33.0672 23.0173L21.8339 28.0173C21.2672 28.2673 20.6339 28.4007 20.0005 28.4007Z" fill="#3B5AFB"/>
<path id="Vector_3" opacity="0.6" d="M20.0005 36.6663C19.3672 36.6663 18.7339 36.5329 18.1505 36.2829L6.91719 31.2829C5.06719 30.4663 3.86719 28.6163 3.86719 26.5829C3.86719 25.8996 4.41719 25.3496 5.10052 25.3496C5.78385 25.3496 6.33385 25.8996 6.33385 26.5829C6.33385 27.6329 6.95052 28.5829 7.91719 29.0163L19.1505 34.0163C19.6839 34.2496 20.3005 34.2496 20.8339 34.0163L32.0672 29.0163C33.0172 28.5996 33.6505 27.6329 33.6505 26.5829C33.6505 25.8996 34.2005 25.3496 34.8839 25.3496C35.5672 25.3496 36.1172 25.8996 36.1172 26.5829C36.1172 28.6163 34.9172 30.4496 33.0672 31.2829L21.8339 36.2829C21.2672 36.5329 20.6339 36.6663 20.0005 36.6663Z" fill="#3B5AFB"/>
</g>
</g>
</g>
</svg>
