<svg width="87" height="24" viewBox="0 0 87 24" fill="none" xmlns="http://www.w3.org/2000/svg">
<g id="fundera-by-nw-logo 1" style="mix-blend-mode:luminosity" opacity="0.7" clip-path="url(#clip0_2111_439)">
<g id="Group">
<path id="Vector" fill-rule="evenodd" clip-rule="evenodd" d="M32.1932 3.39575C32.4791 3.39105 32.7643 3.42504 33.0411 3.4968L33.44 1.45906C33.1561 1.37462 32.6751 1.30859 32.1262 1.30859C30.4307 1.30859 29.0838 2.08336 28.7348 3.73395L28.5021 4.79527H27.1219L26.6566 7.08588H28.0359L26.9535 12.4684L26.8547 12.8686C26.6566 13.6087 26.3562 13.8284 25.642 13.8284C25.5284 13.8284 25.4174 13.8225 25.3115 13.814L24.9072 15.8764C25.2066 15.9204 25.5088 15.942 25.8113 15.9411C27.5073 15.9411 28.8538 15.1663 29.2032 13.5158L29.2544 13.2818H29.2679L29.4152 12.5488L29.4359 12.4549L30.5165 7.08408H32.1128L32.5781 4.79347H30.8961L30.9791 4.35556C31.1292 3.63244 31.4781 3.39575 32.1932 3.39575ZM41.5218 4.79437H39.0277L38.0967 9.44296C37.8303 10.7226 37.1157 11.262 36.2175 11.262C35.3699 11.262 34.954 10.7562 34.954 10.1167C34.9566 9.95266 34.9733 9.78917 35.0039 9.62801L35.9857 4.79437H33.4916L32.4609 9.72862C32.4021 10.0284 32.3688 10.3327 32.3611 10.6381C32.3611 12.3224 33.5913 13.4843 35.6695 13.4843C36.9163 13.4843 37.6457 13.1812 38.2296 12.3898L38.2462 12.4235C38.3559 12.6755 38.5344 12.8914 38.7614 13.0464C39.061 13.2485 39.4266 13.3496 39.8254 13.3496C40.2745 13.3496 40.5737 13.2993 40.8068 13.2319L41.2222 11.1434C41.1014 11.1636 40.9792 11.1749 40.8566 11.1771C40.557 11.1771 40.3742 10.9579 40.3742 10.6044C40.3767 10.4794 40.3934 10.3551 40.4241 10.2339L41.5218 4.79437ZM50.2917 10.6718C50.2929 10.5412 50.3097 10.4113 50.3416 10.2847L50.7408 8.33089C50.7936 8.04763 50.8213 7.76026 50.8235 7.47214C50.8235 5.6365 49.6598 4.60887 48.0141 4.60887C47.0498 4.60887 46.2517 4.99648 45.6364 5.92261L45.8695 4.79392H43.375L41.6794 13.2827H44.1569L45.088 8.56669C45.2874 7.53951 45.9862 6.83211 46.9169 6.83211C47.7644 6.83211 48.2301 7.28664 48.2301 8.07848C48.2358 8.23709 48.219 8.3957 48.1803 8.54962L47.8147 10.436C47.7316 10.8569 47.6647 11.1942 47.6647 11.4803C47.6647 12.5919 48.3963 13.3496 49.5268 13.3496C50.2904 13.3496 50.5077 13.249 50.541 13.2319L50.9569 11.1942C50.8632 11.2057 50.7688 11.2113 50.6744 11.2108C50.4246 11.2108 50.2917 11.0087 50.2917 10.6718ZM56.0173 11.1605C54.7705 11.1605 53.9558 10.3857 53.9558 9.29115C53.9558 8.06186 55.0364 6.89993 56.4328 6.89993C57.663 6.89993 58.4948 7.65763 58.4948 8.7185C58.4925 10.1167 57.3782 11.1605 56.0173 11.1605ZM60.4899 10.7059C60.4933 10.581 60.5099 10.4568 60.5393 10.3354L62.3021 1.54394H59.8579L58.9933 5.80493C58.7607 5.21566 57.7465 4.64301 56.2666 4.64301C53.7564 4.64301 51.4608 6.86625 51.4608 9.54357C51.4608 11.9016 53.19 13.4174 55.4011 13.4174C56.7647 13.4174 57.6127 13.1142 58.2756 12.3565L58.2918 12.4073C58.4032 12.6912 58.6014 12.9326 58.8581 13.0972C59.1725 13.2993 59.5732 13.4003 59.9886 13.4003C60.4378 13.4003 60.7369 13.3496 60.97 13.2822L61.385 11.1937C61.2642 11.2142 61.1419 11.2255 61.0194 11.2274C60.6884 11.2278 60.4876 11.0262 60.4876 10.7059H60.4899ZM68.3098 8.07848H64.3857C64.7001 7.28709 65.5499 6.66369 66.6314 6.66369C67.6289 6.66369 68.3107 7.25341 68.3107 8.02817L68.3098 8.07848ZM66.6804 4.59225C63.8207 4.59225 61.7753 6.96686 61.7753 9.56064C61.7753 11.9186 63.4371 13.5185 65.9653 13.5185C67.262 13.5185 68.609 13.1142 69.7228 12.0026L68.4423 10.5204C67.8441 11.0765 67.1457 11.3963 66.3642 11.3963C65.0343 11.3963 64.2195 10.7733 64.2195 9.84674C64.2195 9.81305 64.2195 9.72906 64.2361 9.712H70.4877C70.6132 9.29662 70.6803 8.86581 70.6871 8.43195C70.6871 6.22533 69.1075 4.59225 66.6804 4.59225ZM77.9524 4.69286C77.6618 4.63828 77.3669 4.61002 77.0712 4.60842C76.0737 4.60842 75.2589 4.99603 74.627 5.92216L74.8763 4.79347H72.3826L70.6701 13.2822H73.1641L73.9277 9.4762C74.2421 7.92667 75.1579 6.93272 76.521 6.93272C76.521 6.93272 77.1287 5.69579 78.4442 4.81548L77.9524 4.69286ZM81.3268 11.16C80.08 11.16 79.2653 10.3853 79.2653 9.2907C79.2653 8.06141 80.3459 6.89904 81.7427 6.89904C82.9729 6.89904 83.8043 7.65718 83.8043 8.71805C83.8043 10.1158 82.6899 11.16 81.3268 11.16ZM85.7993 10.7055C85.8027 10.5806 85.8194 10.4563 85.8492 10.335L86.9631 4.79392H84.5193L84.3028 5.80448C84.0701 5.21476 83.056 4.64211 81.5765 4.64211C79.0658 4.64211 76.7707 6.86535 76.7707 9.54312C76.7707 11.9011 78.4999 13.4169 80.7115 13.4169C82.0746 13.4169 82.9226 13.1138 83.586 12.3727L83.6021 12.4064C83.7185 12.7266 83.935 12.9454 84.2008 13.1138C84.5349 13.3044 84.9135 13.4032 85.2981 13.3999C85.7472 13.3999 86.0464 13.3496 86.2795 13.2822L86.6945 11.1937C86.5736 11.2142 86.4514 11.2255 86.3289 11.2274C85.9988 11.2274 85.7993 11.0253 85.7993 10.7055Z" fill="white"/>
<path id="Vector_2" fill-rule="evenodd" clip-rule="evenodd" d="M12.1689 10.3277C12.0715 10.2276 11.9551 10.1479 11.8265 10.0933C11.6979 10.0387 11.5597 10.0103 11.42 10.0098C11.2804 10.0093 11.142 10.0366 11.013 10.0902C10.884 10.1437 10.7669 10.2225 10.6688 10.3219L2.96107 18.0713C1.55977 16.2074 0.807878 13.9356 0.820468 11.6037C0.842027 5.73167 5.5562 0.993694 11.3492 1.0157C15.6061 1.03187 19.2585 3.61577 20.8894 7.31309L15.2387 12.9943C15.2387 12.9943 15.1319 13.1016 15.0088 13.1012C14.9678 13.1021 14.9271 13.0939 14.8897 13.0772C14.8523 13.0605 14.819 13.0357 14.7923 13.0046L12.1689 10.3277Z" fill="white"/>
<path id="Vector_3" fill-rule="evenodd" clip-rule="evenodd" d="M14.9992 15.8189C14.8594 15.8181 14.7213 15.7896 14.5927 15.7351C14.4641 15.6805 14.3476 15.6009 14.25 15.5009L11.6423 12.8389C11.6137 12.805 11.5783 12.7776 11.5383 12.7584C11.4984 12.7392 11.4548 12.7287 11.4105 12.7275C11.3214 12.7324 11.2377 12.7721 11.1774 12.838L4.41113 19.6406C6.30086 21.3233 8.74057 22.257 11.2708 22.2659C17.0647 22.2874 21.778 17.5499 21.7996 11.6796C21.8021 10.9876 21.738 10.2969 21.6082 9.61719L15.7506 15.5068C15.6522 15.6059 15.5351 15.6845 15.4061 15.7381C15.2771 15.7917 15.1388 15.8192 14.9992 15.8189Z" fill="white"/>
</g>
<path id="Vector_4" d="M33.3848 21.6632V22.0472C33.3848 22.064 33.3815 22.0806 33.3751 22.096C33.3687 22.1115 33.3593 22.1256 33.3475 22.1374C33.3356 22.1493 33.3216 22.1587 33.3061 22.1651C33.2906 22.1715 33.274 22.1748 33.2573 22.1748H32.0397C32.0058 22.1748 31.9734 22.1613 31.9495 22.1374C31.9255 22.1135 31.9121 22.0811 31.9121 22.0472V16.6436C31.9121 16.6098 31.9255 16.5773 31.9494 16.5533C31.9734 16.5293 32.0058 16.5157 32.0397 16.5156H33.2573C33.2912 16.5157 33.3236 16.5293 33.3475 16.5533C33.3714 16.5773 33.3848 16.6098 33.3848 16.6436V18.2134C33.3849 18.2386 33.3924 18.2632 33.4065 18.2842C33.4205 18.3051 33.4405 18.3214 33.4638 18.331C33.4871 18.3406 33.5127 18.3431 33.5374 18.3382C33.5622 18.3332 33.5849 18.321 33.6027 18.3032C33.7414 18.1667 33.9062 18.0596 34.0872 17.9882C34.2683 17.9168 34.4618 17.8827 34.6564 17.8877C35.6566 17.8877 36.5171 18.7173 36.5171 20.0584V20.0737C36.5171 21.4386 35.6566 22.2682 34.6644 22.2682C34.0285 22.2682 33.6561 21.9808 33.3848 21.6632ZM35.075 20.0822V20.0661C35.075 19.5082 34.6873 19.1126 34.2144 19.1126C33.7338 19.1126 33.3538 19.5082 33.3538 20.0661V20.0822C33.3538 20.6401 33.7338 21.0358 34.2144 21.0358C34.6873 21.0358 35.075 20.6477 35.075 20.0822ZM39.914 17.9812H41.1478C41.1684 17.9812 41.1887 17.9861 41.207 17.9957C41.2253 18.0053 41.241 18.0191 41.2527 18.0361C41.2645 18.053 41.2719 18.0726 41.2744 18.0931C41.277 18.1135 41.2745 18.1343 41.2672 18.1536L39.7972 22.0742C39.433 23.0591 39.0373 23.4387 38.2001 23.4387C37.7681 23.4414 37.3424 23.3357 36.9618 23.1315C36.9335 23.116 36.9121 23.0905 36.9017 23.0599C36.8913 23.0294 36.8927 22.9961 36.9056 22.9666L37.2537 22.168C37.2609 22.1523 37.2711 22.1381 37.2839 22.1265C37.2967 22.1149 37.3118 22.106 37.3282 22.1004C37.3445 22.0948 37.3619 22.0926 37.3791 22.094C37.3964 22.0953 37.4132 22.1002 37.4284 22.1083C37.627 22.2085 37.8165 22.2682 37.9521 22.2682C38.0202 22.273 38.0883 22.2597 38.1495 22.2296C38.2107 22.1996 38.2629 22.1538 38.3007 22.0971L36.7287 18.1559C36.721 18.1365 36.7181 18.1156 36.7204 18.0949C36.7227 18.0742 36.73 18.0543 36.7417 18.0371C36.7534 18.0199 36.7691 18.0057 36.7875 17.996C36.8059 17.9863 36.8264 17.9812 36.8473 17.9812H38.1013C38.1281 17.9811 38.1543 17.9895 38.1761 18.0052C38.1979 18.021 38.2142 18.0432 38.2225 18.0688L38.9052 20.1316C38.9135 20.1574 38.9297 20.1799 38.9515 20.1958C38.9733 20.2118 38.9997 20.2203 39.0267 20.2203C39.0537 20.2203 39.0801 20.2118 39.1019 20.1958C39.1238 20.1799 39.14 20.1574 39.1482 20.1316L39.7927 18.0723C39.8006 18.0462 39.8166 18.0233 39.8384 18.0069C39.8602 17.9905 39.8867 17.9815 39.914 17.9812Z" fill="white"/>
<path id="Vector_5" fill-rule="evenodd" clip-rule="evenodd" d="M61.659 22.0419H60.7939C60.7274 22.0419 60.6592 21.9755 60.6282 21.9072L60.528 21.6418L60.5087 21.6566L60.4782 21.6795C60.3378 21.7911 60.1874 21.8896 60.029 21.9737C59.7545 22.0857 59.4605 22.1421 59.164 22.1394H59.0647C58.7684 22.1421 58.4745 22.0858 58.2001 21.9737C57.9521 21.8462 57.7273 21.678 57.535 21.476C57.3566 21.2604 57.221 21.0127 57.1357 20.7462C57.0692 20.4807 57.0009 20.2153 57.0009 19.9166C57.0009 19.6179 57.0674 19.3529 57.1357 19.0875C57.3395 18.5769 57.7163 18.1542 58.2001 17.8932C58.4635 17.7839 58.7458 17.7275 59.031 17.7271C59.3167 17.724 59.5999 17.7806 59.8624 17.8932C60.0413 18.0093 60.2084 18.1426 60.3614 18.2912V16.3356C60.3638 16.3009 60.3788 16.2682 60.4036 16.2438C60.4284 16.2194 60.4614 16.2049 60.4961 16.2031H61.6603C61.6951 16.2049 61.728 16.2194 61.7528 16.2438C61.7776 16.2682 61.7927 16.3009 61.795 16.3356V21.909C61.7926 21.944 61.7775 21.9769 61.7524 22.0014C61.7273 22.0259 61.694 22.0404 61.659 22.0419ZM76.5888 22.0419H75.3914C75.3563 22.04 75.3231 22.0252 75.2983 22.0003C75.2734 21.9755 75.2586 21.9423 75.2567 21.9072V16.3356C75.259 16.3009 75.274 16.2682 75.2989 16.2438C75.3237 16.2194 75.3566 16.2049 75.3914 16.2031H76.5884C76.6231 16.205 76.656 16.2195 76.6808 16.2439C76.7056 16.2683 76.7206 16.3009 76.7231 16.3356V21.909C76.7206 21.9437 76.7056 21.9764 76.6808 22.0009C76.656 22.0254 76.6231 22.04 76.5884 22.0419H76.5888ZM77.7525 22.0419H78.9495C78.9846 22.04 79.0177 22.0252 79.0426 22.0003C79.0675 21.9755 79.0823 21.9423 79.0842 21.9072V16.3356C79.0818 16.3009 79.0668 16.2682 79.042 16.2438C79.0172 16.2194 78.9843 16.2049 78.9495 16.2031H77.7525C77.7177 16.2049 77.6848 16.2194 77.66 16.2438C77.6352 16.2682 77.6202 16.3009 77.6178 16.3356V21.909C77.6201 21.9438 77.6351 21.9765 77.66 22.001C77.6848 22.0255 77.7177 22.04 77.7525 22.0419ZM85.9655 18.9231H86.8287C86.8635 18.9213 86.8964 18.9069 86.9213 18.8824C86.9461 18.858 86.9611 18.8254 86.9635 18.7906V17.9934C86.9635 17.9269 86.897 17.8941 86.8287 17.8941H85.9637L85.829 16.9321C85.8303 16.9099 85.827 16.8878 85.8191 16.867C85.8113 16.8462 85.7992 16.8274 85.7835 16.8117C85.7678 16.796 85.749 16.7838 85.7283 16.7759C85.7075 16.768 85.6854 16.7646 85.6632 16.7659H84.6652C84.5988 16.7659 84.566 16.8324 84.566 16.9006V20.6824C84.5677 20.8833 84.59 21.0834 84.6324 21.2798C84.6989 21.4787 84.7672 21.6445 84.8983 21.7774C84.998 21.9099 85.1647 22.0096 85.3641 22.0756C85.6008 22.1483 85.8478 22.1819 86.0953 22.1753C86.2511 22.1797 86.407 22.1686 86.5606 22.1421C86.6047 22.1285 86.6497 22.1182 86.6953 22.1111C86.7408 22.1056 86.7853 22.0936 86.8274 22.0756C86.8939 22.0756 86.9275 22.0096 86.9275 21.9431L86.8939 21.2133C86.8957 21.1952 86.8934 21.177 86.8872 21.16C86.8811 21.1429 86.8711 21.1275 86.8582 21.1148C86.8453 21.102 86.8297 21.0924 86.8125 21.0865C86.7954 21.0806 86.7771 21.0787 86.7591 21.0808H86.6926C86.6296 21.1075 86.5611 21.1187 86.4928 21.1136C86.2934 21.1136 86.1272 21.0475 86.0607 20.9478C85.9942 20.8481 85.9606 20.7156 85.9606 20.5167L85.9655 18.9231ZM81.0797 20.6483C81.0121 20.5512 80.9771 20.4351 80.9796 20.3168H84.1056V19.9849C84.1046 19.6571 84.0484 19.3319 83.9394 19.0228C83.8477 18.7619 83.7001 18.5242 83.5069 18.3262C83.3101 18.1233 83.0721 17.9649 82.8089 17.8618C82.5336 17.7526 82.2401 17.6962 81.9439 17.6956C81.6267 17.6994 81.3122 17.7556 81.0133 17.8618C80.7474 17.9611 80.5143 18.1272 80.2816 18.3262C80.0788 18.5299 79.9105 18.7652 79.7831 19.0228C79.6736 19.3203 79.6172 19.6347 79.6165 19.9516C79.6165 20.3168 79.6829 20.615 79.8159 20.8805C79.9026 21.1604 80.0775 21.4049 80.3144 21.5775C80.5143 21.7765 80.7802 21.909 81.078 22.0087C81.3658 22.1146 81.6696 22.1706 81.9762 22.1744C82.3753 22.1712 82.7702 22.0924 83.14 21.9422C83.3297 21.8398 83.5081 21.7175 83.6722 21.5775C83.7387 21.5111 83.7387 21.4446 83.6722 21.3781L83.0735 20.7812C83.007 20.7147 82.9068 20.7147 82.8741 20.7812L82.5749 20.9802C82.4083 21.0799 82.2421 21.1127 82.009 21.1127C81.8845 21.1099 81.7611 21.0876 81.6434 21.0466C81.5236 21.0116 81.411 20.9553 81.3111 20.8805C81.2182 20.8206 81.1393 20.7414 81.0797 20.6483ZM82.5745 18.8917C82.4397 18.7255 82.2417 18.659 81.9421 18.659C81.8175 18.662 81.6942 18.6844 81.5765 18.7255C81.4637 18.7528 81.3605 18.8103 81.2778 18.8917C81.1777 18.9577 81.1112 19.0574 81.0447 19.1567C81.0068 19.2521 80.9842 19.3529 80.9778 19.4553H82.8071C82.8083 19.3506 82.7884 19.2466 82.7484 19.1497C82.7084 19.0529 82.6493 18.9651 82.5745 18.8917ZM73.3635 22.0419H74.2277C74.2627 22.0399 74.2958 22.0251 74.3207 22.0002C74.3455 21.9754 74.3604 21.9423 74.3624 21.9072V17.8286C74.3604 17.7935 74.3455 17.7604 74.3207 17.7355C74.2958 17.7107 74.2627 17.6959 74.2277 17.6938H73.2306C73.1641 17.6938 73.0958 17.7603 73.064 17.8286L72.9647 18.1933C72.8299 18.094 72.6651 17.9943 72.4989 17.895C72.2129 17.7827 71.908 17.7263 71.6007 17.7289C71.3152 17.7293 71.0326 17.7858 70.7689 17.895C70.5211 18.0225 70.2965 18.1907 70.1046 18.3927C69.9327 18.6004 69.7977 18.836 69.7053 19.0893C69.528 19.628 69.528 20.2093 69.7053 20.748C69.7901 21.0147 69.9257 21.2625 70.1046 21.4778C70.2703 21.6768 70.5034 21.8425 70.7361 21.9755C71.0122 22.0813 71.3049 22.1374 71.6007 22.1412H71.8333C72.0992 22.108 72.3319 22.0747 72.5313 21.9755C72.7294 21.8691 72.9187 21.747 73.0972 21.6103L73.1964 21.909C73.1969 21.9755 73.2647 22.0419 73.3635 22.0419ZM72.8758 19.4306C72.8265 19.3427 72.7671 19.2608 72.6988 19.1868C72.6233 19.0822 72.5193 19.0016 72.3992 18.9546C72.2641 18.8905 72.1167 18.8566 71.9672 18.8553C71.8064 18.8531 71.6472 18.887 71.5014 18.9546C71.3817 19.0018 71.2781 19.0824 71.2027 19.1868C71.1056 19.2759 71.0362 19.3911 71.0029 19.5187C70.9142 19.7767 70.9142 20.057 71.0029 20.315C71.0355 20.4523 71.1046 20.5783 71.2027 20.6797C71.2548 20.7578 71.3478 20.8144 71.4331 20.8683C71.4565 20.8832 71.478 20.8975 71.5014 20.9133C71.6471 20.9812 71.8064 21.0153 71.9672 21.013C72.1167 21.0117 72.2642 20.9777 72.3992 20.9133C72.4208 20.8989 72.4441 20.8845 72.4684 20.8683C72.5537 20.8153 72.6481 20.7578 72.6988 20.6797C72.7985 20.5804 72.865 20.4475 72.9315 20.315C73.0201 20.057 73.0201 19.7767 72.9315 19.5187C72.9135 19.4917 72.8955 19.4621 72.8762 19.4311L72.8758 19.4306ZM68.0426 22.0401C68.0686 22.0388 68.0932 22.0278 68.1117 22.0094C68.1302 21.991 68.1412 21.9665 68.1427 21.9404L69.5391 17.9925C69.5485 17.9754 69.5533 17.9561 69.5529 17.9365C69.5526 17.917 69.5471 17.8979 69.5371 17.8811C69.527 17.8644 69.5128 17.8505 69.4957 17.841C69.4786 17.8314 69.4594 17.8265 69.4398 17.8268H68.2424C68.176 17.8268 68.1427 17.86 68.1077 17.926L67.3765 20.4807L66.613 17.926C66.5797 17.86 66.5465 17.8268 66.4782 17.8268H65.2471C65.1807 17.8268 65.1479 17.86 65.1151 17.926L64.383 20.4807H64.3497L63.6185 17.926C63.6169 17.9001 63.6058 17.8756 63.5874 17.8573C63.5689 17.839 63.5444 17.8281 63.5184 17.8268H62.255C62.1553 17.8268 62.0888 17.926 62.1202 17.9925L63.5166 21.9404C63.5503 22.0069 63.5831 22.0401 63.6513 22.0401H64.9152C64.9412 22.0386 64.9657 22.0277 64.9841 22.0093C65.0024 21.9909 65.0134 21.9664 65.0149 21.9404L65.813 19.419H65.8458L66.6444 21.9404C66.6772 22.0069 66.7109 22.0401 66.7791 22.0401H68.0426ZM60.2037 19.251C60.2671 19.3341 60.3201 19.4246 60.3618 19.5205C60.4505 19.7785 60.4505 20.0588 60.3618 20.3168C60.3331 20.4309 60.2545 20.5454 60.1912 20.6388L60.1745 20.6635L60.1624 20.6815C60.0657 20.7775 59.9531 20.856 59.8296 20.9137C59.6949 20.9792 59.5471 21.0133 59.3973 21.0133C59.2475 21.0133 59.0997 20.9792 58.965 20.9137C58.8417 20.856 58.7292 20.7774 58.6326 20.6815C58.5676 20.6088 58.5177 20.5239 58.4858 20.4318C58.4696 20.394 58.4525 20.3554 58.4328 20.3168C58.3442 20.0588 58.3442 19.7785 58.4328 19.5205C58.4472 19.4926 58.4593 19.4666 58.4714 19.4414C58.5091 19.3479 58.5637 19.2621 58.6326 19.1886C58.7324 19.0893 58.8321 18.9896 58.965 18.9564C59.0998 18.891 59.2476 18.8571 59.3973 18.8571C59.5471 18.8571 59.6949 18.891 59.8296 18.9564C59.9643 18.9896 60.0623 19.0911 60.1624 19.1886C60.175 19.2061 60.1894 19.2281 60.2037 19.251ZM56.9699 17.8636L56.9035 18.8589C56.9035 18.9249 56.837 18.9581 56.7687 18.9581H56.7364C56.6734 18.9311 56.6048 18.9197 56.5365 18.9249C56.3759 18.9225 56.2167 18.9565 56.0712 19.0246C55.8587 19.1662 55.6868 19.3606 55.5722 19.5887C55.5448 19.6856 55.5336 19.7864 55.539 19.887V21.9108C55.537 21.9459 55.5222 21.9791 55.4974 22.0039C55.4725 22.0288 55.4393 22.0436 55.4042 22.0455H54.2401C54.205 22.0436 54.1718 22.0288 54.1469 22.0039C54.1221 21.9791 54.1073 21.9459 54.1053 21.9108V17.9629C54.1053 17.8968 54.1718 17.8636 54.2401 17.8636H55.1716C55.2057 17.8629 55.2394 17.8718 55.2687 17.8894C55.298 17.907 55.3218 17.9324 55.3373 17.9629L55.4375 18.2615C55.5722 18.129 55.7366 18.0293 55.9693 17.8968C56.0012 17.8819 56.0348 17.8707 56.0694 17.8636C56.1036 17.8562 56.1369 17.845 56.1687 17.8304C56.3252 17.7589 56.4962 17.7248 56.6681 17.7306H56.8711C56.9371 17.7289 56.9699 17.7953 56.9699 17.8618V17.8636ZM50.5508 20.5625C50.5122 20.4867 50.4901 20.4036 50.4862 20.3186H53.6117V19.9867C53.6117 19.622 53.578 19.3233 53.4451 19.0246C53.3539 18.7635 53.2064 18.5257 53.013 18.328C52.8136 18.129 52.6142 17.9629 52.3478 17.8636C51.7695 17.6417 51.1296 17.6417 50.5513 17.8636C50.2741 17.9575 50.0233 18.1161 49.8196 18.3262C49.5964 18.5118 49.4245 18.7517 49.3206 19.0228C49.1847 19.3133 49.1165 19.6309 49.1212 19.9516C49.1212 20.3168 49.1877 20.615 49.3206 20.8805C49.4539 21.1799 49.6202 21.4122 49.8196 21.5775C50.0423 21.7714 50.3021 21.9181 50.5832 22.0087C50.8825 22.1146 51.1972 22.1705 51.5147 22.1744C51.903 22.1713 52.287 22.0924 52.6452 21.9422C52.8398 21.8482 53.0191 21.7252 53.1769 21.5775C53.2434 21.5111 53.2434 21.4446 53.1769 21.3781L52.5787 20.7812C52.5122 20.7147 52.4457 20.7147 52.3793 20.7812C52.3456 20.8032 52.3164 20.8261 52.2868 20.8477C52.2221 20.8982 52.1527 20.9426 52.0797 20.9802C51.945 21.0799 51.7469 21.1127 51.5147 21.1127C51.4129 21.1101 51.3119 21.0935 51.2147 21.0633L51.1491 21.0466C51.029 21.0118 50.9163 20.9555 50.8163 20.8805C50.7952 20.8598 50.7714 20.8387 50.7449 20.8167C50.6837 20.768 50.6293 20.7114 50.5832 20.6483C50.5737 20.6195 50.5612 20.5903 50.5486 20.5607L50.5508 20.5625ZM52.1152 18.8917C51.949 18.7255 51.7491 18.659 51.4837 18.659C51.3676 18.6601 51.2522 18.6776 51.141 18.7111L51.0849 18.7255C50.9782 18.7679 50.8774 18.8238 50.7848 18.8917C50.6912 18.9559 50.6212 19.0489 50.5854 19.1567C50.5231 19.244 50.4885 19.3481 50.4862 19.4553H52.3151C52.3148 19.2501 52.2442 19.0512 52.1152 18.8917ZM47.3601 22.0433H48.5239C48.559 22.0414 48.5921 22.0265 48.617 22.0017C48.6418 21.9768 48.6567 21.9437 48.6586 21.9085V19.454C48.6548 19.2429 48.6326 19.0325 48.5921 18.8252C48.5262 18.6212 48.4251 18.4303 48.2935 18.2611C48.1933 18.0953 48.0271 17.9624 47.8277 17.8631C47.6283 17.7639 47.3956 17.7284 47.096 17.7284H47.0296C46.7304 17.7284 46.4309 17.7949 46.231 17.8946C45.9988 17.9938 45.8326 18.0936 45.7325 18.226L45.6332 17.9606C45.5995 17.8946 45.533 17.8281 45.4666 17.8281H44.5342C44.4994 17.83 44.4665 17.8445 44.4417 17.8689C44.4169 17.8933 44.4019 17.9259 44.3994 17.9606V21.9085C44.4014 21.9437 44.4162 21.9768 44.441 22.0017C44.4659 22.0265 44.499 22.0414 44.5342 22.0433H45.6979C45.733 22.0414 45.7661 22.0265 45.791 22.0017C45.8159 21.9768 45.8307 21.9437 45.8326 21.9085V19.7527C45.8273 19.641 45.8383 19.5292 45.8654 19.4208C45.9082 19.3148 45.9642 19.2146 46.032 19.1225C46.1021 19.0478 46.1801 18.9809 46.2647 18.9231C46.371 18.8822 46.4836 18.8599 46.5975 18.8571C46.7008 18.8557 46.8031 18.8783 46.8962 18.9231C46.9787 18.9715 47.0475 19.0401 47.096 19.1225C47.1633 19.2072 47.1988 19.3127 47.1962 19.4208C47.229 19.5205 47.229 19.6202 47.229 19.7527V21.9085C47.2312 21.9428 47.2456 21.9752 47.2697 21.9997C47.2938 22.0242 47.3259 22.0392 47.3601 22.0419V22.0433Z" fill="white"/>
</g>
<defs>
<clipPath id="clip0_2111_439">
<rect width="86.2348" height="22.4673" fill="white" transform="translate(0.728516 0.970703)"/>
</clipPath>
</defs>
</svg>
