<svg width="44" height="34" viewBox="0 0 44 34" fill="none" xmlns="http://www.w3.org/2000/svg">
<g id="gmail">
<path id="Vector" d="M34.1021 3.04688L22.1279 12.3917L9.87988 3.04688V3.0494L9.89468 3.06203V16.1473L21.9897 25.6942L34.1021 16.5161V3.04688Z" fill="#EA4335"/>
<path id="Vector_2" d="M37.2476 0.772771L34.103 3.04584V16.515L43.9981 8.91794V4.34149C43.9981 4.34149 42.797 -2.19485 37.2476 0.772771Z" fill="#FBBC05"/>
<path id="Vector_3" d="M34.103 16.5151V33.9849H41.6871C41.6871 33.9849 43.8452 33.7626 44.0006 31.3027V8.91797L34.103 16.5151Z" fill="#34A853"/>
<path id="Vector_4" d="M9.89524 33.9991L9.89524 16.1454L9.87988 16.1328L9.89524 33.9991Z" fill="#C5221F"/>
<path id="Vector_5" d="M9.88027 3.04906L6.75292 0.788623C1.20359 -2.179 0 4.35482 0 4.35482L0 8.93126L9.88027 16.1344L9.88027 3.04906Z" fill="#C5221F"/>
<path id="Vector_6" d="M9.87988 3.04883V16.1341L9.89524 16.1468V3.06146L9.87988 3.04883Z" fill="#C5221F"/>
<path id="Vector_7" d="M0 8.93359L0 31.3183C0.152915 33.7808 2.31345 34.0005 2.31345 34.0005H9.89753L9.88027 16.1342L0 8.93359Z" fill="#4285F4"/>
</g>
</svg>
