<svg width="27" height="32" viewBox="0 0 27 32" fill="none" xmlns="http://www.w3.org/2000/svg">
<g id="Group 47444">
<g id="vuesax/bold/frame">
<g id="frame">
<path id="Vector" d="M11.2641 0C7.07206 0 3.66406 3.408 3.66406 7.6C3.66406 11.712 6.88006 15.04 11.0721 15.184C11.2001 15.168 11.3281 15.168 11.4241 15.184C11.4561 15.184 11.4721 15.184 11.5041 15.184C11.5201 15.184 11.5201 15.184 11.5361 15.184C15.6321 15.04 18.8481 11.712 18.8641 7.6C18.8641 3.408 15.4561 0 11.2641 0Z" fill="#43CEEF"/>
<path id="Vector_2" d="M19.392 19.439C14.928 16.463 7.648 16.463 3.152 19.439C1.12 20.799 0 22.639 0 24.607C0 26.575 1.12 28.399 3.136 29.743C5.376 31.247 8.32 31.999 11.264 31.999C14.208 31.999 17.152 31.247 19.392 29.743C21.408 28.383 22.528 26.559 22.528 24.575C22.512 22.607 21.408 20.783 19.392 19.439Z" fill="#43CEEF"/>
</g>
</g>
<path id="Vector_3" opacity="0.75" d="M24.572 20.3577C24.7871 20.3577 24.9607 20.1819 25.0219 19.8522L26.3287 13.0173C26.4221 12.536 26.1503 12.1992 25.7097 12.1992C25.6522 12.1992 25.5913 12.2052 25.5286 12.2168L18.6944 13.5258C18.1504 13.6274 18.025 14.034 18.4178 14.426L19.1298 15.138L19.8422 15.8504L20.0076 16.0158L17.369 18.6537L14.3361 15.6212C14.2697 15.5544 14.1907 15.5015 14.1038 15.4654C14.0168 15.4293 13.9236 15.4108 13.8294 15.411H13.8275C13.7331 15.4108 13.6396 15.4292 13.5523 15.4653C13.465 15.5014 13.3858 15.5544 13.319 15.6212L8.27441 20.6661C8.13995 20.801 8.06445 20.9837 8.06445 21.1741C8.06445 21.3646 8.13995 21.5472 8.27441 21.6821L9.78208 23.1894C9.92246 23.3294 10.1058 23.3992 10.2902 23.3992C10.4739 23.3992 10.658 23.329 10.798 23.189L13.8279 20.1591L16.8575 23.189C16.9975 23.3294 17.1815 23.3992 17.3656 23.3992H17.3731C17.5564 23.3992 17.7401 23.329 17.8809 23.189L22.5312 18.5387L22.6951 18.703L23.4075 19.4157L24.1199 20.1274C24.276 20.2831 24.4324 20.3577 24.572 20.3577Z" fill="#3B5AFB"/>
</g>
</svg>
