<svg width="103" height="16" viewBox="0 0 103 16" fill="none" xmlns="http://www.w3.org/2000/svg">
<g id="Layer_1" style="mix-blend-mode:luminosity" opacity="0.7" clip-path="url(#clip0_2111_520)">
<path id="Vector" d="M0.923828 0.996094H16.9298C14.2267 4.72295 11.6018 8.34283 8.91746 12.0425C7.9989 10.7963 7.09054 9.5704 6.18726 8.34283C4.43165 5.95051 2.67774 3.5582 0.923828 1.16588C0.923828 1.10985 0.923828 1.05212 0.923828 0.996094ZM12.0331 3.57008H5.74072C6.83925 5.07101 7.84779 6.44969 8.89878 7.8861C9.98033 6.39536 10.9702 5.03196 12.0331 3.57008Z" fill="white"/>
<path id="Vector_2" d="M66.7015 8.48268C66.9104 11.364 64.4314 13.5543 61.3787 13.522C59.0084 13.4965 56.5278 11.4336 56.6891 8.1448C56.8148 5.5776 58.7164 3.333 61.7369 3.35168C64.5486 3.37035 66.9817 5.52327 66.6998 8.48268H66.7015ZM61.6215 11.3334C63.3669 11.5592 64.3313 9.94286 64.3364 8.49966C64.3432 6.48088 63.1614 5.39083 61.6996 5.38404C60.1596 5.37555 59.1188 6.58954 59.0814 8.48098C59.0543 9.9089 60.129 11.6424 61.6215 11.3334Z" fill="white"/>
<path id="Vector_3" d="M100.233 8.27869V3.58575H102.462V13.6814C100.433 11.8697 98.5369 10.1769 96.6403 8.48414C96.5164 8.42981 96.3907 8.37547 96.2668 8.31944C96.3126 8.42132 96.3602 8.52319 96.406 8.62506V13.2365H94.1309V3.2207C96.1836 5.01027 98.1396 6.71664 100.097 8.42301C100.143 8.37547 100.187 8.32623 100.233 8.27869Z" fill="white"/>
<path id="Vector_4" d="M89.19 9.88578C88.5601 9.80937 87.74 9.94011 87.3665 9.59374C87.0422 9.29322 87.2256 8.44937 87.178 7.77361C88.4837 7.77361 89.6909 7.74984 90.8947 7.79908C91.0883 7.80757 91.4193 8.13526 91.4278 8.32712C91.4771 9.53771 91.4737 10.7517 91.4346 11.964C91.4278 12.1966 91.2479 12.5277 91.0492 12.6363C88.9778 13.7773 84.8893 13.9658 83.2712 11.2271C81.5462 8.30675 82.6005 4.79892 85.9199 3.60701C87.5991 3.00426 89.3242 3.39647 91.0254 4.15373C90.8217 4.58159 90.6027 4.95852 90.4583 5.36432C90.2733 5.88896 90.0458 5.95348 89.4821 5.79728C88.3156 5.47468 87.0982 5.25905 85.981 6.04008C85.0149 6.71583 84.6091 8.22016 85.037 9.55299C85.3664 10.5802 86.5108 11.4631 87.5584 11.5005C87.6144 11.5022 87.6721 11.5005 87.7282 11.5005C89.224 11.5582 89.4311 11.1847 89.1866 9.88578H89.19Z" fill="white"/>
<path id="Vector_5" d="M28.9866 13.1521C28.2192 13.1929 27.5027 13.2302 26.7284 13.2727V9.52376H22.8556V13.2421H20.7061V3.5625H22.7452V7.20616H26.6385V3.59816H28.9849V13.1521H28.9866Z" fill="white"/>
<path id="Vector_6" d="M32.002 3.5332H38.0243V5.52821H34.2075V7.29911H37.7527V9.29921C36.8121 9.29921 35.8612 9.35015 34.9189 9.28393C34.0309 9.22111 34.1515 9.77801 34.1481 10.3179C34.1447 10.8664 34.0479 11.4012 34.9257 11.3469C35.9869 11.2806 37.0565 11.3316 38.1568 11.3316V13.2841H32.002V3.5332Z" fill="white"/>
<path id="Vector_7" d="M74.5011 5.86268C73.6267 5.69968 72.8321 5.49084 72.0256 5.43481C71.7353 5.41444 71.1648 5.7642 71.1665 5.93908C71.1699 6.27187 71.4161 6.72011 71.7013 6.90857C72.3941 7.3704 73.1921 7.67092 73.9035 8.11067C75.0462 8.81529 75.525 10.0853 75.1582 11.2518C74.7932 12.4148 73.5181 13.3351 72.338 13.3758C70.9322 13.425 69.579 13.3402 68.4023 12.4505C68.6095 11.7798 68.8064 11.138 68.9525 10.6626C69.927 10.8884 70.8796 11.1635 71.8507 11.301C72.1394 11.3417 72.6487 11.0735 72.7625 10.8171C72.9578 10.3773 72.8117 9.86289 72.3194 9.59462C71.6249 9.21599 70.8863 8.91377 70.2157 8.50119C69.1392 7.83731 68.545 6.61654 68.803 5.75571C69.2581 4.23101 70.3125 3.40244 71.7726 3.36509C72.9153 3.33623 74.0088 3.46357 75.0309 4.09178C74.8339 4.75056 74.6489 5.3652 74.4994 5.86437L74.5011 5.86268Z" fill="white"/>
<path id="Vector_8" d="M49.0703 13.2417V3.57227H51.3234V11.1533H55.2506V13.24H49.0703V13.2417Z" fill="white"/>
<path id="Vector_9" d="M46.8412 13.3048H40.958V3.57422H43.1805V11.3081H47.0245V13.1842C46.9634 13.2233 46.9023 13.264 46.8412 13.3031V13.3048Z" fill="white"/>
<path id="Vector_10" d="M3.35352 13.3203H14.4203V15.6889H3.35352V13.3203Z" fill="white"/>
<path id="Vector_11" d="M77.7686 13.1817V3.59375H80.0081V13.2038H77.9027C77.8636 13.163 77.8195 13.1562 77.7686 13.1817Z" fill="white"/>
<path id="Vector_12" d="M96.4058 8.62398C96.36 8.52211 96.3124 8.42023 96.2666 8.31836C96.3905 8.37269 96.5162 8.42702 96.6401 8.48305C96.562 8.53059 96.4839 8.57644 96.4058 8.62398Z" fill="white"/>
<path id="Vector_13" d="M77.7686 13.1817C77.8178 13.1546 77.8636 13.1631 77.9027 13.2038C77.8585 13.2395 77.8144 13.2768 77.7719 13.3125C77.7719 13.27 77.7703 13.2259 77.7686 13.1834V13.1817Z" fill="white"/>
<path id="Vector_14" d="M12.0326 3.57031C10.9714 5.03219 9.98154 6.39729 8.89829 7.88633C7.84731 6.44992 6.83876 5.07124 5.74023 3.57031H12.0326Z" fill="#FEFEFE"/>
<path id="Vector_15" d="M61.6216 11.3303C60.1292 11.6393 59.0544 9.90576 59.0816 8.47784C59.1172 6.5864 60.158 5.37241 61.6997 5.3809C63.1616 5.3877 64.3433 6.47774 64.3365 8.49652C64.3314 9.94142 63.3687 11.5578 61.6216 11.3303Z" fill="#FEFEFE"/>
</g>
<defs>
<clipPath id="clip0_2111_520">
<rect width="101.538" height="14.6935" fill="white" transform="translate(0.923828 0.996094)"/>
</clipPath>
</defs>
</svg>
