<svg width="87" height="27" viewBox="0 0 87 27" fill="none" xmlns="http://www.w3.org/2000/svg">
<g id="Layer_1" clip-path="url(#clip0_2111_419)">
<path id="Vector" d="M35.1419 12.232C35.4813 11.4542 35.8216 10.6775 36.0779 10.0919C37.4442 9.92472 38.6144 9.85265 39.7535 9.62343C40.9007 9.39219 41.5703 8.59841 41.6514 7.12594C41.7075 6.11193 41.8776 5.10393 41.9928 4.09292C42.0458 3.62245 42.0899 3.15098 42.1449 2.60644C41.3892 2.69053 40.6664 2.72356 39.9647 2.8607C39.0899 3.03187 38.226 3.2701 37.3672 3.51234C35.7716 3.96379 34.8857 5.35318 35.184 7.28109C35.7475 7.02784 36.2921 6.77259 36.8456 6.53635C37.3812 6.30813 37.9257 6.10092 38.4863 5.8767C36.5423 7.9888 34.6344 10.0609 32.7506 12.1089C32.7576 12.1479 32.7335 12.0769 32.7325 12.0068C32.7295 10.205 32.7035 8.40321 32.7355 6.60242C32.7826 3.93376 34.215 2.16801 36.7315 1.5614C38.6474 1.09994 40.6164 0.857702 42.5633 0.527374C43.202 0.419266 43.8466 0.339186 44.4892 0.246094C44.274 1.83267 44.0488 3.40524 43.8526 4.98181C43.7815 5.55337 43.8236 6.14096 43.7405 6.70953C43.6024 7.65947 43.5223 8.64245 43.207 9.53634C42.6034 11.247 41.1319 11.8767 39.4723 12.1339C38.8707 12.227 38.254 12.223 37.6444 12.2631C36.8116 12.252 35.9788 12.241 35.1449 12.23L35.1419 12.232Z" fill="white"/>
<path id="Vector_2" d="M51.5112 22.1172C51.2489 22.2664 51.0257 22.4525 50.7694 22.5306C48.7184 23.1603 46.5352 22.7228 45.6483 20.4105C45.299 19.4986 45.1628 18.5467 45.314 17.5387C45.4211 16.8209 45.5362 16.1313 45.8726 15.4836C46.6353 14.0141 47.8555 13.2864 49.4942 13.2484C50.5272 13.2244 51.5652 13.1913 52.5392 13.6408C52.6413 13.6878 52.7374 13.7619 52.8435 13.7799C54.0497 13.9791 54.0897 14.8099 54.0517 15.7999C53.9866 17.4646 54.0747 19.1342 54.0167 20.7989C53.9866 21.6548 53.8355 22.5166 53.6403 23.3524C53.332 24.6718 52.4711 25.5366 51.1658 25.878C50.0597 26.1672 48.9406 26.1242 47.8385 25.7678C47.5292 25.6677 47.4121 25.4906 47.4441 25.1853C47.4461 25.1693 47.4431 25.1522 47.4441 25.1352C47.4872 24.7138 47.3931 24.1723 47.6213 23.913C47.7825 23.7288 48.38 23.959 48.7804 23.946C49.4031 23.925 50.0357 23.91 50.6433 23.7879C51.2289 23.6698 51.5012 23.0471 51.5102 22.1162L51.5112 22.1172ZM51.6943 17.3325C51.6793 17.3315 51.6643 17.3305 51.6493 17.3294C51.6493 16.863 51.6243 16.3935 51.6573 15.9291C51.6823 15.5907 51.5372 15.4296 51.2379 15.3975C50.6673 15.3355 50.0877 15.2244 49.5232 15.2684C48.8936 15.3184 48.364 15.6157 48.0377 16.2354C47.6784 16.919 47.6303 17.6378 47.6453 18.3765C47.6703 19.6528 48.338 20.7949 49.9636 20.6668C50.6353 20.6137 51.4831 20.0722 51.5482 19.2544C51.5993 18.6137 51.6453 17.9731 51.6933 17.3325H51.6943Z" fill="white"/>
<path id="Vector_3" d="M29.1999 13.6367C29.2039 12.953 29.1899 12.2693 29.2199 11.5867C29.2309 11.3544 29.284 11.0471 29.4381 10.912C29.9917 10.4275 30.5933 9.99809 31.1859 9.56165C31.2499 9.5146 31.3781 9.55565 31.5452 9.55565V10.1002C31.5452 13.885 31.5402 17.6697 31.5543 21.4535C31.5553 21.8018 31.4341 21.948 31.1388 22.1091C29.7475 22.8669 28.26 23.2062 26.7004 23.0411C24.9237 22.8519 23.5163 21.9119 23.0208 19.8729C22.6544 18.3664 22.6894 16.8629 23.3371 15.4515C24.1249 13.7338 25.6484 12.8589 27.5433 13.2153C28.0478 13.3104 28.5342 13.4996 29.0287 13.6457L29.1619 13.7348C29.1749 13.7018 29.1869 13.6697 29.1999 13.6367ZM29.2109 18.6967C29.2109 18.1462 29.272 17.5866 29.1919 17.0491C29.1228 16.5836 29.0087 16.0371 28.7124 15.7088C27.7955 14.6918 25.7435 15.2543 25.4452 16.5946C25.283 17.3224 25.1919 18.0971 25.25 18.8359C25.318 19.7057 25.6013 20.5125 26.5823 20.8819C27.309 21.1562 27.9797 21.0321 28.6764 20.8629C29.1128 20.7568 29.271 20.5025 29.2219 20.0461C29.1739 19.6006 29.2119 19.1472 29.2109 18.6967Z" fill="white"/>
<path id="Vector_4" d="M6.53202 18.8989C6.36185 19.4995 6.8133 20.4104 7.43892 20.7528C8.6231 21.4004 9.79827 21.2513 10.9564 20.6777C11.6101 20.3544 11.7512 20.3624 11.9744 20.7928C12.4689 21.7467 12.4549 21.977 11.7702 22.3283C9.84432 23.3173 7.89037 23.4424 6.01951 22.2472C4.86837 21.5115 4.34484 20.3444 4.19269 18.986C4.06256 17.8288 4.17468 16.7137 4.6021 15.6397C5.15765 14.2443 6.16666 13.4405 7.68617 13.2273C8.55303 13.1061 9.35783 13.2093 10.1907 13.4265C11.1776 13.6847 11.8153 14.3274 12.2647 15.1672C12.7872 16.1442 12.8723 17.2232 12.8123 18.3153C12.7862 18.7888 12.4889 18.9019 12.0685 18.8999C10.3678 18.8919 8.66715 18.8969 6.96745 18.8979C6.81931 18.8979 6.67116 18.8979 6.53302 18.8979L6.53202 18.8989ZM10.577 17.1322C10.6781 15.987 10.0565 15.1502 9.00348 15.0511C7.60609 14.92 6.66415 15.4325 6.4139 17.1322H10.577Z" fill="white"/>
<path id="Vector_5" d="M78.4975 18.8679C78.6186 20.4896 80.1251 21.4675 81.6546 21.0551C82.2162 20.904 82.7727 20.7258 83.3203 20.5296C83.6576 20.4085 83.8858 20.3845 84.064 20.7829C84.6536 22.0992 84.5275 22.0331 83.6566 22.4435C81.7947 23.3224 79.8848 23.4185 78.1031 22.2513C76.9229 21.4775 76.3463 20.2583 76.2933 18.8649C76.2602 17.9861 76.3273 17.0822 76.5095 16.2223C76.8478 14.6197 78.1421 13.4175 79.8598 13.2373C81.1051 13.1062 82.2722 13.1993 83.3433 13.938C84.3533 14.6347 84.6896 15.6698 84.8778 16.7889C84.9459 17.1923 84.9759 17.6057 84.9779 18.0141C84.9809 18.7138 84.8057 18.8679 84.088 18.8679C82.3873 18.8679 80.6866 18.8679 78.9859 18.8679H78.4995H78.4975ZM82.7747 17.1502C82.4774 15.4005 81.6166 14.7398 80.092 15.0491C79.2172 15.2273 78.4684 16.3104 78.6436 17.1502H82.7747Z" fill="white"/>
<path id="Vector_6" d="M68.9762 18.9421C69.1694 19.9882 69.6148 20.779 70.6629 21.0462C71.6038 21.2865 72.5267 21.1834 73.3966 20.7469C74.5107 20.1884 74.3325 20.3986 74.7319 21.1633C75.0422 21.7569 74.9962 21.9681 74.3585 22.3095C72.4356 23.3395 70.4767 23.4516 68.6018 22.2514C67.4116 21.4897 66.8401 20.2635 66.784 18.8711C66.749 17.9932 66.8371 17.0933 66.9952 16.2274C67.2915 14.6058 68.6959 13.4307 70.3435 13.2355C71.3716 13.1133 72.3566 13.1604 73.2985 13.6178C74.6919 14.2945 75.1834 15.5327 75.3716 16.9572C75.4126 17.2645 75.4616 17.5728 75.4666 17.8821C75.4787 18.6288 75.2654 18.9191 74.6098 18.9071C72.9091 18.8771 71.2074 18.8961 69.5067 18.8991C69.3315 18.8991 69.1564 18.9261 68.9752 18.9411L68.9762 18.9421ZM73.2665 17.1463C73.0422 15.1504 72.0372 14.9231 70.6388 15.0653C69.805 15.1504 68.9311 16.2194 69.1223 17.1463H73.2675H73.2665Z" fill="white"/>
<path id="Vector_7" d="M16.197 15.5696C16.197 17.6947 16.197 19.7607 16.197 21.8268C16.197 22.5976 15.9367 22.8538 15.1569 22.8558C14.9737 22.8558 14.7906 22.8568 14.6074 22.8558C14.1269 22.8518 13.8136 22.5495 13.8136 22.078C13.8106 19.4274 13.8096 16.7778 13.8116 14.1271C13.8116 13.5986 13.9647 13.4304 14.4963 13.4535C14.9487 13.4735 15.3972 13.6036 15.8476 13.6066C16.1619 13.6086 16.4752 13.4715 16.7916 13.4114C17.8786 13.2062 18.9677 13.0931 20.0528 13.4234C21.1859 13.7688 21.7295 14.6567 21.7935 15.7187C21.9177 17.7557 21.8976 19.8018 21.9147 21.8438C21.9217 22.6236 21.6564 22.8518 20.8706 22.8538C20.7034 22.8538 20.5373 22.8558 20.3701 22.8538C19.8316 22.8448 19.5203 22.5365 19.5183 21.995C19.5153 20.3453 19.5223 18.6947 19.5123 17.045C19.5103 16.7037 19.4802 16.3563 19.4122 16.022C19.3291 15.6086 19.0688 15.3523 18.6204 15.3383C18.216 15.3253 17.8086 15.2733 17.4092 15.3103C17.0118 15.3473 16.6224 15.4745 16.196 15.5686L16.197 15.5696Z" fill="white"/>
<path id="Vector_8" d="M38.6366 15.5251C38.6366 17.6162 38.6276 19.6332 38.6406 21.6502C38.6466 22.6612 38.4014 22.8784 37.4494 22.8574C37.3323 22.8544 37.2162 22.8584 37.0991 22.8574C36.5485 22.8494 36.2583 22.5991 36.2563 22.0546C36.2462 19.3689 36.2513 16.6833 36.2513 13.9986C36.2513 13.6272 36.4725 13.439 36.8098 13.458C37.3093 13.4861 37.8078 13.6412 38.3013 13.6182C38.7848 13.5962 39.2572 13.3579 39.7427 13.3229C40.7667 13.2488 41.8038 13.0426 42.8018 13.5371C43.6416 13.9535 44.1761 14.6392 44.2192 15.5231C44.3283 17.7293 44.3343 19.9415 44.3353 22.1507C44.3353 22.3569 44.025 22.5841 43.8238 22.7613C43.7297 22.8434 43.5505 22.8504 43.4094 22.8554C42.0971 22.8954 42.002 22.7943 41.993 21.477C41.982 19.8444 41.979 18.2118 41.9339 16.5802C41.9059 15.5581 41.5856 15.2518 40.5195 15.2668C39.8969 15.2759 39.2763 15.434 38.6376 15.5281L38.6366 15.5251Z" fill="white"/>
<path id="Vector_9" d="M57.5721 13.4459C58.1457 13.4459 58.6461 13.4429 59.1456 13.4459C59.7142 13.4499 59.8533 13.587 59.8574 14.1406C59.8594 14.3578 59.8574 14.574 59.8574 14.7912C59.8574 15.3678 59.6832 15.542 59.0836 15.547C58.5871 15.551 58.0916 15.547 57.5551 15.547C57.5551 17.0835 57.5451 18.58 57.5671 20.0755C57.5701 20.2827 57.6812 20.566 57.8393 20.6771C58.2628 20.9754 58.2918 21.3678 58.2578 21.8112C58.2438 21.9934 58.2558 22.1776 58.2558 22.3618C58.2558 23.0014 57.9975 23.2166 57.3899 23.0274C55.9164 22.569 55.2007 21.4629 55.1817 20.0334C55.1417 17.0485 55.1697 14.0635 55.1697 11.0775C55.1697 10.4929 55.3138 10.3428 55.8814 10.3418C56.1817 10.3418 56.482 10.3418 56.7823 10.3418C57.442 10.3418 57.5661 10.4649 57.5711 11.1536C57.5761 11.9003 57.5721 12.6471 57.5721 13.4459Z" fill="white"/>
<path id="Vector_10" d="M0.652448 15.2692C0.652448 13.7347 0.649445 12.2001 0.653449 10.6656C0.655451 9.92688 0.748544 9.8418 1.48928 9.8418C1.73953 9.8418 1.98978 9.8418 2.24003 9.8418C2.89668 9.8418 3.04082 9.98494 3.04583 10.6626C3.05083 11.4464 3.04683 12.2302 3.04683 13.015C3.04683 15.2832 3.04283 17.5515 3.04683 19.8207C3.04683 20.2151 3.1209 20.5785 3.45724 20.8698C3.60138 20.9939 3.66845 21.2542 3.69047 21.4614C3.72751 21.8077 3.67746 22.1631 3.70649 22.5104C3.74553 22.9769 3.51129 23.075 3.10989 23.0529C1.98678 22.9899 0.758554 21.7907 0.721517 20.5705C0.667463 18.8057 0.707503 17.037 0.707503 15.2702C0.688484 15.2702 0.670466 15.2702 0.651447 15.2702L0.652448 15.2692Z" fill="white"/>
<path id="Vector_11" d="M63.2069 15.5852C63.2069 17.6582 63.2069 19.6762 63.2069 21.6943C63.2069 22.6332 63.0828 22.7563 62.1458 22.7563C61.9286 22.7563 61.7124 22.7533 61.4952 22.7563C61.0658 22.7633 60.8506 22.5371 60.8496 22.1257C60.8436 19.44 60.8365 16.7543 60.8606 14.0687C60.8626 13.8935 61.1198 13.5652 61.246 13.5712C62.5583 13.6312 63.8405 13.421 65.1338 13.2669C65.6343 13.2078 66.1648 13.365 66.6774 13.449C67.1038 13.5191 67.1598 13.8144 67.0097 14.1547C66.8445 14.5291 66.6824 14.9175 66.4381 15.2388C66.331 15.38 65.9867 15.4731 65.8135 15.411C64.9156 15.0877 64.0778 15.3159 63.2069 15.5842V15.5852Z" fill="white"/>
<path id="Vector_12" d="M32.7217 18.0484C32.7217 16.7992 32.7217 15.5509 32.7217 14.3017C32.7217 13.7442 32.996 13.4599 33.5555 13.4469C33.8048 13.4409 34.056 13.4328 34.3043 13.4489C34.8058 13.4809 35.1101 13.7622 35.1111 14.2447C35.1201 16.8262 35.1211 19.4068 35.1111 21.9884C35.1091 22.5559 34.8778 22.7521 34.3203 22.7551C34.054 22.7561 33.7877 22.7551 33.5205 22.7551C32.9389 22.7551 32.7257 22.5409 32.7247 21.9453C32.7237 20.646 32.7247 19.3477 32.7247 18.0484C32.7247 18.0484 32.7227 18.0484 32.7217 18.0484Z" fill="white"/>
<path id="Vector_13" d="M85.9406 15.2507C85.3721 15.2507 84.9697 14.8623 84.9807 14.3238C84.9917 13.8223 85.4672 13.3388 85.9426 13.3458C86.4972 13.3548 86.8896 13.7502 86.8876 14.2997C86.8846 14.9844 86.6213 15.2497 85.9416 15.2507H85.9406ZM85.4742 13.8563C85.0628 14.1426 85.1188 14.4679 85.3981 14.8072C85.6353 15.0945 86.1859 15.1526 86.4682 14.9264C86.7014 14.7392 86.7905 14.1856 86.6283 13.9334C86.4221 13.613 85.7885 13.526 85.5613 13.7862C85.5322 13.8102 85.5032 13.8333 85.4752 13.8573L85.4742 13.8563Z" fill="white"/>
<path id="Vector_14" d="M35.1416 12.2324C35.9744 12.2434 36.8073 12.2544 37.6411 12.2655C36.8083 12.2544 35.9754 12.2434 35.1416 12.2324Z" fill="white"/>
<path id="Vector_15" d="M29.1995 13.6367C29.1865 13.6698 29.1745 13.7018 29.1615 13.7348C29.1174 13.7048 29.0724 13.6748 29.0283 13.6457C29.0854 13.6427 29.1424 13.6407 29.1995 13.6377V13.6367Z" fill="white"/>
<path id="Vector_16" d="M85.5596 13.7857C85.7868 13.5254 86.4205 13.6125 86.6267 13.9328C86.7888 14.1851 86.6997 14.7386 86.4665 14.9258C86.1842 15.1521 85.6327 15.094 85.3964 14.8067C85.1172 14.4684 85.0621 14.1421 85.4725 13.8558V14.7487C85.5085 14.8177 85.5456 14.8858 85.5816 14.9549C85.8008 13.9148 86.0171 14.7276 86.2883 14.7607C86.2643 14.6065 86.1812 14.4384 86.2333 14.3593C86.6126 13.7807 86.1842 13.8548 85.8399 13.8438C85.7458 13.8408 85.6517 13.8057 85.5576 13.7857H85.5596Z" fill="white"/>
<path id="Vector_17" d="M85.5597 13.7862C85.6538 13.8062 85.7469 13.8412 85.842 13.8442C86.1863 13.8562 86.6147 13.7812 86.2354 14.3597C86.1833 14.4398 86.2654 14.608 86.2904 14.7611C86.0191 14.7281 85.8029 13.9153 85.5837 14.9553C85.5477 14.8863 85.5106 14.8182 85.4746 14.7491V13.8562C85.5036 13.8322 85.5327 13.8092 85.5607 13.7852L85.5597 13.7862Z" fill="white"/>
</g>
<defs>
<clipPath id="clip0_2111_419">
<rect width="86.2348" height="25.8207" fill="white" transform="translate(0.651367 0.248047)"/>
</clipPath>
</defs>
</svg>
