<svg width="87" height="28" viewBox="0 0 87 28" fill="none" xmlns="http://www.w3.org/2000/svg">
<g id="Layer_1" style="mix-blend-mode:luminosity" opacity="0.7" clip-path="url(#clip0_2111_505)">
<path id="Vector" d="M21.7465 21.1145C22.4632 21.7133 23.1677 22.3022 23.8859 22.9025C22.6056 24.316 21.1278 25.4018 19.4209 26.1767C18.2892 26.6905 17.1031 27.0489 15.8787 27.2235C14.9238 27.359 13.9636 27.4547 12.9781 27.3491C11.8027 27.2235 10.6564 27.0275 9.54458 26.6347C7.91741 26.0596 6.44338 25.2211 5.13705 24.0863C3.15228 22.3627 1.82144 20.227 1.04806 17.7239C0.571774 16.1855 0.411737 14.6051 0.541145 13.0192C0.784647 10.0398 1.90644 7.40874 3.89121 5.1552C5.51761 3.30826 7.51157 2.01571 9.84781 1.28444C10.7138 1.01337 11.6327 0.884733 12.5378 0.771405C13.2775 0.678752 14.0371 0.64506 14.7799 0.694832C15.9744 0.774468 17.1444 1.01491 18.2884 1.40007C20.4478 2.12751 22.2817 3.34885 23.8032 5.0235C25.4978 6.88804 26.5958 9.05965 27.0315 11.5621C27.2475 12.8025 27.3562 14.0445 27.1717 15.2866C26.994 16.4865 26.5851 17.6052 25.6318 18.4421C24.9924 19.0034 24.2381 19.2905 23.3981 19.3587C22.5444 19.4284 21.7388 19.3097 21.078 18.6986C20.9149 18.5478 20.7571 18.3901 20.5971 18.2346C20.3314 18.5554 20.0611 18.887 19.7854 19.214C18.5641 20.662 16.9691 21.4813 15.1413 21.7983C13.1443 22.1444 11.2644 21.7401 9.56679 20.5976C7.68999 19.3342 6.51689 17.5768 6.13556 15.3662C5.77107 13.249 6.22515 11.268 7.48477 9.48999C8.70304 7.7694 10.3624 6.69508 12.4007 6.2992C13.7768 6.03119 15.1819 6.11849 16.5296 6.61621C19.349 7.65837 21.0757 9.63471 21.6607 12.592C21.8077 13.337 21.8759 14.0813 21.7449 14.8432C21.6416 15.4443 22.0727 15.9987 22.7128 16.1909C23.2626 16.3555 23.8813 16.089 24.1026 15.5109C24.2649 15.0875 24.3806 14.6257 24.4043 14.1747C24.5046 12.239 24.0168 10.4318 23.0574 8.75948C22.0819 7.05957 20.7326 5.73486 19.0021 4.78612C17.9255 4.19574 16.7868 3.78148 15.5885 3.61762C13.413 3.31898 11.2851 3.52726 9.2827 4.5273C7.00389 5.66594 5.32542 7.37888 4.26565 9.70286C3.65383 11.0452 3.36821 12.4434 3.34984 13.9174C3.32151 16.1243 3.94787 18.119 5.1761 19.9353C6.36528 21.6942 7.96335 22.9438 9.91672 23.767C10.8946 24.179 11.9038 24.4102 12.9567 24.4998C15.9499 24.7548 18.561 23.8589 20.833 21.9201C21.1324 21.6651 21.4233 21.4009 21.7465 21.116V21.1145ZM13.9376 9.02826C11.1557 8.83835 8.85083 11.4181 8.85083 14.0139C8.85083 16.7598 11.1786 19.1252 13.8664 19.1221C16.5839 19.119 19.1438 16.9459 18.9814 13.716C18.8589 11.2833 16.7761 8.92412 13.9368 9.02902L13.9376 9.02826Z" fill="white"/>
<path id="Vector_2" d="M67.3717 11.7672V10.8697H69.4331C69.4331 10.9838 69.4331 11.1041 69.4331 11.225C69.4331 13.8913 69.4553 16.5583 69.4208 19.2238C69.4108 19.9934 69.3044 20.7767 69.1268 21.5264C68.8679 22.6191 68.1244 23.3833 67.0968 23.773C66.4528 24.0173 65.73 24.1789 65.047 24.1659C63.4397 24.1368 62.0093 23.469 61.3163 21.6742C61.1172 21.1588 61.0667 20.5861 60.9388 19.9949H62.978C63.0025 20.2315 63.0101 20.4582 63.0522 20.678C63.2391 21.652 63.8823 22.1505 64.8126 22.3495C65.6871 22.5372 66.5401 22.2615 66.9888 21.5371C67.1994 21.1979 67.3212 20.7706 67.3656 20.3694C67.4284 19.8035 67.3817 19.2261 67.3817 18.6082C67.1114 18.8058 66.877 18.9819 66.6381 19.1519C65.3035 20.0983 63.4022 19.8678 62.2306 18.8448C61.3133 18.0446 60.8377 17.0316 60.7083 15.8225C60.5246 14.1034 60.9909 12.6202 62.3064 11.4885C63.2605 10.6676 64.4022 10.4639 65.6389 10.7641C66.2936 10.9233 66.8418 11.2472 67.3732 11.7664L67.3717 11.7672ZM67.5363 15.0636C67.4184 14.6256 67.3418 14.085 67.1313 13.6042C66.5799 12.3484 64.8371 12.0995 63.8501 12.7282C62.4289 13.6333 62.3125 16.2375 63.5683 17.37C64.8134 18.4918 66.779 17.9221 67.2706 16.422C67.4008 16.0239 67.436 15.5951 67.5363 15.0636Z" fill="white"/>
<path id="Vector_3" d="M37.8782 19.4322H35.934C35.934 19.2821 35.934 19.1458 35.934 19.0088C35.9302 17.4773 35.9386 15.9458 35.9141 14.4152C35.908 14.0185 35.8345 13.6134 35.7311 13.229C35.6017 12.7482 35.2617 12.4457 34.7525 12.4005C34.215 12.3523 33.7364 12.487 33.4286 12.9748C33.1315 13.4457 33.0159 13.9726 33.0143 14.5231C33.0105 16.1434 33.0128 17.7637 33.0128 19.4154H31.0518V10.8698H32.9791V11.5215C33.0051 11.5521 33.0312 11.582 33.0572 11.6126C33.6491 10.9349 34.3398 10.5521 35.2533 10.6263C36.1599 10.6998 36.8376 11.111 37.3736 11.8561C37.8131 11.3323 38.3047 10.9158 38.9548 10.7557C40.4005 10.3997 41.8922 10.742 42.445 12.1126C42.6303 12.5728 42.7728 13.0843 42.7827 13.5751C42.821 15.5132 42.798 17.4528 42.798 19.4192H40.8715C40.8653 19.2852 40.8546 19.1497 40.8538 19.0149C40.8523 17.6618 40.8715 16.3088 40.8439 14.9573C40.8324 14.3945 40.729 13.8332 40.6555 13.2727C40.5912 12.7803 40.2864 12.484 39.8117 12.4143C39.2458 12.3308 38.7129 12.4204 38.353 12.9381C38.0321 13.399 37.9203 13.9343 37.9134 14.4764C37.8943 16.0837 37.9073 17.6909 37.9066 19.299C37.9066 19.335 37.8912 19.3702 37.8767 19.4337L37.8782 19.4322Z" fill="white"/>
<path id="Vector_4" d="M50.222 11.8129V10.8764H52.2535V19.4211H50.2274V18.6072C50.0152 18.7687 49.869 18.8767 49.7266 18.9893C49.0412 19.5299 48.2403 19.8208 47.3926 19.7313C45.6728 19.5498 44.4453 18.637 43.8419 16.9861C43.1857 15.1912 43.3886 13.5051 44.5939 11.9882C45.9033 10.3411 48.6836 10.0632 50.2212 11.8129H50.222ZM47.8031 17.9188C48.9555 17.977 49.9096 17.2503 50.1692 16.2717C50.3169 15.7135 50.3797 15.179 50.3162 14.6001C50.1898 13.4477 49.4195 12.5901 48.1859 12.4086C47.2525 12.2715 46.3038 12.7447 45.8428 13.7456C45.5488 14.3842 45.4025 15.045 45.5495 15.7625C45.744 16.712 46.5013 17.9157 47.8023 17.9195L47.8031 17.9188Z" fill="white"/>
<path id="Vector_5" d="M86.6711 19.439H84.7506V19.0324C84.7506 17.6173 84.7621 16.2015 84.7437 14.7864C84.7376 14.3232 84.6817 13.8561 84.6013 13.3989C84.4956 12.7994 84.1656 12.5314 83.5392 12.4739C83.2919 12.451 83.04 12.4089 82.7949 12.4318C81.6571 12.5383 81.337 13.5766 81.3186 14.4304C81.2842 16.0744 81.2987 17.7192 81.2934 19.364C81.2734 19.3862 81.2528 19.4084 81.2329 19.4306H79.3369V10.8866H81.3071V11.5941C81.6035 11.3767 81.8485 11.1646 82.1226 11.0015C82.8937 10.542 83.7345 10.5451 84.5699 10.7388C85.8762 11.0413 86.6221 11.9242 86.6611 13.2956C86.7185 15.3179 86.7116 17.3417 86.7316 19.3647C86.7109 19.3892 86.6902 19.4137 86.6695 19.4382L86.6711 19.439Z" fill="white"/>
<path id="Vector_6" d="M77.991 10.873C77.991 11.5644 77.9955 12.226 77.9902 12.8884C77.9795 14.1005 78.0055 15.3142 77.9389 16.5233C77.8508 18.1076 76.8998 19.1497 75.4702 19.5625C74.0926 19.9606 72.8223 19.7194 71.7158 18.8189C71.1346 18.3457 70.7096 17.6811 70.6882 16.9352C70.6308 14.9244 70.6683 12.9106 70.6683 10.8691H72.5849C72.591 10.948 72.6018 11.0215 72.6018 11.0943C72.5972 12.7904 72.5964 14.4872 72.5849 16.1833C72.5788 17.1137 73.245 17.884 74.1646 17.9866C74.8652 18.0647 75.6057 17.6037 75.7895 16.9084C75.9074 16.4636 75.9771 15.9942 75.984 15.5347C76.0069 13.9918 75.9932 12.4473 75.9932 10.8722H77.991V10.873Z" fill="white"/>
<path id="Vector_7" d="M59.6203 19.4324H57.6738V3.87891H59.6203V19.4324Z" fill="white"/>
<path id="Vector_8" d="M55.7966 19.4438C55.1916 19.4438 54.6196 19.4438 54.0469 19.4438C53.9856 19.4438 53.9244 19.4353 53.8447 19.4292V10.8691H55.7973V19.4438H55.7966Z" fill="white"/>
<path id="Vector_9" d="M54.7825 8.64492C54.2243 8.74063 53.4807 7.91135 53.5075 7.33782C53.5397 6.65402 54.1117 6.02842 54.8001 6.05139C55.6033 6.07896 56.0896 6.48939 56.1217 7.34394C56.1493 8.07215 55.5367 8.64415 54.7817 8.64492H54.7825Z" fill="white"/>
<path id="Vector_10" d="M16.2242 14.0292C16.2418 15.4794 15.0955 16.3861 13.8673 16.3531C12.4706 16.3156 11.5709 15.2168 11.5831 13.9947C11.5946 12.8829 12.4078 11.7381 13.9109 11.719C15.2395 11.7021 16.3054 12.7343 16.2242 14.0284V14.0292Z" fill="white"/>
</g>
<defs>
<clipPath id="clip0_2111_505">
<rect width="86.2348" height="26.7232" fill="white" transform="translate(0.498047 0.671875)"/>
</clipPath>
</defs>
</svg>
