<svg width="56" height="56" viewBox="0 0 56 56" fill="none" xmlns="http://www.w3.org/2000/svg">
<g id="Payment Processing &#38; Collections">
<g id="Group 47454">
<path id="Ellipse 48" d="M42.833 30.0684C45.2249 30.0684 47.5188 29.1182 49.2101 27.4269C50.9014 25.7356 51.8516 23.4417 51.8516 21.0498C51.8516 18.6579 50.9014 16.364 49.2101 14.6727C47.5188 12.9814 45.2249 12.0313 42.833 12.0313L42.833 15.2797C44.3633 15.2797 45.831 15.8876 46.9131 16.9697C47.9952 18.0518 48.6031 19.5195 48.6031 21.0498C48.6031 22.5801 47.9952 24.0478 46.9131 25.1299C45.831 26.212 44.3633 26.8199 42.833 26.8199V30.0684Z" fill="#43CEEF"/>
<path id="Ellipse 49" d="M13.0185 44.9239C10.6267 44.9239 8.33276 43.9737 6.64145 42.2824C4.95014 40.5911 3.99997 38.2972 3.99997 35.9053C3.99997 33.5134 4.95014 31.2195 6.64145 29.5282C8.33276 27.8369 10.6267 26.8867 13.0185 26.8867L13.0185 30.1352C11.4882 30.1352 10.0206 30.7431 8.93846 31.8252C7.85636 32.9073 7.24844 34.375 7.24844 35.9053C7.24844 37.4356 7.85636 38.9033 8.93846 39.9854C10.0206 41.0675 11.4882 41.6754 13.0185 41.6754V44.9239Z" fill="#43CEEF"/>
<g id="Group 47453">
<rect id="Rectangle 1029" x="13.0195" y="26.8867" width="29.8143" height="3.18302" fill="#43CEEF"/>
<rect id="Rectangle 1029_2" x="4" y="12.2441" width="38.8329" height="3.18302" fill="#43CEEF"/>
<rect id="Rectangle 1029_3" x="13.0195" y="41.5273" width="36.3926" height="3.18302" fill="#43CEEF"/>
</g>
<g id="Group 47450" opacity="0.75">
<rect id="Rectangle 1028" x="13.0176" y="22.6426" width="29.8143" height="10.7162" rx="5.35809" fill="#3B5AFB"/>
</g>
<g id="Group 47452" opacity="0.75">
<rect id="Rectangle 1028_2" x="13.0176" y="8" width="29.8143" height="10.7162" rx="5.35809" fill="#3B5AFB"/>
</g>
<g id="Group 47451" opacity="0.75">
<rect id="Rectangle 1028_3" x="13.0176" y="37.2832" width="29.8143" height="10.7162" rx="5.35809" fill="#3B5AFB"/>
</g>
<path id="Vector 1" d="M45.5918 38.875L50.3663 43.1721L45.5918 47.257" stroke="#43CEEF" stroke-width="1.90981"/>
</g>
</g>
</svg>
