<svg width="24" height="24" viewBox="0 0 24 24" fill="none" xmlns="http://www.w3.org/2000/svg">
<g id="svgexport-17 (1) 1" clip-path="url(#clip0_1920_1292)">
<g id="Group">
<path id="Vector" d="M13.4062 0H12.7031V11.2969H24V10.5938C24 4.77787 19.2221 0 13.4062 0ZM3.66019 21.3341C5.51616 22.9594 7.93847 24 10.5938 24C16.4096 24 21.1406 19.2221 21.1406 13.4062V12.7031H12.2911L3.66019 21.3341ZM11.2969 2.85938H10.5938C8.29762 2.85938 6.17709 3.60506 4.44356 4.85555L11.2969 11.7089V2.85938ZM3.35512 5.75564C1.323 7.6793 0 10.3936 0 13.4062C0 16.0615 1.04063 18.4838 2.66592 20.3398L10.3026 12.7031L3.35512 5.75564Z" fill="#3B5AFB"/>
</g>
</g>
<defs>
<clipPath id="clip0_1920_1292">
<rect width="24" height="24" fill="white"/>
</clipPath>
</defs>
</svg>
