<svg width="24" height="24" viewBox="0 0 24 24" fill="none" xmlns="http://www.w3.org/2000/svg">
<g id="svgexport-17 1" clip-path="url(#clip0_1920_1264)">
<g id="Group">
<path id="Vector" d="M6.97296 17.5913L9.19096 15.3733C8.95895 15.2361 8.76536 15.0426 8.62816 14.8105L6.41016 17.0285C6.64217 17.1657 6.83576 17.3593 6.97296 17.5913Z" fill="#3B5AFB"/>
<path id="Vector_2" d="M14.0012 9.20117H10.0012C9.55934 9.20117 9.20117 9.55934 9.20117 10.0012V14.0012C9.20117 14.443 9.55934 14.8012 10.0012 14.8012H14.0012C14.443 14.8012 14.8012 14.443 14.8012 14.0012V10.0012C14.8012 9.55934 14.443 9.20117 14.0012 9.20117Z" fill="#3B5AFB"/>
<path id="Vector_3" d="M6.97296 6.41016C6.83576 6.64217 6.64217 6.83576 6.41016 6.97296L8.62816 9.19096C8.76536 8.95895 8.95895 8.76536 9.19096 8.62816L6.97296 6.41016Z" fill="#3B5AFB"/>
<path id="Vector_4" d="M5.60078 17.6016H1.60078C1.15895 17.6016 0.800781 17.9597 0.800781 18.4016V22.4016C0.800781 22.8434 1.15895 23.2016 1.60078 23.2016H5.60078C6.04261 23.2016 6.40078 22.8434 6.40078 22.4016V18.4016C6.40078 17.9597 6.04261 17.6016 5.60078 17.6016Z" fill="#3B5AFB"/>
<path id="Vector_5" d="M17.592 17.0285L15.374 14.8105C15.2368 15.0426 15.0432 15.2361 14.8112 15.3733L17.0292 17.5913C17.1664 17.3593 17.36 17.1657 17.592 17.0285ZM11.6016 15.6009H12.4016V18.4009H11.6016V15.6009Z" fill="#3B5AFB"/>
<path id="Vector_6" d="M22.4012 10H20.0012C19.5593 10 19.2012 10.3582 19.2012 10.8V13.2C19.2012 13.6418 19.5593 14 20.0012 14H22.4012C22.843 14 23.2012 13.6418 23.2012 13.2V10.8C23.2012 10.3582 22.843 10 22.4012 10Z" fill="#3B5AFB"/>
<path id="Vector_7" d="M15.3733 9.19096L17.5913 6.97296C17.3593 6.83576 17.1657 6.64217 17.0285 6.41016L14.8105 8.62816C15.0426 8.76536 15.2361 8.95895 15.3733 9.19096ZM15.6009 11.6006H18.4009V12.4006H15.6009V11.6006Z" fill="#3B5AFB"/>
<path id="Vector_8" d="M22.4016 0.800781H18.4016C17.9597 0.800781 17.6016 1.15895 17.6016 1.60078V5.60078C17.6016 6.04261 17.9597 6.40078 18.4016 6.40078H22.4016C22.8434 6.40078 23.2016 6.04261 23.2016 5.60078V1.60078C23.2016 1.15895 22.8434 0.800781 22.4016 0.800781Z" fill="#3B5AFB"/>
<path id="Vector_9" d="M5.60156 11.6016H8.40156V12.4016H5.60156V11.6016Z" fill="#3B5AFB"/>
<path id="Vector_10" d="M4.00078 10H1.60078C1.15895 10 0.800781 10.3582 0.800781 10.8V13.2C0.800781 13.6418 1.15895 14 1.60078 14H4.00078C4.44261 14 4.80078 13.6418 4.80078 13.2V10.8C4.80078 10.3582 4.44261 10 4.00078 10Z" fill="#3B5AFB"/>
<path id="Vector_11" d="M5.60078 0.800781H1.60078C1.15895 0.800781 0.800781 1.15895 0.800781 1.60078V5.60078C0.800781 6.04261 1.15895 6.40078 1.60078 6.40078H5.60078C6.04261 6.40078 6.40078 6.04261 6.40078 5.60078V1.60078C6.40078 1.15895 6.04261 0.800781 5.60078 0.800781Z" fill="#3B5AFB"/>
<path id="Vector_12" d="M22.4016 17.6016H18.4016C17.9597 17.6016 17.6016 17.9597 17.6016 18.4016V22.4016C17.6016 22.8434 17.9597 23.2016 18.4016 23.2016H22.4016C22.8434 23.2016 23.2016 22.8434 23.2016 22.4016V18.4016C23.2016 17.9597 22.8434 17.6016 22.4016 17.6016Z" fill="#3B5AFB"/>
<path id="Vector_13" d="M13.2 19.2012H10.8C10.3582 19.2012 10 19.5593 10 20.0012V22.4012C10 22.843 10.3582 23.2012 10.8 23.2012H13.2C13.6418 23.2012 14 22.843 14 22.4012V20.0012C14 19.5593 13.6418 19.2012 13.2 19.2012Z" fill="#3B5AFB"/>
<path id="Vector_14" d="M13.2 0.800781H10.8C10.3582 0.800781 10 1.15895 10 1.60078V4.00078C10 4.44261 10.3582 4.80078 10.8 4.80078H13.2C13.6418 4.80078 14 4.44261 14 4.00078V1.60078C14 1.15895 13.6418 0.800781 13.2 0.800781Z" fill="#3B5AFB"/>
<path id="Vector_15" d="M11.6016 5.60156H12.4016V8.40156H11.6016V5.60156Z" fill="#3B5AFB"/>
</g>
</g>
<defs>
<clipPath id="clip0_1920_1264">
<rect width="24" height="24" fill="white"/>
</clipPath>
</defs>
</svg>
