<svg width="70" height="26" viewBox="0 0 70 26" fill="none" xmlns="http://www.w3.org/2000/svg">
<g id="Layer_1" style="mix-blend-mode:luminosity" opacity="0.7" clip-path="url(#clip0_2111_339)">
<path id="Vector" d="M67.4207 9.35364C68.1598 9.99614 68.6109 10.8111 68.8402 11.7549C68.8743 11.8933 68.8592 12.0411 68.8914 12.1795C68.9009 12.225 68.9843 12.2553 69.0335 12.2913V13.6654C68.9861 13.7791 68.9217 13.8909 68.8952 14.0103C68.8194 14.3553 68.7587 14.7021 68.6905 15.047C68.5654 15.03 68.4934 15.0546 68.4574 15.2043C68.4138 15.3787 68.3323 15.5474 68.2394 15.7028C67.9665 16.1558 67.6291 16.5614 67.2084 16.8835C66.9696 17.0674 66.7175 17.2474 66.4427 17.3631C66.1622 17.4825 65.8476 17.5223 65.5481 17.6C65.4496 17.6246 65.3548 17.6644 65.2544 17.6871C65.0876 17.7251 64.9189 17.7838 64.7521 17.7838C63.4027 17.7914 62.0513 17.7876 60.7019 17.7895C60.7 17.3251 60.6943 16.8608 60.6943 16.3965C60.6943 13.8435 60.6943 11.2906 60.6943 8.73768C60.6943 8.65997 60.7 8.58037 60.7019 8.50266C61.9092 8.50266 63.1184 8.4875 64.3257 8.51214C64.7805 8.52161 65.243 8.59174 65.6884 8.69409C66.039 8.77369 66.3745 8.93289 66.7061 9.08262C66.8748 9.15843 67.0075 9.30626 67.1724 9.39154C67.233 9.42376 67.3373 9.3707 67.4225 9.35553L67.4207 9.35364ZM66.1868 14.939C66.2588 14.9106 66.3574 14.9011 66.3953 14.848C66.4939 14.7097 66.5829 14.5581 66.6455 14.4007C66.7023 14.2586 66.7478 14.1032 66.7516 13.9516C66.7649 13.5251 66.7668 13.0987 66.7516 12.6742C66.744 12.4562 66.7346 12.2212 66.6493 12.0298C66.4825 11.6526 66.3138 11.283 66.0125 10.9665C65.6562 10.5913 65.1994 10.4358 64.7692 10.2122C64.7502 10.2027 64.7218 10.2084 64.699 10.2084C64.3996 10.2084 64.0982 10.2027 63.7988 10.2122C63.6775 10.216 63.5486 10.288 63.4368 10.2672C63.3098 10.2425 63.234 10.1838 63.1279 10.3411C63.0596 10.4415 62.9592 10.4927 62.9592 10.6481C62.9668 12.2894 62.963 13.9307 62.9649 15.572C62.9649 15.6573 62.9706 15.7502 63.0066 15.8222C63.0615 15.9302 63.126 15.9094 63.1544 15.7938C63.5922 15.7938 64.0319 15.8051 64.4697 15.7976C65.1748 15.7862 65.7623 15.5284 66.1811 14.9409L66.1868 14.939Z" fill="white"/>
<path id="Vector_2" d="M51.7926 10.2015C52.0484 10.8516 52.3062 11.5036 52.5621 12.1536C52.5507 12.3678 52.5355 12.5763 52.6625 12.7753C52.7686 12.9421 52.8482 13.1278 52.9146 13.3154C52.9999 13.558 53.0435 13.8177 53.1306 14.0584C53.2462 14.3768 53.3922 14.6838 53.5192 14.9984C53.6992 15.44 53.8717 15.8873 54.0593 16.3251C54.0859 16.3858 54.1863 16.4123 54.2526 16.4559C54.2678 16.4881 54.2849 16.5185 54.3 16.5507C54.2962 16.6682 54.2697 16.7895 54.2943 16.8994C54.3379 17.1041 54.4346 17.2974 54.4668 17.5021C54.4839 17.6196 54.4611 17.7883 54.264 17.7826C53.7068 17.7693 53.1477 17.7561 52.5905 17.7295C52.5185 17.7257 52.418 17.6575 52.3877 17.5912C52.2967 17.3979 52.1963 17.1951 52.1716 16.9885C52.1205 16.5886 51.8077 16.2683 51.4078 16.2683C50.6971 16.2683 49.9883 16.2683 49.2775 16.2683C49.0558 16.2683 48.8359 16.2588 48.6142 16.2721C48.4342 16.2834 48.2996 16.3536 48.4114 16.5734C48.4095 16.581 48.4038 16.5886 48.3962 16.5924C48.1518 16.5317 48.201 16.799 48.0873 16.888C48.0513 16.9165 48.1309 17.0946 48.1574 17.2045L47.9528 17.7845C47.551 17.7845 47.1473 17.8034 46.7474 17.7769C46.3569 17.7523 45.9476 17.902 45.578 17.6575C45.5514 17.6405 45.4908 17.6765 45.4453 17.6878C45.6576 17.1344 45.8642 16.5772 46.0821 16.0257C46.4631 15.061 46.8516 14.0982 47.2363 13.1335C47.6988 11.9774 48.1574 10.8194 48.6199 9.66326C48.7203 9.41309 48.8303 9.1667 48.9364 8.91842C49.0027 8.85777 49.0672 8.79523 49.1354 8.73647C49.2264 8.65498 49.3155 8.50904 49.4121 8.50525C49.8897 8.48061 50.3711 8.49198 50.8506 8.49956C50.9075 8.49956 50.9909 8.54695 51.0136 8.59622C51.0913 8.77248 51.1349 8.9658 51.2221 9.13827C51.2657 9.22545 51.3718 9.27852 51.4495 9.34865C51.459 9.36002 51.4609 9.37328 51.4571 9.38655C51.4495 9.48132 51.4173 9.58366 51.4382 9.67274C51.4685 9.80541 51.5576 9.92481 51.5822 10.0556C51.6087 10.1958 51.6826 10.211 51.7926 10.1977V10.2015ZM51.1027 14.6516C51.224 14.6383 51.3244 14.6061 51.2771 14.4488C51.1652 14.0717 51.0477 13.6964 50.9397 13.3173C50.7748 12.745 50.6175 12.1707 50.4545 11.5983C50.4147 11.4562 50.356 11.3273 50.1721 11.3387C50.0792 11.5111 49.9561 11.6741 49.8973 11.858C49.6339 12.6862 49.3932 13.5201 49.1354 14.3484C49.0482 14.6289 49.0672 14.6592 49.378 14.6554C49.9523 14.6497 50.5265 14.6497 51.1008 14.6478L51.1027 14.6516Z" fill="white"/>
<path id="Vector_3" d="M30.3682 17.9692C30.3133 17.9711 30.2583 17.9749 30.1787 17.9787C30.1787 17.9048 30.1787 17.8366 30.1787 17.7683C30.1787 14.7169 30.1787 11.6674 30.1787 8.61606C30.1787 8.5611 30.1844 8.50613 30.1863 8.45117C30.3417 8.46633 30.4971 8.48908 30.6544 8.49855C32.0342 8.56868 33.4234 8.35641 34.7994 8.67292C35.1955 8.76389 35.5689 8.81127 35.929 9.0425C36.272 9.26235 36.5809 9.49357 36.8122 9.82524C36.8766 9.98824 36.9354 10.1531 37.0055 10.3142C37.2424 10.8582 37.1893 11.4343 37.1931 12.0048C37.1931 12.2398 37.2102 12.4691 37.0604 12.6814C37.0036 12.761 37.0206 12.8918 37.0036 12.9998C36.9884 13.015 36.9714 13.032 36.9562 13.0472C36.924 13.0794 36.8937 13.1097 36.8614 13.142C36.8444 13.2936 36.7648 13.3865 36.6435 13.4869C36.4615 13.6347 36.3421 13.8584 36.1602 14.0081C35.9422 14.1882 35.6958 14.3113 35.4134 14.408C35.1405 14.5028 34.8847 14.5577 34.6061 14.571C34.5454 14.5729 34.4867 14.6108 34.426 14.626C34.2384 14.6696 34.0526 14.7397 33.8631 14.7492C33.4537 14.7681 33.0444 14.7492 32.635 14.7586C32.5743 14.7586 32.4815 14.8098 32.4663 14.8591C32.4455 14.9235 32.4834 15.0088 32.4966 15.0865C32.508 15.9394 32.5175 16.7942 32.5288 17.647C32.2957 17.7304 32.0702 17.81 31.8105 17.7949C31.3955 17.7702 30.9785 17.793 30.5635 17.7854C30.4251 17.7835 30.3512 17.8214 30.3739 17.9692H30.3682ZM32.5326 12.4805C32.4492 12.4843 32.3659 12.4881 32.1896 12.4976C32.2806 12.653 32.3128 12.7989 32.4 12.8425C32.8416 13.0699 33.3343 13.0169 33.8082 13.0339C33.9844 13.0396 34.1626 12.8899 34.3445 12.8747C34.7615 12.8425 34.9415 12.5355 35.1367 12.2493C35.2201 12.128 35.2713 11.9688 35.2884 11.8229C35.3414 11.3339 35.1235 10.9416 34.7899 10.6099C34.6951 10.5151 34.5606 10.4602 34.4393 10.3976C34.3521 10.354 34.2573 10.3256 34.1664 10.2915C34.0868 10.2612 34.0072 10.2119 33.9257 10.21C33.5106 10.2024 33.0974 10.2024 32.6824 10.21C32.6103 10.21 32.5402 10.2612 32.4682 10.2877C32.4947 10.3559 32.5213 10.4241 32.5478 10.4924C32.544 10.5454 32.5364 10.6004 32.5364 10.6535C32.5326 11.2619 32.5307 11.8721 32.5288 12.4805H32.5326Z" fill="white"/>
<path id="Vector_4" d="M44.2641 15.8283C44.2773 15.8625 44.302 15.8966 44.302 15.9326C44.3001 16.5504 44.2944 17.1702 44.2887 17.7881C44.1901 17.7217 44.0973 17.6573 43.9817 17.7691C43.9513 17.7994 43.8755 17.7881 43.8225 17.7881C42.3896 17.7881 40.9587 17.7899 39.5259 17.7843C39.4425 17.7843 39.3591 17.7255 39.2776 17.6933C39.2776 17.5189 39.2776 17.3465 39.2776 17.1721C39.2776 17.0299 39.2776 16.8878 39.2776 16.7457C39.2776 16.7134 39.2776 16.6831 39.2776 16.6509C39.2776 16.6187 39.2776 16.5883 39.2776 16.5561V16.4614C39.2776 14.0297 39.2776 11.5962 39.2776 9.16457C39.2662 9.04896 39.2738 8.92766 39.2416 8.81584C39.1696 8.57135 39.2113 8.49364 39.4633 8.50123C40.1267 8.52397 40.7957 8.42352 41.4515 8.59409C41.4553 10.6618 41.4572 12.7315 41.4591 14.7992C41.4591 15.1214 41.4591 15.4455 41.4591 15.8094H44.2015C44.2224 15.8151 44.2451 15.8227 44.266 15.8283H44.2641Z" fill="white"/>
<path id="Vector_5" d="M57.8971 17.9693H56.1572V8.32422H58.6002V8.87953C58.5396 8.86437 58.4789 8.84731 58.4183 8.83215V8.50237C57.7455 8.50237 57.1011 8.49858 56.4567 8.50996C56.415 8.50996 56.3392 8.60851 56.3411 8.66158C56.3411 8.87195 56.379 9.08422 56.3809 9.2946C56.3847 11.8741 56.3828 14.4535 56.3809 17.033C56.3809 17.1581 56.3619 17.2832 56.343 17.4064C56.3032 17.6565 56.4112 17.7892 56.6671 17.7892C57.0764 17.7892 57.4877 17.7892 57.8971 17.7892C57.8971 17.8498 57.8971 17.9105 57.8971 17.9711V17.9693Z" fill="white"/>
<path id="Vector_6" d="M48.4109 16.576C48.2991 16.3561 48.4337 16.286 48.6137 16.2746C48.8336 16.2614 49.0553 16.2709 49.2771 16.2709C49.9878 16.2709 50.6966 16.2709 51.4074 16.2709C51.8073 16.2709 52.1219 16.5931 52.1711 16.9911C52.1977 17.1995 52.2981 17.4004 52.3872 17.5938C52.4175 17.6582 52.518 17.7283 52.59 17.7321C53.1472 17.7586 53.7063 17.7719 54.2635 17.7852C54.4587 17.7909 54.4834 17.6222 54.4663 17.5047C54.436 17.3 54.3393 17.1067 54.2938 16.902C54.2692 16.7902 54.2938 16.6689 54.2995 16.5533C54.4853 17.0157 54.6729 17.4762 54.8757 17.9766C54.0077 17.9766 53.206 17.9842 52.4043 17.9652C52.3228 17.9652 52.2053 17.825 52.1711 17.7264C52.0574 17.4004 51.9816 17.0612 51.8679 16.7352C51.8414 16.6594 51.722 16.5646 51.6443 16.5627C50.5886 16.5514 49.5329 16.5551 48.4754 16.5551C48.4545 16.5551 48.4318 16.5684 48.4109 16.576Z" fill="white"/>
<path id="Vector_7" d="M39.2756 16.5552C39.2756 16.5875 39.2756 16.6178 39.2756 16.65C39.2509 16.6614 39.2263 16.6746 39.2017 16.686C39.2263 16.705 39.2509 16.7258 39.2756 16.7448C39.2756 16.8869 39.2756 17.0291 39.2756 17.1712C39.2111 17.1864 39.1467 17.2034 39.0823 17.2186C39.0728 15.6986 39.0595 14.1805 39.0576 12.6605C39.0576 11.4475 39.0709 10.2364 39.0785 9.02344C39.1448 9.07082 39.2111 9.11631 39.2756 9.16369C39.2756 11.5953 39.2756 14.0288 39.2756 16.4605C39.2509 16.4719 39.2263 16.4851 39.2017 16.4965C39.2263 16.5154 39.2509 16.5363 39.2756 16.5552Z" fill="white"/>
<path id="Vector_8" d="M58.4187 8.83002C58.4793 8.84518 58.54 8.86224 58.6006 8.8774C58.6025 9.42134 58.6082 9.96529 58.6082 10.5073C58.6082 12.9181 58.6082 15.3289 58.6082 17.7416V17.9671H57.8975C57.8975 17.9065 57.8975 17.8458 57.8975 17.7852C57.9771 17.7852 58.0548 17.7852 58.1344 17.7852C58.4319 17.7852 58.4793 17.7378 58.466 17.4383C58.4585 17.2829 58.4224 17.1275 58.4224 16.9702C58.4206 14.2562 58.4224 11.5422 58.4224 8.82812L58.4187 8.83002Z" fill="white"/>
<path id="Vector_9" d="M60.7001 17.7862C62.0496 17.7862 63.4009 17.79 64.7503 17.7805C64.919 17.7805 65.0858 17.7218 65.2526 17.6839C65.3511 17.6611 65.4478 17.6232 65.5463 17.5967C65.8458 17.519 66.1604 17.4811 66.4409 17.3598C66.7157 17.2423 66.9678 17.0622 67.2066 16.8803C67.6274 16.5581 67.9647 16.1525 68.2376 15.6995C68.3305 15.5441 68.412 15.3754 68.4556 15.201C68.4916 15.0513 68.5636 15.0267 68.6887 15.0437C68.1561 16.5107 67.163 17.4773 65.624 17.826C65.2185 17.917 64.7958 17.9625 64.3808 17.9681C63.1583 17.9871 61.9359 17.9738 60.6982 17.9738V17.7843L60.7001 17.7862Z" fill="white"/>
<path id="Vector_10" d="M67.4205 9.35351C67.3353 9.36678 67.231 9.41984 67.1704 9.38952C67.0055 9.30423 66.8709 9.1564 66.7041 9.08059C66.3743 8.93086 66.037 8.77166 65.6864 8.69206C65.241 8.58971 64.7804 8.51959 64.3237 8.51011C63.1164 8.48547 61.9072 8.50253 60.6999 8.50064C60.698 8.44567 60.6942 8.39071 60.6904 8.31111C60.7643 8.31111 60.8345 8.31111 60.9027 8.31111C61.9925 8.31111 63.0842 8.27699 64.1701 8.32248C65.114 8.36228 66.054 8.50443 66.8993 8.97825C67.0851 9.08248 67.2462 9.22842 67.4186 9.35351H67.4205Z" fill="white"/>
<path id="Vector_11" d="M36.8123 9.82675C36.5811 9.49318 36.2722 9.26386 35.9291 9.044C35.569 8.81278 35.1957 8.7635 34.7995 8.67443C33.4236 8.35792 32.0343 8.57019 30.6546 8.50006C30.4992 8.49248 30.3438 8.46974 30.1864 8.45268C30.1656 8.36171 30.1751 8.30864 30.2945 8.30864C31.4771 8.31243 32.6598 8.28969 33.8405 8.3238C34.3352 8.33896 34.8337 8.4451 35.3151 8.56829C36.0258 8.74834 36.5754 9.17099 36.9393 9.81917C36.8957 9.82107 36.8521 9.82296 36.8085 9.82675H36.8123Z" fill="white"/>
<path id="Vector_12" d="M32.4925 15.0847C32.4792 15.0089 32.4413 14.9236 32.4622 14.8573C32.4774 14.8099 32.5721 14.7588 32.6309 14.7569C33.0402 14.7474 33.4515 14.7663 33.859 14.7474C34.0485 14.7379 34.2343 14.6697 34.4219 14.6242C34.4825 14.609 34.5413 14.573 34.6019 14.5692C34.8806 14.5579 35.1364 14.501 35.4093 14.4062C35.6917 14.3077 35.94 14.1864 36.1561 14.0063C36.338 13.8566 36.4574 13.633 36.6394 13.4851C36.7626 13.3847 36.8422 13.2918 36.8573 13.1402L36.9521 13.0454C36.9672 13.0303 36.9843 13.0132 36.9995 12.998C37.0317 13.017 37.0658 13.036 37.098 13.053C36.8801 13.6197 36.5181 14.0594 35.9931 14.3759C35.4359 14.7114 34.8294 14.8497 34.1964 14.8895C33.7036 14.9217 33.207 14.918 32.7143 14.9464C32.6384 14.9502 32.5664 15.0355 32.4925 15.081V15.0847Z" fill="white"/>
<path id="Vector_13" d="M39.2761 17.692C39.3595 17.7242 39.4429 17.783 39.5244 17.783C40.9572 17.7887 42.3881 17.7868 43.821 17.7868C43.8759 17.7868 43.9498 17.7982 43.9802 17.7678C44.0977 17.656 44.1905 17.7224 44.2872 17.7868C44.3137 17.9081 44.2948 17.9782 44.1413 17.9782C42.462 17.9744 40.7809 17.9763 39.0752 17.9763V17.6484C39.1415 17.6636 39.2079 17.6788 39.2742 17.692H39.2761Z" fill="white"/>
<path id="Vector_14" d="M54.2545 16.4585C54.1882 16.4149 54.0859 16.3884 54.0612 16.3277C53.8736 15.888 53.7011 15.4426 53.5211 15.001C53.3922 14.6864 53.2482 14.3794 53.1325 14.061C53.0435 13.8184 52.9999 13.5606 52.9165 13.3181C52.852 13.1304 52.7706 12.9447 52.6644 12.7779C52.5374 12.5789 52.5526 12.3704 52.564 12.1562C52.8501 12.8632 53.1363 13.5701 53.4206 14.2771C53.6917 14.9575 53.9608 15.6398 54.228 16.3221C54.2451 16.3656 54.247 16.413 54.2564 16.4585H54.2545Z" fill="white"/>
<path id="Vector_15" d="M39.2762 9.16382C39.2099 9.11644 39.1435 9.07096 39.0791 9.02357V8.32422H41.4501V8.59524C40.7943 8.42467 40.1253 8.52512 39.4619 8.50237C39.2099 8.49479 39.1682 8.5725 39.2402 8.81699C39.2724 8.92691 39.2667 9.04821 39.2762 9.16572V9.16382Z" fill="white"/>
<path id="Vector_16" d="M51.4497 9.35154C51.3719 9.28331 51.2639 9.22835 51.2222 9.14116C51.1369 8.9687 51.0933 8.77538 51.0137 8.59912C50.9929 8.55174 50.9076 8.50435 50.8507 8.50246C50.3712 8.49488 49.8917 8.4854 49.4122 8.50815C49.3156 8.51383 49.2265 8.65787 49.1355 8.73937C49.0692 8.80002 49.0029 8.86066 48.9365 8.92131C48.9934 8.76211 49.0351 8.59533 49.1109 8.4475C49.145 8.38306 49.2473 8.31483 49.3194 8.31293C49.8444 8.30156 50.3712 8.29587 50.8962 8.31672C50.9891 8.32051 51.1142 8.45129 51.1597 8.55174C51.2753 8.80949 51.3549 9.08241 51.4478 9.34775L51.4497 9.35154Z" fill="white"/>
<path id="Vector_17" d="M37.1005 13.0555C37.0683 13.0365 37.0342 13.0176 37.002 13.0005C37.019 12.8925 37.002 12.7617 37.0588 12.6821C37.2086 12.4698 37.1915 12.2386 37.1915 12.0055C37.1877 11.435 37.2408 10.8608 37.0039 10.3149C36.9337 10.1538 36.875 9.98893 36.8105 9.82594C36.8541 9.82405 36.8977 9.82215 36.9413 9.81836C37.1877 10.3244 37.3981 10.8304 37.3886 11.4161C37.381 11.9145 37.3526 12.4035 37.1934 12.8773C37.1725 12.9399 37.1308 12.9967 37.0986 13.0555H37.1005Z" fill="white"/>
<path id="Vector_18" d="M45.4454 17.693C45.4909 17.6817 45.5534 17.6457 45.5781 17.6627C45.9476 17.9072 46.357 17.7556 46.7475 17.7821C47.1474 17.8087 47.551 17.7897 47.9528 17.7897C47.9358 17.9072 47.8941 17.9811 47.7482 17.9792C46.9521 17.9735 46.158 17.9754 45.3203 17.9754C45.3677 17.8655 45.4056 17.7783 45.4435 17.6911L45.4454 17.693Z" fill="white"/>
<path id="Vector_19" d="M30.3678 17.9687C30.347 17.819 30.419 17.781 30.5573 17.7848C30.9724 17.7924 31.3894 17.7697 31.8044 17.7943C32.066 17.8095 32.2915 17.7299 32.5227 17.6465V17.9706H30.3659L30.3678 17.9687Z" fill="white"/>
<path id="Vector_20" d="M51.792 10.2018C51.6821 10.2151 51.6082 10.1999 51.5816 10.0597C51.557 9.92699 51.4679 9.80758 51.4376 9.67681C51.4167 9.58773 51.4489 9.48728 51.4565 9.39062C51.5683 9.66165 51.6802 9.93267 51.792 10.2018Z" fill="white"/>
<path id="Vector_21" d="M48.1594 17.207C48.1329 17.097 48.0533 16.9189 48.0893 16.8905C48.203 16.8014 48.1537 16.5342 48.3982 16.5948C48.3186 16.7995 48.239 17.0023 48.1594 17.207Z" fill="white"/>
<path id="Vector_22" d="M39.2762 17.6912C39.2098 17.676 39.1435 17.6609 39.0771 17.6476C39.0771 17.5054 39.0809 17.3614 39.0828 17.2193C39.1473 17.2041 39.2117 17.187 39.2762 17.1719C39.2762 17.3462 39.2762 17.5187 39.2762 17.6931V17.6912Z" fill="white"/>
<path id="Vector_23" d="M25.3934 10.4893C25.4995 10.4571 25.6056 10.4268 25.7118 10.3945C25.6075 10.4912 25.5033 10.5878 25.3991 10.6845L25.3877 10.675C25.3877 10.6295 25.3896 10.5822 25.3915 10.5367C25.3915 10.5215 25.3915 10.5045 25.3915 10.4893H25.3934Z" fill="white"/>
<path id="Vector_24" d="M66.1868 14.9393C66.6208 14.2285 66.6151 13.4382 66.5583 12.6574C66.5033 11.8879 66.2361 11.1866 65.5102 10.7905C65.2354 10.6408 64.9132 10.5309 64.6024 10.4986C64.138 10.4494 63.6642 10.4854 63.1601 10.4854V15.7921C63.1316 15.9077 63.0691 15.9286 63.0122 15.8206C62.9743 15.7485 62.9705 15.6538 62.9705 15.5704C62.9686 13.9291 62.9705 12.2878 62.9648 10.6465C62.9648 10.4911 63.0653 10.4399 63.1335 10.3394C63.2397 10.1821 63.3136 10.2409 63.4425 10.2655C63.5562 10.2864 63.6832 10.2144 63.8045 10.2106C64.1039 10.2011 64.4034 10.2068 64.7047 10.2068C64.7274 10.2068 64.7559 10.2011 64.7748 10.2106C65.2051 10.4342 65.6618 10.5896 66.0181 10.9649C66.3195 11.2814 66.4882 11.651 66.6549 12.0281C66.7402 12.2214 66.7497 12.4565 66.7573 12.6725C66.7724 13.099 66.7705 13.5254 66.7573 13.9499C66.7516 14.1016 66.708 14.257 66.6511 14.3991C66.5867 14.5564 66.4995 14.708 66.401 14.8464C66.3631 14.8995 66.2645 14.9089 66.1925 14.9374L66.1868 14.9393Z" fill="white"/>
<path id="Vector_25" d="M25.2512 10.6777C25.2985 10.6303 25.3459 10.583 25.3933 10.5356C25.3933 10.5204 25.3933 10.5034 25.3933 10.4882C25.4994 10.456 25.6056 10.4256 25.7117 10.3934C25.7155 10.3707 25.7269 10.346 25.7212 10.3252C25.5563 9.69976 25.3876 9.07811 25.2265 8.45267C25.0578 7.79312 24.8986 7.13167 24.7281 6.47212C24.6276 6.08548 24.5101 5.70264 24.4002 5.31979C24.3054 4.94263 24.2088 4.56547 24.114 4.18831C24.114 4.14851 24.1178 4.10871 24.1083 4.07081C23.9908 3.64627 23.8221 3.22741 23.7653 2.7934C23.7255 2.48826 23.5757 2.40486 23.3407 2.34043C22.5599 2.13005 21.7771 1.92536 21.0001 1.70741C19.4497 1.27528 17.9051 0.826104 16.3529 0.40725C16.0932 0.337125 15.7805 0.183608 15.5379 0.484956C14.7438 1.27149 13.9497 2.06182 13.1518 2.84267C13.0892 2.90332 12.9793 2.91659 12.8921 2.9526C12.7367 2.77634 12.5908 2.5925 12.4278 2.42571C11.7151 1.70172 10.9968 0.981517 10.2804 0.259418C10.2179 0.255628 10.1534 0.251837 10.0909 0.248047C9.85209 0.297324 9.60949 0.33902 9.37258 0.399669C8.51213 0.61952 7.65547 0.845057 6.79691 1.0687C5.47212 1.41553 4.14732 1.75668 2.82632 2.1111C2.56098 2.18312 2.26532 2.22481 2.18951 2.58681C2.1137 2.95449 1.99808 3.3127 1.89953 3.6747C1.56028 4.9161 1.22292 6.1575 0.881771 7.3989C0.656233 8.21576 0.428801 9.03263 0.197578 9.84759C0.129348 10.0902 0.178625 10.2664 0.370048 10.456C1.07888 11.1515 1.76686 11.868 2.45674 12.5825C2.59699 12.7265 2.7145 12.8914 2.84338 13.0468C2.42831 13.4391 2.00567 13.8239 1.59818 14.2257C1.07509 14.7431 0.563365 15.2719 0.0478516 15.795V15.8423C0.10471 16.0186 0.165358 16.1911 0.214635 16.3692C0.335933 16.8108 0.455335 17.2543 0.569051 17.6978C0.840075 18.7478 1.10541 19.8016 1.37644 20.8515C1.59439 21.6892 1.82562 22.5232 2.0341 23.3628C2.10232 23.6395 2.20656 23.81 2.51549 23.8897C3.62991 24.1739 4.73675 24.4923 5.84548 24.7994C7.15133 25.1614 8.45906 25.5215 9.76301 25.893C9.95822 25.9479 10.0947 25.9309 10.1951 25.7489C10.2804 25.6826 10.3752 25.6257 10.451 25.5499C10.9172 25.0913 11.3854 24.6364 11.8383 24.1645C12.1435 23.8442 12.4221 23.4992 12.7196 23.1581C12.8788 23.2851 12.9603 23.34 13.0286 23.4083C13.5232 23.901 14.0141 24.3976 14.505 24.8941C14.8461 25.2429 15.1835 25.5935 15.5284 25.9365C15.5644 25.9726 15.644 25.9896 15.6952 25.9763C16.2107 25.8418 16.7243 25.6996 17.238 25.5613C17.7667 25.4172 18.2955 25.2732 18.8262 25.1348C19.6222 24.9264 20.4182 24.7217 21.2161 24.5189C21.8605 24.3559 22.5106 24.2043 23.1531 24.0337C23.2915 23.9958 23.481 23.9238 23.5303 23.8157C23.6383 23.5769 23.6705 23.3059 23.733 23.0482C23.7501 23.0216 23.7728 22.997 23.7804 22.9685C24.0079 22.1346 24.2296 21.3007 24.4589 20.4668C24.855 19.0207 25.2568 17.5784 25.6473 16.1304C25.6681 16.0489 25.6283 15.9181 25.5696 15.8556C25.0199 15.2756 24.4589 14.7052 23.8998 14.1328C23.8032 14.0342 23.7008 13.9433 23.6004 13.8485C23.4184 13.659 23.2308 13.4732 23.0583 13.2742C23.0204 13.2307 23.0091 13.1056 23.0413 13.0714C23.3938 12.7019 23.7596 12.3437 24.1216 11.9798C24.5499 11.5476 24.9782 11.1155 25.4066 10.6834L25.3952 10.6739C25.3952 10.6284 25.3971 10.5811 25.399 10.5356C25.3516 10.583 25.3042 10.6303 25.2568 10.6777H25.2512ZM23.1967 16.8051C22.9655 17.6751 22.7115 18.5393 22.4727 19.4073C22.3666 19.7959 22.2775 20.1901 22.1808 20.5824C22.1391 20.6658 22.0955 20.7473 22.0387 20.8591C21.8662 20.6715 21.7241 20.5066 21.5724 20.3493C20.7309 19.485 19.8894 18.6227 19.046 17.7622C18.9532 17.6675 18.8357 17.5955 18.7466 17.4988C18.7125 17.4609 18.7257 17.3775 18.7182 17.3169C19.5483 16.5114 20.3784 15.7059 21.2048 14.8985C21.2408 14.8644 21.2559 14.8075 21.2806 14.7601C21.3621 14.7924 21.4663 14.8018 21.5232 14.8587C22.0557 15.3932 22.5845 15.9314 23.1019 16.481C23.1721 16.5568 23.2232 16.7123 23.1967 16.807V16.8051ZM16.116 23.4158C15.5872 22.8681 15.0546 22.3223 14.5258 21.7745C14.4747 21.7215 14.4443 21.6457 14.4045 21.5812C14.4974 21.5016 14.5903 21.422 14.685 21.3424C14.6623 21.3405 14.6414 21.3386 14.6206 21.3386C14.6414 21.3386 14.6623 21.3386 14.685 21.3424C14.8499 21.187 15.0148 21.0316 15.1778 20.8743C15.6459 20.4213 16.116 19.9702 16.5784 19.5116C16.7547 19.3372 16.9158 19.1458 17.1034 18.9392C17.2702 19.1212 17.4199 19.286 17.5696 19.449C17.9354 19.8186 18.3012 20.1863 18.6651 20.5578C19.2488 21.1529 19.8326 21.748 20.4144 22.345C20.4315 22.3772 20.4504 22.4076 20.4713 22.4455C19.2375 22.7714 18.0169 23.0955 16.7945 23.412C16.5879 23.4651 16.3718 23.486 16.1595 23.522C16.1463 23.4879 16.1406 23.4443 16.116 23.4196V23.4158ZM17.0541 10.4939C17.1318 10.5015 17.2436 10.4768 17.2853 10.5204C17.998 11.2501 18.7011 11.9911 19.4099 12.7265C19.8193 13.1492 19.8269 13.1492 19.4043 13.5642C18.7693 14.1878 18.1287 14.8056 17.4938 15.4273C17.4066 15.5145 17.3422 15.6263 17.2512 15.7097C17.2019 15.7552 17.1204 15.7646 17.0522 15.7912C16.5196 15.2434 15.9871 14.6938 15.4564 14.1461C15.1892 13.875 14.92 13.6078 14.6604 13.3292C14.5865 13.2515 14.5467 13.1416 14.4917 13.0468L17.0522 10.4939H17.0541ZM21.4113 11.5401C21.3431 11.4927 21.2673 11.4529 21.2085 11.3941C20.5319 10.7289 19.8591 10.0599 19.1863 9.39273C19.0783 9.27901 18.9797 9.15582 18.8622 9.05537C18.6973 8.91512 18.7618 8.80519 18.8812 8.68769C19.7738 7.80449 20.6665 6.92129 21.5573 6.0381C21.6217 5.97366 21.6862 5.90922 21.7487 5.84668C21.7127 5.84289 21.6824 5.84668 21.6577 5.85047C21.6843 5.84478 21.7146 5.84289 21.7487 5.84668L22.1657 5.52069C22.2149 5.64009 22.2794 5.75381 22.3116 5.877C22.5314 6.72419 22.7437 7.57327 22.9617 8.42235C23.0735 8.85826 23.1891 9.29417 23.3047 9.72819C22.7873 10.2229 22.2718 10.7175 21.7544 11.2103C21.6407 11.3202 21.5251 11.4282 21.4113 11.5382V11.5401ZM21.5573 6.0381C21.4682 6.0779 21.3715 6.10443 21.2919 6.1594C21.3715 6.10633 21.4682 6.0779 21.5573 6.0381ZM14.6604 4.4347C15.0413 4.04238 15.4412 3.66522 15.8279 3.27858C16.006 3.10043 16.1728 2.90901 16.3453 2.72327C16.4059 2.72706 16.4685 2.72327 16.5253 2.73654C17.1356 2.90143 17.744 3.06821 18.3524 3.23689C19.1029 3.44347 19.8553 3.65006 20.6059 3.85664C20.5566 3.93245 20.5187 4.01964 20.458 4.08028C19.7018 4.8365 18.9418 5.58892 18.1818 6.33945C17.8975 6.62184 17.6075 6.89855 17.3195 7.17526C17.2759 7.21696 17.2209 7.24159 17.183 7.26623C16.6277 6.69576 16.0875 6.14044 15.5436 5.58892C15.2479 5.28757 14.939 4.9957 14.6528 4.68488C14.6111 4.63939 14.6168 4.48019 14.6604 4.4328V4.4347ZM13.0248 6.13855C13.0797 6.21246 13.1252 6.29586 13.1897 6.36029C13.8473 7.02932 14.5088 7.69457 15.1626 8.36549C15.3162 8.5228 15.4431 8.70474 15.5834 8.87532C15.5701 8.89238 15.5569 8.90754 15.5436 8.92459C14.6983 9.80211 13.8549 10.6815 13.0058 11.5647C12.0506 10.619 11.1712 9.74714 10.2899 8.87532C10.3164 8.80898 10.3278 8.72749 10.3733 8.68011C10.993 8.05088 11.6147 7.42544 12.2382 6.8C12.4657 6.57256 12.6988 6.35271 12.93 6.13097C12.9603 6.13286 12.9907 6.13665 13.021 6.13855H13.0248ZM6.02743 12.9596C6.85945 12.1447 7.69148 11.3278 8.5254 10.5147C8.57846 10.4636 8.65048 10.4294 8.71492 10.3877C8.804 10.4749 8.89687 10.5602 8.98405 10.6493C9.76111 11.4339 10.5363 12.2186 11.3133 13.0032C11.2697 13.0885 11.247 13.1908 11.1826 13.2534C10.415 14.0115 9.64171 14.7639 8.87223 15.5182C8.64859 15.7381 8.64669 15.7457 8.42116 15.5182C8.13308 15.2302 7.85258 14.9326 7.56829 14.6407C7.42804 14.4986 7.29158 14.3508 7.14754 14.2124C6.75711 13.8371 6.36479 13.4638 5.97247 13.0904C5.98953 13.0468 6.00848 13.0013 6.02553 12.9558L6.02743 12.9596ZM5.50434 3.68038C6.70025 3.37524 7.89996 3.08716 9.09019 2.75738C9.40859 2.66831 9.65308 2.6323 9.85777 2.92985C9.86156 2.93933 9.86725 2.94691 9.87862 2.9507C9.93358 3.01704 9.98665 3.08337 10.0416 3.14971C10.4472 3.56667 10.849 3.98742 11.2641 4.39679C11.3948 4.52567 11.3759 4.59959 11.2546 4.71709C10.5249 5.41834 9.80281 6.12718 9.07882 6.83601C8.96699 6.94404 8.86844 7.06723 8.7642 7.18284C8.68649 7.13736 8.59363 7.10703 8.53108 7.04638C7.91512 6.43042 7.30674 5.81067 6.69457 5.19091C6.28519 4.77585 5.87391 4.36457 5.47212 3.94382C5.42284 3.89265 5.42473 3.79599 5.40199 3.71829C5.43611 3.70502 5.47022 3.68796 5.50623 3.68038H5.50434ZM2.69175 9.69976C2.58183 9.60121 2.5515 9.5235 2.59699 9.36619C2.86233 8.46404 3.10871 7.55621 3.36078 6.64838C3.47071 6.25037 3.57874 5.85236 3.69056 5.45625C3.70383 5.40887 3.73036 5.36717 3.76069 5.30463C4.18902 5.74623 4.5984 6.16698 5.00777 6.58962C5.06653 6.65027 5.1177 6.72229 5.17645 6.78294C5.76778 7.39322 6.3591 8.00349 6.95422 8.60998C7.07931 8.73696 7.09068 8.82794 6.95043 8.95871C6.56 9.32071 6.17526 9.69028 5.80189 10.0693C5.36029 10.5166 4.93196 10.9791 4.49795 11.4358C4.38613 11.3638 4.25725 11.3088 4.16438 11.216C3.79859 10.854 3.44418 10.4787 3.08408 10.1091C2.9552 9.97268 2.8339 9.82674 2.69365 9.70166L2.69175 9.69976ZM3.5939 20.6999C3.44039 20.0972 3.30203 19.54 3.1561 18.9866C2.94572 18.1868 2.73155 17.3889 2.52307 16.5891C2.5117 16.5436 2.53634 16.4678 2.57235 16.4318C3.0348 15.9712 3.50293 15.5163 3.96538 15.0558C4.07151 14.9516 4.15301 14.8189 4.26862 14.7317C4.32548 14.69 4.4752 14.6843 4.5169 14.726C5.30912 15.5145 6.08808 16.3161 6.8803 17.1065C7.04709 17.2714 7.02813 17.3699 6.86893 17.5253C5.82464 18.5412 4.78982 19.5665 3.75121 20.5881C3.70572 20.6317 3.64697 20.662 3.59201 20.6999H3.5939ZM11.0973 21.8049C10.6955 22.1991 10.2975 22.5971 9.89757 22.9932C9.78765 23.1107 9.68909 23.2472 9.56021 23.3419C9.46545 23.412 9.31383 23.4822 9.21338 23.4556C8.49128 23.2699 7.77487 23.0576 7.05656 22.8548C6.48798 22.6956 5.9194 22.5383 5.35271 22.381C5.30723 22.3564 5.26364 22.3298 5.19351 22.29C5.31291 22.1669 5.42663 22.0437 5.54793 21.9262C6.01416 21.4694 6.48609 21.0183 6.94853 20.5559C7.44888 20.0555 7.94355 19.5476 8.43253 19.0359C8.56899 18.8937 8.6448 18.9089 8.78126 19.0529C9.27403 19.5741 9.78954 20.0726 10.2918 20.5843C10.5723 20.8686 10.8357 21.1718 11.1257 21.4466C11.2887 21.6002 11.2129 21.6911 11.0973 21.8049ZM12.7954 20.0176C12.062 19.2633 11.2925 18.4692 10.523 17.677C10.4169 17.5936 10.3088 17.5102 10.1724 17.404C10.1667 17.3889 10.1648 17.3718 10.161 17.3567C10.4226 17.1103 10.6329 16.9245 10.83 16.7274C11.4631 16.0925 12.0942 15.4576 12.7158 14.8132C12.8637 14.6597 12.9565 14.6919 13.0797 14.8246C13.2086 14.9629 13.347 15.0918 13.4796 15.2245C14.16 15.9428 14.8404 16.6592 15.4848 17.3415C14.5884 18.2342 13.6919 19.1287 12.7935 20.0214L12.7954 20.0176ZM14.2567 21.6457C14.2567 21.6457 14.2567 21.6513 14.2567 21.6551C14.2567 21.6513 14.2567 21.6475 14.2567 21.6457ZM14.2567 21.676C14.2567 21.676 14.2605 21.6892 14.2624 21.6949C14.2624 21.6892 14.2586 21.6817 14.2567 21.676ZM14.2662 21.7101C14.2719 21.7215 14.2775 21.7347 14.287 21.748C14.2775 21.7347 14.2719 21.7234 14.2662 21.7101Z" fill="white"/>
<path id="Vector_26" d="M32.5327 12.4792V12.7427C33.0444 12.7427 33.5429 12.7559 34.0413 12.7351C34.21 12.7294 34.3787 12.6479 34.5436 12.591C35.0079 12.4337 35.1804 11.8197 35.0799 11.4292C34.9169 10.8057 34.5151 10.4873 33.8518 10.4835C33.4197 10.4816 32.9856 10.4854 32.5535 10.4873L32.4739 10.2826C32.5459 10.2561 32.6161 10.2068 32.6881 10.2049C33.1031 10.1973 33.5163 10.1973 33.9314 10.2049C34.0129 10.2049 34.0925 10.2561 34.1721 10.2864C34.2631 10.3205 34.3597 10.3489 34.445 10.3925C34.5663 10.4551 34.7028 10.51 34.7956 10.6048C35.1273 10.9365 35.3471 11.3288 35.2941 11.8178C35.2789 11.9656 35.2259 12.1229 35.1425 12.2442C34.9472 12.5304 34.7653 12.8393 34.3502 12.8697C34.1683 12.8829 33.9901 13.0345 33.8139 13.0289C33.3401 13.0118 32.8473 13.0649 32.4057 12.8374C32.3204 12.7938 32.2863 12.6479 32.1953 12.4925C32.3697 12.483 32.4531 12.4792 32.5384 12.4754L32.5327 12.4792Z" fill="white"/>
<path id="Vector_27" d="M39.2755 16.7445C39.2511 16.7257 39.2266 16.705 39.2021 16.6861C39.2266 16.6749 39.2511 16.6617 39.2755 16.6504C39.2755 16.6824 39.2755 16.7125 39.2755 16.7445Z" fill="white"/>
<path id="Vector_28" d="M39.2755 16.555L39.2021 16.4967C39.2266 16.4854 39.2511 16.4722 39.2755 16.4609C39.2755 16.4929 39.2755 16.523 39.2755 16.555Z" fill="white"/>
<path id="Vector_29" d="M58.4182 8.82993C58.4182 11.544 58.4182 14.258 58.4182 16.972C58.4182 17.1274 58.4542 17.2828 58.4618 17.4401C58.4751 17.7396 58.4277 17.7851 58.1301 17.787C58.0505 17.787 57.9728 17.787 57.8932 17.787C57.4838 17.787 57.0726 17.787 56.6632 17.787C56.4073 17.787 56.2993 17.6562 56.3391 17.4041C56.358 17.2809 56.377 17.1559 56.377 17.0308C56.3789 14.4513 56.3789 11.8718 56.377 9.29238C56.377 9.082 56.3391 8.86973 56.3372 8.65936C56.3372 8.60629 56.413 8.50774 56.4528 8.50774C57.0972 8.49826 57.7416 8.50015 58.4144 8.50015V8.82993H58.4182Z" fill="white"/>
</g>
<defs>
<clipPath id="clip0_2111_339">
<rect width="68.9879" height="25.7321" fill="white" transform="translate(0.0439453 0.248047)"/>
</clipPath>
</defs>
</svg>
