<svg width="40" height="40" viewBox="0 0 40 40" fill="none" xmlns="http://www.w3.org/2000/svg">
<g id="Premium" clip-path="url(#clip0_1958_1230)">
<g id="Group">
<g id="Group_2">
<path id="Vector" fill-rule="evenodd" clip-rule="evenodd" d="M19.9899 9.98438C18.0152 9.98438 16.0849 10.5699 14.4431 11.667C12.8012 12.764 11.5215 14.3233 10.7659 16.1477C10.0102 17.972 9.81247 19.9795 10.1977 21.9162C10.5829 23.8529 11.5338 25.6319 12.9301 27.0282C14.3264 28.4245 16.1054 29.3754 18.0421 29.7606C19.9788 30.1458 21.9863 29.9481 23.8106 29.1925C25.635 28.4368 27.1943 27.1571 28.2913 25.5152C29.3884 23.8734 29.9739 21.9431 29.9739 19.9684C29.9739 17.3205 28.922 14.781 27.0497 12.9086C25.1773 11.0363 22.6378 9.98438 19.9899 9.98438ZM24.5576 19.1073L20.1022 23.5627C19.8339 23.8256 19.4732 23.9729 19.0976 23.9729C18.7219 23.9729 18.3612 23.8256 18.0929 23.5627L15.4097 20.8919C15.146 20.6215 14.9983 20.2588 14.9983 19.881C14.9983 19.5033 15.146 19.1406 15.4097 18.8702C15.542 18.7366 15.6995 18.6306 15.873 18.5582C16.0465 18.4858 16.2326 18.4486 16.4206 18.4486C16.6086 18.4486 16.7947 18.4858 16.9682 18.5582C17.1418 18.6306 17.2992 18.7366 17.4315 18.8702L19.0913 20.5425L22.5483 17.0855C22.8164 16.8191 23.1794 16.67 23.5574 16.6712C23.9353 16.6724 24.2974 16.8237 24.5638 17.0918C24.8303 17.3599 24.9793 17.7228 24.9781 18.1008C24.977 18.4788 24.8257 18.8408 24.5576 19.1073Z" fill="#3B5AFB"/>
<path id="Vector_2" fill-rule="evenodd" clip-rule="evenodd" d="M35.9268 13.7288C35.7274 13.4311 35.5914 13.0954 35.5275 12.7429L34.4167 7.2766C34.303 6.72815 34.0307 6.22521 33.6335 5.83026C33.2364 5.43532 32.7319 5.16578 32.1828 5.05515L26.8289 3.94443C26.471 3.87144 26.1314 3.72714 25.8305 3.52011L21.2877 0.487456C20.8202 0.169827 20.268 0 19.7028 0C19.1375 0 18.5853 0.169827 18.1178 0.487456L13.5751 3.52011C13.2709 3.72961 12.9268 3.87407 12.5642 3.94443L7.22273 5.05515C6.67657 5.17104 6.17632 5.44436 5.78376 5.84136C5.39119 6.23836 5.12351 6.74165 5.01376 7.28908L3.90304 12.7553C3.81873 13.1018 3.67518 13.4312 3.47872 13.7288L0.458547 18.4088C0.159181 18.874 0 19.4156 0 19.9688C0 20.522 0.159181 21.0636 0.458547 21.5288L3.47872 26.2088C3.66774 26.512 3.80285 26.8455 3.87808 27.1947L4.9888 32.661C5.09141 33.2209 5.35885 33.7373 5.75685 34.1442C6.15485 34.5511 6.66528 34.8299 7.22273 34.9449L12.5642 36.0556C12.9268 36.1259 13.2709 36.2704 13.5751 36.4799L18.1178 39.5125C18.5853 39.8302 19.1375 40 19.7028 40C20.268 40 20.8202 39.8302 21.2877 39.5125L25.8305 36.4799C26.1314 36.2729 26.471 36.1286 26.8289 36.0556L32.1828 34.9449C32.729 34.829 33.2292 34.5556 33.6218 34.1586C34.0144 33.7616 34.282 33.2583 34.3918 32.7109L35.5025 27.2447C35.5673 26.8727 35.7121 26.5193 35.9268 26.2088L38.972 21.5288C39.2706 21.0679 39.4296 20.5305 39.4296 19.9813C39.4296 19.4321 39.2706 18.8946 38.972 18.4338L35.9268 13.7288ZM19.9898 32.7983C17.4524 32.7983 14.9719 32.0458 12.8621 30.6361C10.7523 29.2264 9.10795 27.2227 8.13692 24.8784C7.16588 22.5341 6.91182 19.9546 7.40684 17.4659C7.90187 14.9772 9.12376 12.6912 10.918 10.897C12.7122 9.10275 14.9982 7.88086 17.4869 7.38583C19.9756 6.8908 22.5552 7.14487 24.8994 8.1159C27.2437 9.08694 29.2474 10.7313 30.6571 12.8411C32.0669 14.9509 32.8193 17.4314 32.8193 19.9688C32.8127 23.3694 31.4589 26.6288 29.0543 29.0333C26.6498 31.4379 23.3904 32.7917 19.9898 32.7983Z" fill="#43CEEF"/>
</g>
</g>
</g>
<defs>
<clipPath id="clip0_1958_1230">
<rect width="40" height="40" fill="white"/>
</clipPath>
</defs>
</svg>
