<svg width="40" height="40" viewBox="0 0 40 40" fill="none" xmlns="http://www.w3.org/2000/svg">
<g id="Professional">
<g id="Bag 2">
<path id="Fill 4" d="M27.7008 36.668H12.2998C7.81571 36.668 4.16699 33.0531 4.16699 28.6089V19.727C4.16699 15.2829 7.81571 11.668 12.2998 11.668H27.7008C32.1849 11.668 35.8337 15.2829 35.8337 19.727V28.6089C35.8337 33.0531 32.1849 36.668 27.7008 36.668Z" fill="#43CEEF"/>
<path id="Fill 1" opacity="0.75" d="M26.2586 16.6673C25.5733 16.6673 25.0171 16.1279 25.0171 15.4632V10.5955C25.0171 7.91917 22.7726 5.74217 20.0149 5.74217C18.7453 5.74217 17.4128 6.23665 16.4644 7.14695C15.5142 8.06045 14.9879 9.27579 14.9829 10.573V15.4632C14.9829 16.1279 14.4267 16.6673 13.7414 16.6673C13.0562 16.6673 12.5 16.1279 12.5 15.4632V10.5955C12.5083 8.62236 13.2962 6.80177 14.7164 5.43874C16.135 4.0725 17.969 3.38696 20.0199 3.33398C24.1415 3.33398 27.5 6.59146 27.5 10.5955V15.4632C27.5 16.1279 26.9438 16.6673 26.2586 16.6673Z" fill="#3B5AFB"/>
</g>
</g>
</svg>
