<svg width="102" height="23" viewBox="0 0 102 23" fill="none" xmlns="http://www.w3.org/2000/svg">
<g id="Layer_1" style="mix-blend-mode:luminosity" opacity="0.7" clip-path="url(#clip0_2111_540)">
<path id="Vector" d="M7.62295 18.6382C7.61239 18.5044 7.60535 18.3706 7.59479 18.2333C7.59479 18.1734 7.59831 18.1171 7.60183 18.0572C7.60183 17.9692 7.60183 17.8812 7.60535 17.7932C7.60535 17.7615 7.60535 17.7333 7.60535 17.7016C7.60183 16.7932 7.59479 15.8848 7.59126 14.9728C7.57366 14.9411 7.55605 14.9095 7.54197 14.8778C7.45747 13.5222 6.82721 13.0539 5.63359 12.9694C4.65828 12.899 3.67592 12.9623 2.69708 12.9694C2.63018 12.98 2.56681 12.9905 2.49991 13.0046L2.48582 13.0116C2.47174 13.0504 2.45765 13.0891 2.44357 13.1278V18.7192H0V4.35352C1.92246 4.35352 3.84845 4.35352 5.77443 4.35352C5.80612 4.35352 5.84133 4.35352 5.87302 4.35704C6.87298 4.52604 7.86942 4.66688 8.7215 5.30771C9.45387 5.85698 9.91864 6.5647 9.99258 7.45551C10.0489 8.16323 10.0208 8.8956 9.90456 9.59628C9.73203 10.6314 9.04544 11.2793 8.07364 11.6349C7.97857 11.6701 7.88703 11.7124 7.799 11.7582C7.77436 11.7687 7.76027 11.8004 7.70042 11.8779C7.80252 11.9413 7.89055 12.0328 7.99618 12.061C9.31655 12.4307 9.85174 13.0328 9.9116 14.3496C9.97498 15.7052 9.9785 17.0643 10.0031 18.4234C10.0031 18.4938 9.98906 18.5643 9.97498 18.684C9.19684 18.684 8.43982 18.684 7.68281 18.684C7.67577 18.6523 7.65464 18.6347 7.62295 18.6382ZM4.0245 10.7758C4.4611 10.7758 4.90122 10.7723 5.33783 10.7688C5.36952 10.7688 5.40121 10.7688 5.4329 10.7652C6.92228 10.6631 7.62295 9.8181 7.45747 8.31111C7.35888 7.40974 6.8765 6.81469 5.99978 6.7161C4.92235 6.59639 3.83084 6.58935 2.74285 6.52949C2.43301 6.51189 2.43301 6.71258 2.43301 6.93441C2.43301 7.84282 2.43301 8.74772 2.43301 9.65613C2.43301 10.047 2.43301 10.4343 2.43301 10.8498C2.7006 10.8357 2.9013 10.8251 3.10552 10.8145C3.23227 10.8075 3.36255 10.8005 3.48931 10.7899L3.83436 10.7829C3.89422 10.7829 3.9576 10.7829 4.01745 10.7829L4.0245 10.7758Z" fill="white"/>
<path id="Vector_2" d="M31.0375 22.8715C30.953 22.8715 30.872 22.8715 30.7875 22.8715C30.7523 22.8715 30.7171 22.8715 30.6854 22.8715C30.2488 22.8715 29.8157 22.8715 29.3791 22.8715C29.3439 22.8715 29.3087 22.8715 29.277 22.8715C29.2242 22.8715 29.1678 22.8715 29.115 22.8715C29.0516 22.8715 28.9883 22.8715 28.9284 22.8715C28.8439 22.8715 28.7594 22.8715 28.6749 22.8715C28.6115 22.8715 28.5517 22.8715 28.4883 22.8715C28.432 22.8715 28.3756 22.875 28.3193 22.8785C28.2242 22.8609 28.1291 22.8398 28.0376 22.8222C28.0165 22.2307 27.9989 21.6391 27.9777 21.0476C28.3263 20.9666 28.6749 20.8821 29.02 20.8011C29.0798 20.8011 29.1397 20.8011 29.1995 20.8011C29.3263 20.8258 29.4495 20.8716 29.5763 20.8716C30.5586 20.8786 31.541 20.8786 32.5198 20.8716C32.6466 20.8716 32.7698 20.8258 32.8931 20.8011C34.3015 20.604 34.3507 20.03 34.4634 18.9421C34.5233 18.3787 34.474 17.8013 34.474 17.1217C34.312 17.2309 34.1782 17.2731 34.1148 17.3647C33.3015 18.5442 32.1466 18.8294 30.7981 18.6745C29.0235 18.4702 27.9285 17.4421 27.2771 15.8471C26.9567 15.0584 26.77 14.2345 26.8264 13.393C26.9531 11.5198 27.6644 9.92127 29.4037 9.03398C30.8192 8.31217 33.3754 8.37907 34.393 10.1607C34.4036 10.1818 34.4352 10.1924 34.5303 10.2558V8.86849C35.3225 8.90722 36.0549 8.94595 36.7908 8.98116C36.7838 9.06919 36.7697 9.15721 36.7697 9.24172C36.7697 12.3613 36.7697 15.4774 36.7697 18.597C36.7697 18.7132 36.7908 18.8294 36.8049 18.9456C36.8049 18.9984 36.8049 19.0512 36.8049 19.104C36.8049 19.1392 36.8049 19.178 36.8049 19.2132C36.8049 19.266 36.8014 19.3188 36.7978 19.3716C36.7978 19.435 36.7943 19.4984 36.7908 19.5618C36.4704 21.7624 35.1571 22.5933 33.3402 22.8961C33.1994 22.9208 33.0515 22.8785 32.9071 22.868C32.8719 22.868 32.8402 22.8715 32.805 22.875C32.4881 22.875 32.1677 22.875 31.8508 22.8715C31.8156 22.8715 31.7804 22.8715 31.7487 22.8715C31.548 22.8715 31.3473 22.8715 31.1466 22.8715C31.1114 22.8715 31.0762 22.8715 31.0445 22.8715H31.0375ZM31.8825 10.8543C30.8333 10.7029 30.122 11.2029 29.6749 12.0902C29.1995 13.0373 29.1502 14.0056 29.5375 15.0302C30.1467 16.6499 32.2734 16.9703 33.4987 16.0478C34.5585 15.2521 34.6183 13.2627 34.1888 12.1888C33.7803 11.1677 32.9811 10.7276 31.8825 10.8543Z" fill="white"/>
<path id="Vector_3" d="M48.9418 8.9922C48.6002 7.96407 48.0791 7.05918 47.0193 6.71412C44.8962 6.02048 42.6181 6.36906 41.523 8.7739C41.2449 9.39008 41.0759 10.0872 41.016 10.7597C40.8893 12.1646 41.0336 13.5449 41.8012 14.7913C42.6991 16.2525 44.6039 16.9743 46.2553 16.5412C47.4876 16.2208 48.3749 15.5694 48.808 14.3406C48.8467 14.2314 49.0298 14.1117 49.1495 14.1082C49.7058 14.0836 50.2622 14.1047 50.822 14.0941C51.1952 14.0871 51.2692 14.2455 51.1847 14.5906C50.5755 17.0025 48.9805 18.3334 46.6003 18.851C43.4772 19.5305 40.1252 17.851 39.0126 14.6434C38.5091 13.1892 38.3788 11.7034 38.5654 10.2457C38.9246 7.42536 40.6041 4.85151 43.9948 4.24238C44.9771 4.06633 45.956 4.12267 46.9348 4.31984C48.1777 4.56983 49.2622 5.09094 50.0861 6.06978C50.7269 6.83383 51.0755 7.73521 51.2163 8.71757C51.2269 8.79855 51.0649 8.98164 50.9769 8.98516C50.3044 9.00629 49.6284 8.99924 48.9453 8.99924L48.9418 8.9922Z" fill="white"/>
<path id="Vector_4" d="M95.141 18.4104V17.3787C95.1022 17.3646 95.0635 17.347 95.0248 17.3329C94.9262 17.4421 94.8205 17.5477 94.7325 17.6674C93.7114 19.0089 91.5073 19.3786 90.0109 18.3435C88.9757 17.6287 88.6377 16.5689 88.8208 15.3858C89.0144 14.1535 89.8559 13.4598 91.0284 13.1324C92.1129 12.8296 93.2185 12.8718 94.3276 12.9141C94.3628 12.9141 94.398 12.9141 94.4332 12.9141C94.5459 12.9141 94.6586 12.9141 94.7713 12.9176C94.8346 12.9071 94.898 12.8965 94.9579 12.8859C95.2043 11.6325 94.5459 10.6677 93.391 10.5832C92.5389 10.5198 91.8347 10.7381 91.4228 11.5832C91.3453 11.7416 91.0742 11.8719 90.877 11.8895C90.3982 11.9317 89.9088 11.8895 89.4264 11.9071C89.0567 11.9177 88.9968 11.7416 89.0884 11.4388C89.5144 10.0621 90.3876 9.16775 91.8136 8.81918C92.9263 8.54454 94.0178 8.61848 95.1057 8.91776C96.0564 9.18184 97.2641 10.4283 97.2606 11.4916C97.2536 13.7134 97.3521 15.9351 97.4014 18.1569C97.4014 18.2097 97.3592 18.2625 97.3381 18.3153C97.3029 18.4315 97.2676 18.5477 97.2324 18.6604C97.0317 18.6604 96.8275 18.6604 96.6268 18.6568C96.567 18.6568 96.5071 18.6568 96.4437 18.6568C96.3874 18.6568 96.3311 18.6568 96.2747 18.6568C96.2149 18.6568 96.155 18.6568 96.0916 18.6568C96.0353 18.6568 95.979 18.6568 95.9191 18.6568C95.6585 18.5759 95.398 18.4949 95.1374 18.4139L95.141 18.4104ZM95.0107 14.7098C94.0283 14.7098 93.0777 14.6746 92.134 14.7239C91.6517 14.7485 91.2467 15.252 91.1658 15.7238C91.0918 16.1675 91.3242 16.6323 91.7678 16.8963C92.1763 17.1393 92.6023 17.1991 93.0847 17.1041C94.4755 16.8294 94.9403 16.0196 95.0107 14.7098Z" fill="white"/>
<path id="Vector_5" d="M61.8497 14.4248C61.7089 14.4142 61.5645 14.4036 61.4237 14.3931C61.3885 14.3931 61.3533 14.3896 61.318 14.386C61.2371 14.386 61.1526 14.386 61.0716 14.386C61.0364 14.386 61.0012 14.386 60.9659 14.386C59.2407 14.3896 57.5154 14.3931 55.7901 14.3966C55.7549 14.3966 55.7161 14.3966 55.6809 14.3931C55.3781 14.4213 55.0753 14.4459 54.7725 14.4741C54.6563 15.6149 55.5401 16.7345 56.5858 16.9599C57.7689 17.2134 59.209 16.8754 59.5047 15.7698H61.8004C61.4483 17.1606 60.6068 18.0056 59.3991 18.4986C57.6492 19.2133 55.945 19.1922 54.3641 18.0338C53.4275 17.3472 52.8923 16.3895 52.6071 15.2804C52.512 14.9036 52.4064 14.5304 52.3466 14.1466C52.0367 12.1326 53.5719 9.54115 55.5295 8.92498C57.4168 8.32993 59.2019 8.58344 60.6596 10.0165C61.5082 10.851 61.9061 11.9319 61.9342 13.1326C61.9413 13.5128 61.9413 13.8966 61.9448 14.2769C61.9131 14.3262 61.8779 14.379 61.8462 14.4283L61.8497 14.4248ZM57.7055 12.7312C57.7407 12.7312 57.7759 12.7312 57.8111 12.7312C57.8921 12.7312 57.9766 12.7312 58.0576 12.7312C58.0928 12.7312 58.128 12.7312 58.1632 12.7312C58.2442 12.7312 58.3287 12.7312 58.4097 12.7312C58.4449 12.7312 58.4801 12.7312 58.5153 12.7312C58.5963 12.7312 58.6808 12.7312 58.7618 12.7312C58.8252 12.7312 58.8886 12.7277 58.9519 12.7241C59.0048 12.7241 59.0611 12.7171 59.1139 12.7136C59.1491 12.7136 59.1808 12.7136 59.216 12.71C59.3005 12.7171 59.385 12.7241 59.4695 12.7312C59.5611 12.7206 59.6491 12.7065 59.7406 12.696C59.8216 12.0375 59.4801 11.5833 59.0153 11.1855C58.452 10.6996 57.783 10.6503 57.0753 10.6644C55.9274 10.689 54.9908 11.4073 54.7338 12.5234C54.7232 12.5763 54.7831 12.6432 54.8077 12.703C54.9873 12.71 55.1669 12.7136 55.3429 12.7206C55.4274 12.7206 55.5084 12.7277 55.5929 12.7277H55.6985C55.7795 12.7277 55.864 12.7277 55.945 12.7277C55.9802 12.7277 56.0154 12.7277 56.0506 12.7277C56.1035 12.7277 56.1563 12.7277 56.2091 12.7277C56.2725 12.7277 56.3358 12.7277 56.3992 12.7277C56.452 12.7277 56.5048 12.7277 56.5612 12.7277C56.6246 12.7277 56.6879 12.7277 56.7513 12.7277C56.8041 12.7277 56.8569 12.7277 56.9133 12.7277H57.1034C57.1562 12.7277 57.209 12.7277 57.2654 12.7277C57.3288 12.7277 57.3921 12.7277 57.4555 12.7277H57.702L57.7055 12.7312Z" fill="white"/>
<path id="Vector_6" d="M23.0136 17.6216C23.0136 16.097 23.0136 14.5689 23.0136 13.0443C22.9924 13.0126 22.9713 12.9774 22.9502 12.9457C22.9959 12.2521 22.8199 11.6394 22.2601 11.1922C21.5242 10.6007 20.6756 10.6078 19.8623 10.9106C19.0454 11.2169 18.6968 11.9563 18.651 12.7872C18.5982 13.7379 18.644 14.6921 18.6264 15.6428C18.6123 16.5758 18.5771 17.5054 18.5384 18.4384C18.5348 18.5476 18.4327 18.7448 18.3799 18.7448C17.6687 18.7377 16.961 18.706 16.2497 18.6779C16.2427 18.6497 16.2321 18.618 16.2251 18.5898L16.2356 18.3258C16.2356 18.2659 16.2356 18.2096 16.2356 18.1497C16.2356 15.3224 16.2427 12.495 16.2356 9.66765C16.2356 9.42118 16.1969 9.17823 16.1758 8.93176C16.2004 8.91767 16.2251 8.90007 16.2497 8.88599C16.3377 8.88599 16.4258 8.88246 16.5138 8.87894C16.5455 8.87894 16.5737 8.87894 16.6053 8.87894C16.6617 8.87894 16.7215 8.87894 16.7779 8.87894C16.8096 8.87894 16.8377 8.87894 16.8694 8.87894C17.2779 8.87894 17.6898 8.87894 18.0982 8.87894C18.1299 8.87894 18.1581 8.87894 18.1898 8.87542C18.4081 9.01626 18.4926 9.17119 18.401 9.45639C18.3306 9.67469 18.387 9.93524 18.4785 10.2416C18.644 10.055 18.7919 9.85426 18.9785 9.68877C19.9292 8.83317 21.0348 8.48459 22.3023 8.7205C22.7389 8.80148 23.1931 8.8543 23.5945 9.0233C24.4572 9.38949 24.9466 10.1007 25.1508 11.0021C25.2353 11.3789 25.2705 11.7662 25.3268 12.1464C25.3445 12.238 25.3621 12.3295 25.3832 12.4211C25.3832 14.4139 25.3832 16.4068 25.3832 18.3997C25.3797 18.442 25.3726 18.4842 25.3691 18.53C25.2107 18.6039 25.0522 18.7483 24.8973 18.7448C24.2635 18.7307 23.6297 18.6744 22.9713 18.6286C22.9889 18.4666 23.003 18.3011 23.0206 18.1392C23.0206 17.9631 23.0206 17.7871 23.0171 17.611L23.0136 17.6216Z" fill="white"/>
<path id="Vector_7" d="M72.7896 18.6995C72.6981 18.7136 72.603 18.7312 72.5114 18.7453C72.4762 18.7453 72.441 18.7382 72.4093 18.7347C71.8565 18.7277 71.3037 18.7241 70.7545 18.7171C70.7157 18.7136 70.677 18.7101 70.6383 18.703C70.5855 18.696 70.5362 18.6889 70.4833 18.6819C70.4552 18.6502 70.4305 18.615 70.4024 18.5833C70.4024 16.6644 70.427 14.7454 70.3812 12.8265C70.3531 11.6469 69.8742 11.0801 69.0433 10.8054C67.6806 10.3547 66.4377 11.0625 66.1455 12.4709C66.0715 12.823 66.0046 13.1821 66.0046 13.5377C65.9976 15.1926 66.0187 16.8475 66.0258 18.5023C65.9554 18.5868 65.8814 18.6713 65.811 18.7523H63.7266V8.91113H65.811V10.2104C65.9976 10.0907 66.1384 10.0379 66.2229 9.94278C67.3814 8.64706 68.8179 8.42876 70.4235 8.83015C71.7051 9.15056 72.5255 10.2773 72.691 11.6681C72.9657 13.9426 72.7931 16.2207 72.8459 18.4953C72.8248 18.5622 72.8072 18.6291 72.7861 18.696L72.7896 18.6995Z" fill="white"/>
<path id="Vector_8" d="M75.5394 8.72368C75.5394 8.67086 75.5358 8.61452 75.5323 8.56171C75.5323 8.47016 75.5323 8.3751 75.5323 8.28355C75.5288 7.75892 75.5253 7.23781 75.5218 6.71319C75.5323 6.70262 75.5499 6.68854 75.5464 6.6815C75.5394 6.65685 75.5253 6.63572 75.5147 6.61108V6.25898C76.2189 6.25898 76.9161 6.24489 77.6132 6.27658C77.7048 6.2801 77.8597 6.49841 77.8632 6.62516C77.8879 7.29767 77.8738 7.97018 77.8738 8.64269C77.8667 8.64973 77.8491 8.66382 77.8491 8.66734C77.8562 8.68847 77.8667 8.70607 77.8773 8.72368V8.7272C77.8984 8.76593 77.9196 8.80466 77.9407 8.84339C78.74 8.84339 79.5357 8.85043 80.335 8.85043C80.3667 8.85043 80.3983 8.85395 80.43 8.85747C80.4723 8.86804 80.5145 8.88212 80.5533 8.89268C80.5709 8.92437 80.585 8.95958 80.6026 8.99127V10.8011C79.754 10.8011 78.9406 10.8011 78.1273 10.8011C77.7435 10.7729 77.7048 10.8539 77.8562 11.3715C77.8562 12.632 77.8562 13.896 77.8562 15.1565C77.8456 15.1636 77.828 15.1777 77.828 15.1812C77.8351 15.2023 77.8456 15.2234 77.8562 15.2446V15.4206C77.8562 15.4206 77.8315 15.4417 77.8315 15.4453C77.8386 15.4664 77.8527 15.4875 77.8632 15.5051C78.0005 16.1459 78.6238 16.6213 79.3667 16.6459C79.673 16.6565 79.9864 16.6177 80.2892 16.6635C80.4054 16.6811 80.5814 16.8537 80.5885 16.9628C80.6202 17.4593 80.6131 17.9592 80.5885 18.4557C80.585 18.5543 80.4652 18.7303 80.3983 18.7303C79.254 18.7656 78.0886 18.8782 77.0358 18.2797C76.1555 17.7797 75.6239 17.0121 75.5851 15.991C75.5323 14.5404 75.5429 13.0897 75.5253 11.6391C75.5253 11.6038 75.5253 11.5686 75.5218 11.5334C75.5218 11.4208 75.5218 11.3116 75.5218 11.1989C75.5218 11.1637 75.5288 11.1285 75.5323 11.0933C75.4161 11.0053 75.3035 10.8574 75.1767 10.8468C74.8457 10.8151 74.5042 10.8644 74.1732 10.8292C74.05 10.8151 73.8458 10.6567 73.8387 10.5546C73.8035 10.0194 73.8246 9.48421 73.8246 8.9455C74.4021 8.8962 74.9443 8.85043 75.4866 8.80466C75.5042 8.77649 75.5218 8.74832 75.5394 8.72015V8.72368Z" fill="white"/>
<path id="Vector_9" d="M99.707 3.55859C99.7915 3.55859 99.8796 3.55859 99.9641 3.55859C99.9958 3.55859 100.027 3.55859 100.059 3.55859C100.144 3.55859 100.232 3.55859 100.316 3.55859C100.718 3.61493 101.122 3.66774 101.524 3.72408C101.524 3.78042 101.527 3.83323 101.531 3.88957C101.531 3.97759 101.531 4.06914 101.531 4.15716C101.531 8.87882 101.534 13.6005 101.538 18.3256C101.517 18.3609 101.492 18.3961 101.471 18.4313C101.485 18.6637 101.397 18.7799 101.144 18.7728C100.517 18.7587 99.8901 18.7587 99.2634 18.7517C99.2423 18.6989 99.2211 18.6461 99.2 18.5932C99.2 18.4172 99.1965 18.2376 99.193 18.0616C99.193 17.7412 99.193 17.4172 99.1895 17.0968C99.1895 16.9489 99.1895 16.8011 99.1895 16.6532C99.1895 16.5652 99.1895 16.4771 99.1895 16.3926C99.1895 16.3046 99.1895 16.2166 99.1895 16.1285C99.2 16.1215 99.2176 16.1074 99.2176 16.1039C99.2106 16.0828 99.2 16.0616 99.1895 16.0405C99.1895 15.9525 99.1895 15.8645 99.1895 15.7764C99.2 15.7694 99.2176 15.7553 99.2176 15.7518C99.2106 15.7307 99.2 15.7095 99.1895 15.6884C99.1895 15.6004 99.1895 15.5124 99.1895 15.4243C99.2 15.4173 99.2176 15.4032 99.2176 15.3997C99.2106 15.3786 99.2 15.3574 99.1895 15.3363C99.1895 15.2483 99.1895 15.1603 99.1895 15.0722C99.2 15.0652 99.2176 15.0511 99.2176 15.0476C99.2106 15.0265 99.2 15.0053 99.1895 14.9842C99.1895 14.8962 99.1895 14.8082 99.1895 14.7201C99.2 14.7131 99.2176 14.699 99.2176 14.6955C99.2106 14.6744 99.2 14.6532 99.1895 14.6321C99.1895 14.5441 99.1895 14.4561 99.1895 14.368C99.2 14.361 99.2176 14.3469 99.2176 14.3434C99.2106 14.3223 99.2 14.3011 99.1895 14.28C99.1895 14.192 99.1895 14.104 99.1895 14.0159C99.2 14.0089 99.2176 13.9948 99.2176 13.9913C99.2106 13.9702 99.2 13.949 99.1895 13.9279C99.1895 13.8399 99.1895 13.7519 99.1895 13.6638C99.2 13.6568 99.2176 13.6427 99.2176 13.6392C99.2106 13.6181 99.2 13.597 99.1895 13.5758C99.1895 13.4878 99.1895 13.3998 99.1895 13.3117C99.2 13.3047 99.2176 13.2906 99.2176 13.2871C99.2106 13.266 99.2 13.2449 99.1895 13.2237C99.1895 13.1357 99.1895 13.0477 99.1895 12.9597C99.2 12.9526 99.2176 12.9385 99.2176 12.935C99.2106 12.9139 99.2 12.8928 99.1895 12.8716C99.1895 12.7836 99.1895 12.6956 99.1895 12.6076C99.2 12.6005 99.2176 12.5864 99.2176 12.5829C99.2106 12.5618 99.2 12.5407 99.1895 12.5195C99.1895 12.4315 99.1895 12.3435 99.1895 12.2555C99.2 12.2484 99.2176 12.2343 99.2176 12.2308C99.2106 12.2097 99.2 12.1886 99.1895 12.1674C99.1895 12.0794 99.1895 11.9914 99.1895 11.9034C99.2 11.8963 99.2176 11.8822 99.2176 11.8787C99.2106 11.8576 99.2 11.8365 99.1895 11.8153C99.1895 11.7273 99.1895 11.6393 99.1895 11.5513C99.2 11.5442 99.2176 11.5301 99.2176 11.5266C99.2106 11.5055 99.2 11.4844 99.1895 11.4632C99.1895 11.3752 99.1895 11.2872 99.1895 11.1992C99.2 11.1921 99.2176 11.178 99.2176 11.1745C99.2106 11.1534 99.2 11.1323 99.1895 11.1111C99.1895 11.0231 99.1895 10.9351 99.1895 10.8471C99.2 10.84 99.2176 10.8259 99.2176 10.8224C99.2106 10.8013 99.2 10.7802 99.1895 10.759C99.1895 10.671 99.1895 10.583 99.1895 10.495C99.2 10.4879 99.2176 10.4738 99.2176 10.4703C99.2106 10.4492 99.2 10.4281 99.1895 10.4069C99.1895 8.26616 99.1895 6.12188 99.1895 3.98111C99.2106 3.8614 99.2317 3.74169 99.2528 3.62549C99.3726 3.62549 99.4958 3.62549 99.6155 3.62549C99.6437 3.60437 99.6754 3.58324 99.7035 3.56211L99.707 3.55859Z" fill="white"/>
<path id="Vector_10" d="M82.2156 17.7976C82.2156 17.7096 82.2156 17.6216 82.2156 17.5335C82.2156 17.2413 82.2156 16.9455 82.2156 16.6533C82.2156 16.597 82.2156 16.5371 82.2156 16.4808C82.2262 16.4702 82.2438 16.4596 82.2438 16.4561C82.2403 16.435 82.2262 16.4139 82.2156 16.3892C82.2156 16.273 82.2156 16.1568 82.2156 16.0406C82.2156 15.7766 82.2156 15.5125 82.2156 15.2484C82.2156 15.1921 82.2156 15.1322 82.2156 15.0759C82.2262 15.0653 82.2438 15.0548 82.2438 15.0512C82.2367 15.0301 82.2262 15.009 82.2156 14.9843C82.2156 14.8681 82.2156 14.752 82.2156 14.6322C82.2156 14.3682 82.2156 14.1041 82.2156 13.84C82.2156 13.6358 82.2156 13.4281 82.2156 13.2238C82.2156 12.9598 82.2156 12.6957 82.2156 12.4316C82.2156 12.2274 82.2156 12.0197 82.2156 11.8154C82.2156 11.5514 82.2156 11.2873 82.2156 11.0232C82.2156 10.9669 82.2156 10.907 82.2156 10.8507C82.2262 10.8401 82.2438 10.8296 82.2438 10.826C82.2367 10.8049 82.2262 10.7838 82.2156 10.7591C82.2156 10.6711 82.2156 10.5831 82.2156 10.4951C82.2156 10.2028 82.2156 9.90707 82.2121 9.61482C82.2051 9.48455 82.1628 9.33667 82.2051 9.22399C82.2473 9.10428 82.3705 8.93175 82.4656 8.92823C83.0923 8.90006 83.7191 8.91415 84.4127 8.91415C84.374 9.37188 84.3353 9.78031 84.293 10.2909C84.469 10.2028 84.6099 10.1782 84.6627 10.0972C85.3247 9.07963 86.3 8.81556 87.4372 8.91062C87.5394 8.91767 87.6415 8.91062 87.8598 8.91062C87.8774 9.36835 87.9055 9.82256 87.9091 10.2733C87.9196 11.2063 87.9161 11.2063 86.9725 11.1993C85.462 11.1852 84.5324 12.0584 84.5078 13.5583C84.4796 15.1533 84.4902 16.7484 84.4831 18.3469C84.4831 18.53 84.5324 18.7518 84.2331 18.7518C84.1944 18.7518 84.1522 18.7448 84.1134 18.7448C83.5149 18.7448 82.9163 18.7412 82.3177 18.7377C82.279 18.6603 82.2367 18.5828 82.198 18.5089C82.205 18.4208 82.2086 18.3328 82.2156 18.2448C82.2191 18.0969 82.2227 17.9525 82.2262 17.8047L82.2156 17.7976Z" fill="white"/>
<path id="Vector_11" d="M11.8271 18.4146C11.8271 18.3266 11.8307 18.2385 11.8342 18.1505C11.8342 18.1223 11.8342 18.0907 11.8342 18.0625C11.8342 15.0696 11.8342 12.0768 11.8377 9.08395C11.8377 9.05578 11.8412 9.02409 11.8448 8.99592C12.1933 8.96423 12.5384 8.9255 12.887 8.90438C13.1581 8.88677 13.4327 8.89381 13.7038 8.89029C13.732 8.89029 13.7637 8.89029 13.7919 8.89029C13.8869 8.87621 13.9855 8.86565 14.0806 8.85156C14.1052 8.87269 14.1334 8.89734 14.158 8.91846C14.1616 8.97128 14.1686 9.02761 14.1721 9.08043C14.1616 9.16845 14.1475 9.25296 14.144 9.34098C14.144 12.1085 14.144 14.876 14.144 17.64C14.144 17.7562 14.1686 17.8724 14.1827 17.985C14.1827 18.0378 14.1827 18.0907 14.1827 18.1435C14.1827 18.2068 14.1827 18.2737 14.1827 18.3371C14.144 18.4604 14.1017 18.5871 14.063 18.7104C13.4996 18.7068 12.9398 18.6998 12.3764 18.6963C12.225 18.6963 12.0701 18.6963 11.9187 18.6963C11.894 18.6681 11.8694 18.6364 11.8448 18.6082L11.8271 18.5977C11.8271 18.5378 11.8271 18.4815 11.8271 18.4216V18.4146Z" fill="white"/>
<path id="Vector_12" d="M13.1303 0.970703C14.264 0.991829 15.2394 1.43547 16.1055 2.13263C16.19 2.19953 16.1971 2.48825 16.1231 2.5974C15.9471 2.86148 15.7041 3.0833 15.4823 3.31569C15.3168 3.49174 15.2112 3.44244 15.0246 3.284C14.0105 2.42135 12.1444 2.24178 10.9895 3.28752C10.905 3.36498 10.655 3.38963 10.5776 3.32625C10.3135 3.10091 10.0705 2.83683 9.86631 2.55867C9.79942 2.46713 9.8135 2.19953 9.88744 2.14672C10.8557 1.45308 11.912 0.981266 13.1303 0.970703Z" fill="white"/>
<path id="Vector_13" d="M14.5909 5.72101C14.5769 6.50267 13.8304 7.37236 13.1333 7.30546C12.3938 7.23152 11.4467 6.67168 11.496 5.68932C11.5382 4.86541 12.2072 4.11192 12.9995 4.16473C13.9079 4.22811 14.5628 4.72105 14.5945 5.72453L14.5909 5.72101Z" fill="white"/>
<path id="Vector_14" d="M36.8018 18.9488C36.7912 18.8326 36.7666 18.7164 36.7666 18.6002C36.7666 15.4806 36.7666 12.3645 36.7666 9.24493C36.7666 9.1569 36.7807 9.06888 36.7877 8.98438C36.8089 9.09705 36.8511 9.2062 36.8511 9.31887C36.8511 12.4314 36.8511 15.5405 36.8511 18.653C36.8511 18.7516 36.8194 18.8502 36.8018 18.9488Z" fill="white"/>
<path id="Vector_15" d="M14.1823 17.9808C14.1682 17.8646 14.1436 17.7484 14.1436 17.6357C14.1436 14.8682 14.1436 12.1007 14.1436 9.33673C14.1436 9.2487 14.1612 9.1642 14.1717 9.07617C14.1928 9.18884 14.2281 9.30152 14.2281 9.41419C14.2281 12.1711 14.2281 14.9281 14.2281 17.685C14.2281 17.7836 14.1964 17.8822 14.1823 17.9808Z" fill="white"/>
<path id="Vector_16" d="M32.8927 20.8008C32.7695 20.8254 32.6428 20.8712 32.5195 20.8712C31.5372 20.8782 30.5548 20.8782 29.576 20.8712C29.4492 20.8712 29.326 20.8254 29.1992 20.8008C30.4316 20.8008 31.6639 20.8008 32.8963 20.8008H32.8927Z" fill="white"/>
<path id="Vector_17" d="M29.0198 20.8053C28.6712 20.8862 28.3226 20.9707 27.9775 21.0517C28.0761 20.9637 28.1677 20.8123 28.2768 20.7947C28.5198 20.7595 28.7733 20.7947 29.0198 20.8017V20.8053Z" fill="white"/>
<path id="Vector_18" d="M101.528 3.72142C101.127 3.66508 100.722 3.61227 100.32 3.55593C100.651 3.54889 100.986 3.52776 101.317 3.54185C101.391 3.54185 101.458 3.65804 101.528 3.72142Z" fill="white"/>
<path id="Vector_19" d="M95.1406 18.4102C95.4012 18.4911 95.6617 18.5721 95.9223 18.6531C95.7533 18.6637 95.5737 18.7094 95.4188 18.6707C95.3132 18.6461 95.2322 18.5017 95.1441 18.4102H95.1406Z" fill="white"/>
<path id="Vector_20" d="M77.8597 11.3673C77.7083 10.8532 77.7435 10.7722 78.1308 10.7969C77.747 10.8462 77.923 11.1631 77.8597 11.3673Z" fill="white"/>
<path id="Vector_21" d="M99.1895 17.0938C99.1895 17.4142 99.1895 17.7381 99.193 18.0585C99.193 17.7381 99.193 17.4142 99.1895 17.0938Z" fill="white"/>
<path id="Vector_22" d="M82.2051 9.60742C82.2051 9.89966 82.2051 10.1954 82.2086 10.4877C82.2086 10.1954 82.2086 9.89966 82.2051 9.60742Z" fill="white"/>
<path id="Vector_23" d="M97.2324 18.6576C97.2676 18.5414 97.3028 18.4252 97.3381 18.3125C97.493 18.485 97.5176 18.6188 97.2324 18.6576Z" fill="white"/>
<path id="Vector_24" d="M65.8105 18.7558C65.881 18.6713 65.9549 18.5868 66.0253 18.5059C66.0218 18.5939 66.0183 18.6819 66.0148 18.7699C65.9479 18.7664 65.8774 18.7629 65.8105 18.7558Z" fill="white"/>
<path id="Vector_25" d="M23.0137 17.6211C23.0137 17.7971 23.0137 17.9732 23.0172 18.1492C23.0172 17.9732 23.0172 17.7971 23.0137 17.6211Z" fill="white"/>
<path id="Vector_26" d="M99.6195 3.62159C99.4998 3.62159 99.3765 3.62159 99.2568 3.62159C99.3765 3.60046 99.4927 3.57581 99.6125 3.55469C99.6125 3.57933 99.616 3.60046 99.6195 3.62511V3.62159Z" fill="white"/>
<path id="Vector_27" d="M99.2567 3.61914C99.2356 3.73885 99.2145 3.85857 99.1934 3.97476C99.2145 3.85505 99.2356 3.73533 99.2567 3.61914Z" fill="white"/>
<path id="Vector_28" d="M82.1875 18.498C82.2262 18.5755 82.2685 18.653 82.3072 18.7269C82.2685 18.6495 82.2262 18.572 82.1875 18.498Z" fill="white"/>
<path id="Vector_29" d="M25.3825 12.4289C25.3649 12.3374 25.3473 12.2458 25.3262 12.1543C25.3438 12.2458 25.3614 12.3374 25.3825 12.4289Z" fill="white"/>
<path id="Vector_30" d="M61.8496 14.4209C61.8813 14.3716 61.9165 14.3188 61.9482 14.2695C61.9623 14.3153 61.9764 14.3611 61.9904 14.4068C61.9447 14.4104 61.8954 14.4174 61.8496 14.4209Z" fill="white"/>
<path id="Vector_31" d="M28.0381 22.8262C28.1332 22.8438 28.2282 22.8649 28.3198 22.8825C28.2247 22.8649 28.1296 22.8438 28.0381 22.8262Z" fill="white"/>
<path id="Vector_32" d="M36.7842 19.5612C36.7842 19.4978 36.7877 19.4345 36.7912 19.3711C36.7912 19.4345 36.7877 19.4978 36.7842 19.5612Z" fill="white"/>
<path id="Vector_33" d="M7.60177 18.0625C7.60177 18.1224 7.59825 18.1787 7.59473 18.2385C7.59473 18.1787 7.59825 18.1224 7.60177 18.0625Z" fill="white"/>
<path id="Vector_34" d="M94.9581 12.8828C94.8947 12.8934 94.8313 12.9039 94.7715 12.9145C94.8349 12.9039 94.8982 12.8934 94.9581 12.8828Z" fill="white"/>
<path id="Vector_35" d="M2.50391 13.0098C2.57081 12.9993 2.63418 12.9887 2.70108 12.9746C2.63418 12.9852 2.57081 12.9957 2.50391 13.0098Z" fill="white"/>
<path id="Vector_36" d="M32.7979 22.8742C32.8331 22.8742 32.8648 22.8707 32.9 22.8672C32.8648 22.8672 32.8331 22.8707 32.7979 22.8742Z" fill="white"/>
<path id="Vector_37" d="M99.1934 13.2207C99.2038 13.2417 99.2143 13.2626 99.2213 13.2836C99.2213 13.2906 99.2038 13.3011 99.1934 13.3081C99.1934 13.2801 99.1934 13.2487 99.1934 13.2207Z" fill="white"/>
<path id="Vector_38" d="M99.1934 13.5723C99.2038 13.5932 99.2143 13.6142 99.2213 13.6352C99.2213 13.6422 99.2038 13.6527 99.1934 13.6597C99.1934 13.6317 99.1934 13.6002 99.1934 13.5723Z" fill="white"/>
<path id="Vector_39" d="M99.1934 13.9238C99.2038 13.9448 99.2143 13.9658 99.2213 13.9867C99.2213 13.9937 99.2038 14.0042 99.1934 14.0112C99.1934 13.9833 99.1934 13.9518 99.1934 13.9238Z" fill="white"/>
<path id="Vector_40" d="M99.1934 14.2773C99.2038 14.2983 99.2143 14.3193 99.2213 14.3403C99.2213 14.3473 99.2038 14.3577 99.1934 14.3647C99.1934 14.3368 99.1934 14.3053 99.1934 14.2773Z" fill="white"/>
<path id="Vector_41" d="M55.6807 14.3887C55.7159 14.3887 55.7546 14.3887 55.7898 14.3922C55.7546 14.3922 55.7159 14.3922 55.6807 14.3887Z" fill="white"/>
<path id="Vector_42" d="M61.3145 14.3848C61.3497 14.3848 61.3849 14.3883 61.4201 14.3918C61.3849 14.3918 61.3497 14.3883 61.3145 14.3848Z" fill="white"/>
<path id="Vector_43" d="M99.1934 14.6289C99.2038 14.6499 99.2143 14.6709 99.2213 14.6918C99.2213 14.6988 99.2038 14.7093 99.1934 14.7163C99.1934 14.6883 99.1934 14.6569 99.1934 14.6289Z" fill="white"/>
<path id="Vector_44" d="M7.5459 14.8848C7.56338 14.9162 7.58085 14.9477 7.59484 14.9791C7.57736 14.9477 7.55988 14.9162 7.5459 14.8848Z" fill="white"/>
<path id="Vector_45" d="M82.2119 14.9766C82.2224 14.9975 82.2329 15.0185 82.2399 15.043C82.2399 15.05 82.2224 15.0605 82.2119 15.0674C82.2119 15.036 82.2119 15.008 82.2119 14.9766Z" fill="white"/>
<path id="Vector_46" d="M99.1934 14.9805C99.2038 15.0014 99.2143 15.0224 99.2213 15.0434C99.2213 15.0504 99.2038 15.0609 99.1934 15.0679C99.1934 15.0399 99.1934 15.0084 99.1934 14.9805Z" fill="white"/>
<path id="Vector_47" d="M77.8561 15.2436C77.8456 15.2227 77.8351 15.2052 77.8281 15.1807C77.8281 15.1737 77.8456 15.1632 77.8561 15.1562C77.8561 15.1842 77.8561 15.2157 77.8561 15.2436Z" fill="white"/>
<path id="Vector_48" d="M99.1934 15.332C99.2038 15.353 99.2143 15.374 99.2213 15.395C99.2213 15.4019 99.2038 15.4124 99.1934 15.4194C99.1934 15.3915 99.1934 15.36 99.1934 15.332Z" fill="white"/>
<path id="Vector_49" d="M77.8664 15.5077C77.8559 15.4867 77.842 15.4693 77.835 15.4483C77.835 15.4448 77.8524 15.4308 77.8629 15.4238C77.8629 15.4518 77.8629 15.4833 77.8664 15.5112V15.5077Z" fill="white"/>
<path id="Vector_50" d="M99.1934 15.6855C99.2038 15.7065 99.2143 15.7275 99.2213 15.7485C99.2213 15.7555 99.2038 15.7659 99.1934 15.7729C99.1934 15.745 99.1934 15.7135 99.1934 15.6855Z" fill="white"/>
<path id="Vector_51" d="M99.1934 16.0371C99.2038 16.0581 99.2143 16.0791 99.2213 16.1C99.2213 16.107 99.2038 16.1175 99.1934 16.1245C99.1934 16.0965 99.1934 16.0651 99.1934 16.0371Z" fill="white"/>
<path id="Vector_52" d="M82.2119 16.3848C82.2224 16.4057 82.2329 16.4267 82.2399 16.4512C82.2399 16.4582 82.2224 16.4687 82.2119 16.4757C82.2119 16.4442 82.2119 16.4162 82.2119 16.3848Z" fill="white"/>
<path id="Vector_53" d="M99.1934 12.5156C99.2038 12.5366 99.2143 12.5576 99.2213 12.5785C99.2213 12.5855 99.2038 12.596 99.1934 12.603C99.1934 12.575 99.1934 12.5436 99.1934 12.5156Z" fill="white"/>
<path id="Vector_54" d="M99.1934 12.1641C99.2038 12.185 99.2143 12.206 99.2213 12.227C99.2213 12.234 99.2038 12.2445 99.1934 12.2515C99.1934 12.2235 99.1934 12.192 99.1934 12.1641Z" fill="white"/>
<path id="Vector_55" d="M99.1934 11.8125C99.2038 11.8335 99.2143 11.8544 99.2213 11.8754C99.2213 11.8824 99.2038 11.8929 99.1934 11.8999C99.1934 11.8719 99.1934 11.8405 99.1934 11.8125Z" fill="white"/>
<path id="Vector_56" d="M75.5254 11.5371C75.5254 11.5723 75.5254 11.6075 75.5289 11.6427C75.5289 11.6075 75.5289 11.5723 75.5254 11.5371Z" fill="white"/>
<path id="Vector_57" d="M7.60902 17.7051C7.60902 17.7365 7.60902 17.7645 7.60902 17.796C7.59853 17.775 7.58805 17.754 7.58105 17.733C7.58105 17.7261 7.59853 17.7156 7.60902 17.7086V17.7051Z" fill="white"/>
<path id="Vector_58" d="M99.1934 11.459C99.2038 11.48 99.2143 11.5009 99.2213 11.5219C99.2213 11.5289 99.2038 11.5394 99.1934 11.5464C99.1934 11.5184 99.1934 11.4869 99.1934 11.459Z" fill="white"/>
<path id="Vector_59" d="M99.1934 11.1074C99.2038 11.1284 99.2143 11.1494 99.2213 11.1703C99.2213 11.1773 99.2038 11.1878 99.1934 11.1948C99.1934 11.1668 99.1934 11.1354 99.1934 11.1074Z" fill="white"/>
<path id="Vector_60" d="M11.8336 18.0625C11.8336 18.0905 11.8336 18.1219 11.8336 18.1499C11.8231 18.1289 11.8127 18.1079 11.8057 18.087C11.8057 18.08 11.8231 18.0695 11.8336 18.0625Z" fill="white"/>
<path id="Vector_61" d="M75.532 11.0977C75.532 11.1329 75.525 11.1681 75.5215 11.2033C75.5215 11.1681 75.5285 11.1329 75.532 11.0977Z" fill="white"/>
<path id="Vector_62" d="M99.1934 10.7559C99.2038 10.7768 99.2143 10.7978 99.2213 10.8188C99.2213 10.8258 99.2038 10.8363 99.1934 10.8432C99.1934 10.8153 99.1934 10.7838 99.1934 10.7559Z" fill="white"/>
<path id="Vector_63" d="M82.2119 10.752C82.2224 10.7729 82.2329 10.7939 82.2399 10.8184C82.2399 10.8254 82.2224 10.8358 82.2119 10.8428C82.2119 10.8114 82.2119 10.7834 82.2119 10.752Z" fill="white"/>
<path id="Vector_64" d="M25.3721 18.5365C25.3756 18.4943 25.3826 18.452 25.3862 18.4062C25.3826 18.4485 25.3756 18.4908 25.3721 18.5365Z" fill="white"/>
<path id="Vector_65" d="M99.1934 10.4043C99.2038 10.4253 99.2143 10.4462 99.2213 10.4672C99.2213 10.4742 99.2038 10.4847 99.1934 10.4917C99.1934 10.4637 99.1934 10.4323 99.1934 10.4043Z" fill="white"/>
<path id="Vector_66" d="M11.844 8.99219C11.844 9.02015 11.8405 9.05161 11.837 9.07958C11.83 9.0586 11.816 9.03763 11.8125 9.01666C11.8125 9.00967 11.83 8.99918 11.8405 8.99219H11.844Z" fill="white"/>
<path id="Vector_67" d="M80.4293 8.85855C80.3979 8.85855 80.3664 8.85506 80.335 8.85156C80.3664 8.85156 80.3979 8.85506 80.4293 8.85855Z" fill="white"/>
<path id="Vector_68" d="M7.62305 18.6387C7.65464 18.6387 7.6757 18.6527 7.68272 18.6843C7.65464 18.6808 7.63358 18.6632 7.62305 18.6387Z" fill="white"/>
<path id="Vector_69" d="M16.2251 18.5898C16.2321 18.6178 16.2426 18.6493 16.2495 18.6772C16.2321 18.6598 16.2146 18.6423 16.2041 18.6213C16.2041 18.6178 16.2181 18.6003 16.2251 18.5898Z" fill="white"/>
<path id="Vector_70" d="M18.1924 8.88281C18.161 8.88281 18.133 8.88281 18.1016 8.88631C18.133 8.88631 18.161 8.88631 18.1924 8.88281Z" fill="white"/>
<path id="Vector_71" d="M70.6348 18.7031C70.6735 18.7066 70.7122 18.7102 70.751 18.7172C70.7122 18.7137 70.6735 18.7102 70.6348 18.7031Z" fill="white"/>
<path id="Vector_72" d="M72.4092 18.7344C72.4444 18.7344 72.4796 18.7414 72.5113 18.7449C72.4761 18.7449 72.4409 18.7379 72.4092 18.7344Z" fill="white"/>
<path id="Vector_73" d="M77.8776 8.72298C77.8671 8.7055 77.8531 8.68802 77.8496 8.66705C77.8496 8.66006 77.8636 8.64957 77.8741 8.64258C77.8881 8.67054 77.8916 8.69501 77.8811 8.72647L77.8776 8.72298Z" fill="white"/>
<path id="Vector_74" d="M75.5117 6.61133C75.5223 6.63598 75.5364 6.6571 75.5434 6.68175C75.5434 6.68879 75.5258 6.70287 75.5188 6.71344C75.5188 6.67823 75.5152 6.64654 75.5117 6.61133Z" fill="white"/>
<path id="Vector_75" d="M5.87691 4.35704C5.84522 4.35704 5.81001 4.35704 5.77832 4.35352C5.81001 4.35352 5.84522 4.35352 5.87691 4.35704Z" fill="white"/>
<path id="Vector_76" d="M99.6193 3.62069C99.6193 3.59622 99.6158 3.57525 99.6123 3.55078C99.6438 3.55078 99.6752 3.55428 99.7067 3.55777C99.6787 3.57875 99.6473 3.59972 99.6193 3.62069Z" fill="white"/>
<path id="Vector_77" d="M99.1934 12.8672C99.2038 12.8882 99.2143 12.9091 99.2213 12.9301C99.2213 12.9371 99.2038 12.9476 99.1934 12.9546C99.1934 12.9266 99.1934 12.8952 99.1934 12.8672Z" fill="white"/>
<path id="Vector_78" d="M3.10938 10.8118C3.23613 10.8047 3.36641 10.7977 3.49316 10.7871C3.36641 10.7942 3.23613 10.8012 3.10938 10.8118Z" fill="white"/>
<path id="Vector_79" d="M5.33789 10.773C5.36935 10.773 5.40081 10.773 5.43227 10.7695C5.40081 10.7695 5.36935 10.7695 5.33789 10.773Z" fill="white"/>
<path id="Vector_80" d="M54.8076 12.6953C54.9872 12.7024 55.1668 12.7059 55.3428 12.7129C55.1632 12.7059 54.9837 12.7024 54.8076 12.6953Z" fill="white"/>
<path id="Vector_81" d="M58.7656 12.7277C58.829 12.7277 58.8924 12.7242 58.9558 12.7207C58.8924 12.7207 58.829 12.7242 58.7656 12.7277Z" fill="white"/>
<path id="Vector_82" d="M59.1172 12.7106C59.1524 12.7106 59.1841 12.7106 59.2193 12.707C59.1841 12.707 59.1524 12.707 59.1172 12.7106Z" fill="white"/>
</g>
<defs>
<clipPath id="clip0_2111_540">
<rect width="101.538" height="21.9323" fill="white" transform="translate(0 0.970703)"/>
</clipPath>
</defs>
</svg>
