<svg width="56" height="56" viewBox="0 0 56 56" fill="none" xmlns="http://www.w3.org/2000/svg">
<g id="Sales &#38; Submission 1">
<g id="Sales &#38; Submission ">
<circle id="Ellipse 47" cx="20" cy="28" r="20" fill="#43CEEF"/>
<g id="Group">
<g id="Clip path group">
<mask id="mask0_1920_1405" style="mask-type:luminance" maskUnits="userSpaceOnUse" x="20" y="11" width="36" height="35">
<g id="a">
<path id="Vector" d="M20.5 11H55.5V46H20.5V11Z" fill="white"/>
</g>
</mask>
<g mask="url(#mask0_1920_1405)">
<g id="Group_2" opacity="0.75">
<path id="Vector_2" fill-rule="evenodd" clip-rule="evenodd" d="M55.0743 18.718C55.3477 18.9915 55.5013 19.3623 55.5013 19.749C55.5013 20.1357 55.3477 20.5066 55.0743 20.7801L41.2202 34.6342C40.9467 34.9076 40.5758 35.0612 40.1891 35.0612C39.8024 35.0612 39.4315 34.9076 39.1581 34.6342L32.8974 28.3736L22.991 38.2801C22.7159 38.5457 22.3476 38.6927 21.9652 38.6894C21.5828 38.6861 21.2171 38.5327 20.9467 38.2623C20.6763 37.9919 20.5229 37.6262 20.5196 37.2438C20.5163 36.8614 20.6633 36.493 20.9289 36.218L31.8664 25.2805C32.1399 25.0071 32.5107 24.8535 32.8974 24.8535C33.2841 24.8535 33.655 25.0071 33.9285 25.2805L40.1891 31.5411L53.0122 18.718C53.2857 18.4446 53.6566 18.291 54.0433 18.291C54.43 18.291 54.8008 18.4446 55.0743 18.718Z" fill="#3B5AFB"/>
<path id="Vector_3" fill-rule="evenodd" clip-rule="evenodd" d="M43.834 19.7493C43.834 19.3626 43.9876 18.9916 44.2611 18.7182C44.5346 18.4447 44.9055 18.291 45.2923 18.291H54.0423C54.4291 18.291 54.8 18.4447 55.0735 18.7182C55.347 18.9916 55.5007 19.3626 55.5007 19.7493V28.4993C55.5007 28.8861 55.347 29.2571 55.0735 29.5305C54.8 29.804 54.4291 29.9577 54.0423 29.9577C53.6555 29.9577 53.2846 29.804 53.0111 29.5305C52.7376 29.2571 52.584 28.8861 52.584 28.4993V21.2077H45.2923C44.9055 21.2077 44.5346 21.054 44.2611 20.7805C43.9876 20.5071 43.834 20.1361 43.834 19.7493Z" fill="#3B5AFB"/>
</g>
</g>
</g>
</g>
</g>
</g>
</svg>
