<svg width="81" height="81" viewBox="0 0 81 81" fill="none" xmlns="http://www.w3.org/2000/svg">
<g id="shopify">
<path id="Vector" fill-rule="evenodd" clip-rule="evenodd" d="M33.8482 29.6569C33.8111 29.6569 33.7394 29.6569 33.7023 29.6569C33.0866 29.5818 32.5797 29.0176 32.5797 28.3783C32.5426 27.7764 32.2161 13.7104 40.151 10.5137C42.144 9.72382 43.9936 9.87417 45.5514 11.0403C47.4702 12.4318 48.8474 15.2149 49.6807 19.2767C50.2594 22.1351 50.3682 24.6172 50.3682 24.7301C50.4053 25.3317 49.9355 25.7833 49.3173 25.6703C48.7016 25.595 48.1948 25.031 48.1948 24.4292C48.086 21.8718 47.2526 14.8389 44.5005 12.8078C43.6301 12.1685 42.5421 12.0932 41.239 12.6198C34.4267 15.3652 34.7531 28.5663 34.7531 28.7167C34.7531 29.2432 34.3922 29.6569 33.8482 29.6569Z" fill="#595961"/>
<path id="Vector_2" opacity="0.46" fill-rule="evenodd" clip-rule="evenodd" d="M45.1513 11.1166C43.7023 10.0634 42.001 9.91306 40.1514 10.6276C36.927 11.9439 34.6448 15.4041 33.5222 20.6695C32.6889 24.5431 32.7976 28.041 32.7976 28.1913C32.7976 28.3793 32.8694 28.5676 33.0153 28.7179C33.1587 28.8682 33.3046 28.9812 33.4851 28.9812C33.5222 28.9812 33.5593 28.9812 33.5939 28.9812C33.9203 28.9812 34.1749 28.7179 34.1749 28.3793C34.1749 28.229 33.8486 14.8022 40.8414 11.9815C42.2533 11.4175 43.4847 11.4926 44.5009 12.2448C47.4336 14.3886 48.3039 21.6474 48.4127 24.2424C48.4127 24.6184 48.7391 24.9946 49.1372 25.032C49.5007 25.0697 49.79 24.8064 49.79 24.4304C49.7529 23.9791 49.3548 14.2006 45.1513 11.1166Z" fill="#B2B2C2"/>
<path id="Vector_3" opacity="0.46" fill-rule="evenodd" clip-rule="evenodd" d="M33.5214 28.5279C33.4843 28.5279 33.4843 28.5279 33.4497 28.5279C33.2321 28.4902 33.049 28.2646 33.0144 28.0389C33.0144 27.8884 32.9057 24.466 33.739 20.5922C34.8245 15.4397 37.1092 12.0171 40.2594 10.7383C42.0348 10.0237 43.6298 10.1743 45.0071 11.1522C49.0647 14.1233 49.4629 23.7514 49.4629 24.1651C49.4629 24.3907 49.2823 24.5411 49.0647 24.5037C48.8471 24.466 48.6666 24.278 48.6295 24.0147C48.6295 23.9018 48.2314 14.4618 44.5718 11.7539C43.4838 10.9642 42.1437 10.8513 40.623 11.4529C33.5214 14.4242 33.8478 28.0389 33.8478 28.1893C33.8824 28.3773 33.739 28.5279 33.5214 28.5279Z" fill="#B2B2C2"/>
<path id="Vector_4" opacity="0.62" fill-rule="evenodd" clip-rule="evenodd" d="M36.4575 17.7728C36.7468 17.2088 37.0361 16.6446 37.2908 16.043C37.182 16.231 36.4574 18.1867 34.2468 17.8858C34.2098 17.8858 35.5501 18.2994 36.4575 17.7728Z" fill="#595961"/>
<path id="Vector_5" opacity="0.62" fill-rule="evenodd" clip-rule="evenodd" d="M35.6579 20.1788C35.8755 19.5769 36.0931 18.9376 36.239 18.3359C36.1673 18.5616 35.8038 20.5924 33.4844 20.5924C33.4844 20.5924 34.8246 20.8557 35.6579 20.1788Z" fill="#595961"/>
<path id="Vector_6" opacity="0.62" fill-rule="evenodd" clip-rule="evenodd" d="M48.3752 15.3274C48.0859 14.6502 47.7594 14.0109 47.433 13.334C47.5418 13.5596 48.6298 15.7034 47.3984 17.2453C47.3984 17.2453 48.3406 16.4933 48.3752 15.3274Z" fill="#595961"/>
<path id="Vector_7" opacity="0.62" fill-rule="evenodd" clip-rule="evenodd" d="M46.3854 11.9437C45.8043 11.4548 45.2256 11.0035 44.6445 10.5898C44.8621 10.7778 46.7834 12.1694 46.6746 14.2757C46.6375 14.2757 46.964 13.0345 46.3854 11.9437Z" fill="#595961"/>
<path id="Vector_8" opacity="0.62" fill-rule="evenodd" clip-rule="evenodd" d="M37.5068 15.7031C37.942 15.2519 38.303 14.7629 38.7011 14.2363C38.5577 14.3867 37.361 15.9288 35.2246 15.3646C35.2246 15.3646 36.4559 16.0417 37.5068 15.7031Z" fill="#595961"/>
<path id="Vector_9" opacity="0.62" fill-rule="evenodd" clip-rule="evenodd" d="M38.8486 13.9745C39.3555 13.5985 39.8253 13.2222 40.2976 12.8086C40.1171 12.9215 38.6311 14.1625 36.5664 13.2599C36.5664 13.2599 37.7607 14.1248 38.8486 13.9745Z" fill="#595961"/>
<path id="Vector_10" opacity="0.62" fill-rule="evenodd" clip-rule="evenodd" d="M40.803 12.7325C41.4187 12.5445 41.9999 12.3188 42.5785 12.0932C42.3609 12.1682 40.5137 12.8452 38.7012 11.416C38.7383 11.416 39.6804 12.5445 40.803 12.7325Z" fill="#595961"/>
<path id="Vector_11" opacity="0.62" fill-rule="evenodd" clip-rule="evenodd" d="M42.5798 12.0552C43.0867 12.1305 43.5935 12.1682 44.1004 12.2058C43.9199 12.1682 42.3249 12.0552 41.4199 10.5508C41.4199 10.5508 41.7835 11.5663 42.5798 12.0552Z" fill="#595961"/>
<path id="Vector_12" opacity="0.62" fill-rule="evenodd" clip-rule="evenodd" d="M44.6804 12.8822C45.0414 13.2961 45.4419 13.7097 45.8746 14.0857C45.7312 13.9354 44.4999 12.6942 44.7892 11.1523C44.7521 11.1523 44.354 12.0173 44.6804 12.8822Z" fill="#595961"/>
<path id="Vector_13" opacity="0.74" fill-rule="evenodd" clip-rule="evenodd" d="M49.0647 23.9766C49.0647 23.5627 48.6666 14.0475 44.7177 11.1517C43.9562 10.5875 43.1228 10.3242 42.2524 10.3242C41.5997 10.3242 40.9122 10.4746 40.1877 10.7755C37.035 12.0167 34.8245 15.364 33.739 20.4788C32.9057 24.315 33.0144 27.7375 33.0144 27.8879C33.0144 28.0008 33.1233 28.1135 33.2321 28.1135H33.2666C33.3754 28.1135 33.4497 28.0385 33.4497 27.9255C33.4497 27.7752 33.0861 14.0475 40.3682 11.1141C41.9631 10.4746 43.3404 10.5875 44.5001 11.4524C48.266 14.1981 48.6666 23.7886 48.6666 23.9013C48.6666 24.0143 48.7754 24.127 48.8842 24.127C48.8842 24.127 48.8842 24.127 48.9188 24.127C48.993 24.1646 49.0647 24.0893 49.0647 23.9766Z" fill="url(#paint0_linear_1958_1604)"/>
<path id="Vector_14" fill-rule="evenodd" clip-rule="evenodd" d="M49.6812 19.2778C48.8479 15.216 47.4707 12.4704 45.5519 11.0412C44.501 10.2892 43.3759 9.9506 42.1445 10.0259C43.1237 10.101 44.0287 10.4395 44.862 11.0412C46.7833 12.433 48.1606 15.216 48.9939 19.2778C49.5725 22.1362 49.6812 24.6183 49.6812 24.7312C49.6812 25.1825 49.4637 25.5211 49.1002 25.6338C49.1744 25.6715 49.2462 25.6715 49.2832 25.6715C49.8989 25.7468 50.3687 25.3329 50.3341 24.7312C50.3687 24.6183 50.2598 22.1738 49.6812 19.2778Z" fill="url(#paint1_linear_1958_1604)"/>
<path id="Vector_15" fill-rule="evenodd" clip-rule="evenodd" d="M40.5514 12.6211C33.7391 15.3665 34.0654 28.5676 34.0654 28.718C34.0654 29.1693 33.8479 29.5079 33.4844 29.6206C33.5586 29.6582 33.5933 29.6582 33.6674 29.6582C33.7021 29.6582 33.7762 29.6582 33.8108 29.6582C34.3548 29.6582 34.7157 29.2446 34.7157 28.718C34.7157 28.5676 34.3919 15.4042 41.2017 12.6588C41.674 12.4708 42.1091 12.3579 42.5072 12.3202C41.9261 12.2075 41.2759 12.3202 40.5514 12.6211Z" fill="url(#paint2_linear_1958_1604)"/>
<path id="Vector_16" fill-rule="evenodd" clip-rule="evenodd" d="M50.8754 15.8902L20.1523 25.7438C20.1523 25.7438 18.8492 26.12 18.5228 26.5337C18.1964 26.9473 18.1246 28.1132 18.1246 28.1132L13.377 66.0991L49.0283 73.0193L51.7829 15.8525C51.3848 15.7772 50.9842 15.8525 50.8754 15.8902Z" fill="url(#paint3_linear_1958_1604)"/>
<path id="Vector_17" fill-rule="evenodd" clip-rule="evenodd" d="M61.4936 20.7803C61.4936 20.7803 61.4564 20.4794 61.2759 20.3667C61.1301 20.2537 60.9495 20.2537 60.9495 20.2537L55.9127 19.8777L52.2184 16.0792C52.0725 15.9662 51.9267 15.8912 51.7462 15.8535L48.9941 73.0203L68.3033 68.6951L61.4936 20.7803Z" fill="url(#paint4_linear_1958_1604)"/>
<path id="Vector_18" fill-rule="evenodd" clip-rule="evenodd" d="M38.1951 47.633C37.6511 46.8808 37.0008 46.2038 36.348 45.6019C35.6952 45.0003 35.0078 44.5114 34.3179 44.0601C33.8481 43.7591 33.4129 43.4582 33.0495 43.1572C32.6884 42.8565 32.3991 42.5556 32.1815 42.2923C31.9639 41.9914 31.7834 41.7281 31.6746 41.4274C31.5658 41.1264 31.5286 40.8255 31.5286 40.5245C31.5286 40.1109 31.6375 39.6973 31.7834 39.3587C31.9268 39.0203 32.1815 38.7194 32.4337 38.4561C32.7255 38.1928 33.0494 38.0048 33.45 37.8544C33.8481 37.7039 34.3178 37.6288 34.8247 37.5912C35.3687 37.5535 35.9128 37.5912 36.4197 37.6288C36.9266 37.6662 37.3989 37.7792 37.8687 37.8919C38.3039 38.0048 38.739 38.1551 39.1 38.3057C39.4635 38.4561 39.8245 38.6064 40.0792 38.757L42.4704 31.3855C42.1094 31.1975 41.6742 31.0093 41.2019 30.8966C40.695 30.746 40.151 30.6333 39.5353 30.558C38.9196 30.483 38.2668 30.4453 37.5793 30.4453C36.8919 30.4453 36.1675 30.483 35.4059 30.5957C33.7764 30.8213 32.3249 31.2726 31.0218 31.9495C29.7904 32.5891 28.7024 33.4163 27.7974 34.4319C26.927 35.4098 26.2395 36.538 25.7326 37.8168C25.2604 39.058 24.9711 40.4495 24.8994 41.9537C24.8623 42.8565 24.934 43.6838 25.1516 44.4361C25.3321 45.1883 25.6239 45.9029 26.022 46.5798C26.383 47.2568 26.8552 47.8586 27.3621 48.4226C27.869 48.9869 28.4848 49.5134 29.1005 50.0024C29.6074 50.3784 30.0426 50.7544 30.4061 51.093C30.7671 51.4316 31.0589 51.7699 31.274 52.1461C31.4916 52.4845 31.6374 52.8231 31.7462 53.1991C31.855 53.5377 31.8922 53.9136 31.8551 54.2899C31.8551 54.6659 31.7463 55.0419 31.6005 55.3428C31.457 55.6438 31.274 55.9447 30.9847 56.1704C30.7325 56.396 30.4061 56.5463 30.0427 56.6216C29.6816 56.6967 29.2464 56.7343 28.7742 56.6593C28.2326 56.584 27.6885 56.4337 27.1816 56.2078C26.6747 56.0198 26.1655 55.7565 25.6957 55.4932C25.2259 55.2301 24.7907 54.9292 24.4272 54.6659C24.0291 54.4026 23.7026 54.1017 23.4504 53.876L21.8184 59.48C22.073 59.856 22.4341 60.1946 22.8322 60.5329C23.2328 60.8715 23.7027 61.2098 24.2467 61.5484C24.7907 61.8494 25.3693 62.1501 25.985 62.4134C26.6007 62.6767 27.2905 62.9023 27.9779 63.0906H28.015H28.0496H28.0867H28.1238C29.6075 63.4289 31.0218 63.5042 32.362 63.3162C33.7393 63.128 35.0077 62.639 36.0932 61.887C37.2158 61.0971 38.1233 60.044 38.8107 58.6525C39.5006 57.2609 39.8987 55.5685 39.9704 53.6504C40.0075 52.4468 39.8617 51.3939 39.5353 50.416C39.2089 49.2878 38.7391 48.4226 38.1951 47.633Z" fill="url(#paint5_linear_1958_1604)"/>
<path id="Vector_19" opacity="0.226763" fill-rule="evenodd" clip-rule="evenodd" d="M22.053 59.7873C21.9689 59.6877 21.8897 59.5858 21.818 59.4812L23.4501 53.8772C23.4723 53.8982 23.4971 53.9198 23.5218 53.942C23.7641 54.1585 24.0658 54.4282 24.4269 54.6671C24.7903 54.9304 25.2255 55.2314 25.6953 55.4947C26.1652 55.7577 26.6744 56.021 27.1813 56.2092C27.6882 56.4349 28.2323 56.5852 28.7738 56.6605C29.2461 56.7356 29.6813 56.6982 30.0423 56.6229C30.4058 56.5476 30.7322 56.3972 30.9844 56.1716C31.2737 55.9459 31.4567 55.645 31.6001 55.3441C31.746 55.0431 31.8547 54.6671 31.8547 54.2911C31.8918 53.9149 31.8547 53.5389 31.7459 53.2003C31.6371 52.8243 31.4913 52.4857 31.2737 52.1474C31.0685 51.7898 30.7964 51.4665 30.4577 51.1446C30.6357 51.3457 30.7866 51.5521 30.9127 51.7711C31.1303 52.1097 31.2737 52.4481 31.3825 52.8243C31.4913 53.1627 31.5284 53.5389 31.4913 53.9149C31.4913 54.2911 31.3825 54.6671 31.2391 54.9681C31.0932 55.269 30.9127 55.5697 30.6234 55.7954C30.3687 56.021 30.0423 56.1716 29.6813 56.2466C29.3178 56.3219 28.8826 56.3596 28.4128 56.2843C27.8688 56.2092 27.3248 56.0586 26.8179 55.833C26.311 55.645 25.8041 55.3817 25.3318 55.1184C24.862 54.8551 24.4269 54.5544 24.0659 54.2911C23.7024 54.0522 23.4007 53.7825 23.1584 53.566C23.1336 53.5438 23.1113 53.5222 23.0865 53.5012L21.457 59.105C21.6178 59.3444 21.8231 59.5686 22.053 59.7873ZM27.3915 48.4581C27.2556 48.3235 27.1245 48.1869 26.9984 48.0479C26.4915 47.4836 26.0217 46.882 25.6582 46.2051C25.2601 45.5279 24.9708 44.8133 24.7903 44.0613C24.5727 43.3091 24.4984 42.4815 24.5355 41.579C24.6072 40.0745 24.8991 38.683 25.3689 37.4418C25.8758 36.1632 26.5657 35.035 27.4337 34.0571C28.3411 33.0416 29.4265 32.2141 30.6579 31.5748C31.9635 30.8978 33.4125 30.4466 35.042 30.2209C35.8036 30.108 36.5282 30.0703 37.2156 30.0703C37.9055 30.0703 38.5583 30.108 39.174 30.1833C39.7897 30.2586 40.3337 30.3713 40.8406 30.5218C41.3104 30.6345 41.7456 30.8225 42.1091 31.0105L42.0522 31.1865C41.7901 31.0725 41.5032 30.9699 41.2016 30.8978C40.6947 30.7475 40.1507 30.6345 39.535 30.5593C38.9193 30.4842 38.2664 30.4466 37.579 30.4466C36.8916 30.4466 36.1672 30.4842 35.4056 30.5969C33.7761 30.8225 32.3246 31.2738 31.0215 31.951C29.7901 32.5903 28.7021 33.4176 27.7971 34.4331C26.9267 35.411 26.2392 36.5392 25.7323 37.818C25.26 39.0592 24.9708 40.4507 24.8991 41.955C24.862 42.8578 24.9337 43.6851 25.1513 44.4373C25.3318 45.1895 25.6235 45.9041 26.0216 46.5811C26.3827 47.258 26.8549 47.8599 27.3618 48.4239C27.3717 48.4352 27.3817 48.4467 27.3915 48.4581ZM32.3122 42.4476C32.51 42.6713 32.7573 42.9149 33.0491 43.1585C33.4126 43.4594 33.8478 43.7604 34.3176 44.0613C35.0075 44.5126 35.6949 45.0015 36.3477 45.6032C36.5381 45.7784 36.726 45.9597 36.9139 46.1477C36.6122 45.8234 36.2981 45.5166 35.9841 45.2272C35.3338 44.6253 34.644 44.1364 33.9566 43.6851C33.4843 43.3841 33.0491 43.0834 32.6881 42.7825C32.5521 42.6703 32.4284 42.5581 32.3122 42.4476Z" fill="black"/>
<path id="Vector_20" opacity="0.41" fill-rule="evenodd" clip-rule="evenodd" d="M57.1427 62.3763L55.9113 19.8772L55.6937 19.6515L56.2749 61.7744C56.2749 61.7744 51.1662 69.8228 50.4046 69.5972C49.282 69.2588 52.6152 16.4923 52.6152 16.4923L52.2518 16.1163C52.1084 16.0033 51.9254 15.9283 51.782 15.8906L49.0645 72.2675L49.0273 73.0574L49.9694 71.8162L57.1427 62.3763Z" fill="url(#paint6_linear_1958_1604)"/>
<path id="Vector_21" fill-rule="evenodd" clip-rule="evenodd" d="M43.2671 18.3362C42.8344 20.1037 42.2905 21.7585 41.8924 22.7741C41.6377 23.376 41.927 23.9399 42.471 24.0152C43.0521 24.0905 43.7024 23.6767 43.92 23.075C43.9571 22.9621 44.9337 20.5176 45.5519 17.6216V17.584L43.2671 18.3362Z" fill="url(#paint7_linear_1958_1604)"/>
<path id="Vector_22" fill-rule="evenodd" clip-rule="evenodd" d="M26.927 23.6015C26.4201 24.7297 25.9132 25.7076 25.5497 26.3846C25.2258 26.9488 25.4063 27.5504 25.9502 27.7008C26.4918 27.889 27.2162 27.5504 27.5426 26.9862C27.5797 26.9111 28.6307 25.0683 29.5728 22.7363L26.927 23.6015Z" fill="url(#paint8_linear_1958_1604)"/>
<path id="Vector_23" opacity="0.32" fill-rule="evenodd" clip-rule="evenodd" d="M49.0273 73.0207L57.1427 62.377L68.3762 68.6955L49.0273 73.0207Z" fill="url(#paint9_linear_1958_1604)"/>
<path id="Vector_24" opacity="0.19" fill-rule="evenodd" clip-rule="evenodd" d="M49.0273 73.0207L57.071 62.377L68.3762 68.6955L49.0273 73.0207Z" fill="url(#paint10_linear_1958_1604)"/>
<path id="Vector_25" opacity="0.19" fill-rule="evenodd" clip-rule="evenodd" d="M49.0273 73.0207L57.071 62.377L68.3762 68.6955L49.0273 73.0207Z" fill="url(#paint11_linear_1958_1604)"/>
<path id="Vector_26" opacity="0.6" fill-rule="evenodd" clip-rule="evenodd" d="M41.1312 43.2348C45.3348 49.1394 48.1609 55.5331 49.5728 61.7387L51.7835 15.8173C51.3854 15.7422 50.9848 15.8173 50.876 15.8549L20.1529 25.7464C20.1529 25.7464 19.8635 25.8214 19.5 25.972C27.2914 28.7551 35.0805 34.7351 41.1312 43.2348Z" fill="url(#paint12_linear_1958_1604)"/>
<path id="Vector_27" fill-rule="evenodd" clip-rule="evenodd" d="M61.31 20.4038C61.4929 20.5544 61.493 20.7801 61.493 20.7801L68.231 68.657L57.1435 62.3387L55.9121 19.8398L60.8773 20.2158C60.9119 20.2535 61.1294 20.2535 61.31 20.4038Z" fill="url(#paint13_linear_1958_1604)"/>
<path id="Vector_28" fill-rule="evenodd" clip-rule="evenodd" d="M60.5138 20.5177C60.5138 20.5177 60.7314 20.5177 60.912 20.7057C61.0925 20.8562 61.1294 21.0819 61.1294 21.0819L67.7612 68.4325L68.2681 68.7334L61.5276 20.8186C61.5276 20.8186 61.4929 20.593 61.3471 20.4426C61.1666 20.292 60.912 20.292 60.912 20.292L55.9492 19.916L60.5138 20.5177Z" fill="url(#paint14_linear_1958_1604)"/>
<path id="Vector_29" fill-rule="evenodd" clip-rule="evenodd" d="M13.377 66.1013L49.0283 73.0215L50.769 33.832L17.8104 34.7689L13.377 66.1013Z" fill="url(#paint15_linear_1958_1604)"/>
<path id="Vector_30" opacity="0.3" fill-rule="evenodd" clip-rule="evenodd" d="M25.0797 26.2942C24.7558 27.2084 25.0747 28.1688 25.7967 28.44C26.5163 28.7109 27.3619 28.1897 27.6883 27.2758C28.0123 26.3619 27.6909 25.4013 26.9713 25.1303C26.2518 24.8592 25.4036 25.3803 25.0797 26.2942Z" fill="white"/>
<path id="Vector_31" opacity="0.89" fill-rule="evenodd" clip-rule="evenodd" d="M25.0402 25.8589C24.7163 26.7728 25.0377 27.7335 25.7573 28.0044C26.4768 28.2756 27.325 27.7544 27.6489 26.8405C27.9728 25.9264 27.6539 24.9657 26.9319 24.6948C26.2123 24.4236 25.3666 24.9448 25.0402 25.8589Z" fill="black"/>
<path id="Vector_32" fill-rule="evenodd" clip-rule="evenodd" d="M55.9484 19.8777L52.2518 16.0792C52.1084 15.9662 51.9254 15.8912 51.782 15.8535L49.0273 73.0203L57.1798 62.3389L55.9484 19.8777Z" fill="url(#paint16_linear_1958_1604)"/>
<path id="Vector_33" fill-rule="evenodd" clip-rule="evenodd" d="M50.8756 15.8917L20.1525 25.7453C20.1525 25.7453 18.8494 26.1215 18.523 26.5352C18.4859 26.5728 18.4858 26.6105 18.4512 26.6481L49.4267 17.7721C49.6813 17.6968 50.297 17.4712 50.2253 19.314L48.3411 72.9455L48.994 73.0584L51.746 15.8917C51.385 15.7787 50.9844 15.854 50.8756 15.8917Z" fill="url(#paint17_linear_1958_1604)"/>
<path id="Vector_34" fill-rule="evenodd" clip-rule="evenodd" d="M50.8756 15.8917L20.1525 25.7453C20.1525 25.7453 18.8494 26.1215 18.523 26.5352C18.4859 26.5728 18.4858 26.6105 18.4512 26.6481L25.6244 24.5794L50.297 16.6439C50.4058 16.6063 50.804 16.531 51.2021 16.6063L48.4846 72.9455L48.994 73.0584L51.746 15.8917C51.385 15.7787 50.9844 15.854 50.8756 15.8917Z" fill="url(#paint18_linear_1958_1604)"/>
<path id="Vector_35" opacity="0.32" fill-rule="evenodd" clip-rule="evenodd" d="M58.7761 63.2801L57.144 62.3398L48.9941 73.021L49.4268 72.908C49.4268 72.908 56.6025 63.3177 57.2528 63.0168C57.7251 62.8288 58.7761 63.2801 58.7761 63.2801Z" fill="url(#paint19_linear_1958_1604)"/>
<path id="Vector_36" opacity="0.57" fill-rule="evenodd" clip-rule="evenodd" d="M49.0273 73.021L57.1798 62.3398C57.1427 62.3775 51.9995 68.2069 49.0273 73.021Z" fill="url(#paint20_linear_1958_1604)"/>
<path id="Vector_37" opacity="0.46" fill-rule="evenodd" clip-rule="evenodd" d="M68.3768 68.6955L57.1804 62.377C57.1433 62.377 58.449 62.6026 68.3768 68.6955Z" fill="url(#paint21_linear_1958_1604)"/>
<path id="Vector_38" opacity="0.3" fill-rule="evenodd" clip-rule="evenodd" d="M41.6452 22.5442C41.3188 23.4583 41.6403 24.419 42.3598 24.6901C43.0819 24.9613 43.9276 24.4401 44.2515 23.5262C44.5779 22.6121 44.2564 21.6514 43.5369 21.3803C42.8173 21.1093 41.9691 21.6303 41.6452 22.5442Z" fill="white"/>
<path id="Vector_39" opacity="0.89" fill-rule="evenodd" clip-rule="evenodd" d="M41.6047 22.1107C41.2807 23.0248 41.6023 23.9854 42.3218 24.2566C43.0414 24.5275 43.8894 24.0066 44.2133 23.0925C44.5372 22.1786 44.2183 21.2179 43.4987 20.9467C42.7767 20.6756 41.9311 21.1968 41.6047 22.1107Z" fill="black"/>
<path id="Vector_40" fill-rule="evenodd" clip-rule="evenodd" d="M26.3483 27.7018C26.3112 27.7018 26.2394 27.7018 26.2023 27.7018C25.6237 27.6268 25.2257 27.0625 25.2974 26.4232C25.3691 25.8213 27.4337 11.7553 35.9126 8.55863C38.049 7.76874 39.8615 7.91909 41.2387 9.08521C42.9053 10.4767 43.8103 13.2598 43.9562 17.3216C44.065 20.18 43.7387 22.6621 43.7387 22.775C43.667 23.3767 43.123 23.8282 42.5419 23.7152C41.9633 23.64 41.5281 23.076 41.6369 22.4741C41.9633 19.9167 42.3243 12.8838 39.8986 10.8527C39.137 10.2134 38.0862 10.1381 36.6743 10.6647C29.3922 13.4101 27.4708 26.6112 27.4708 26.7239C27.3249 27.2882 26.8923 27.7018 26.3483 27.7018Z" fill="#595961"/>
<path id="Vector_41" opacity="0.46" fill-rule="evenodd" clip-rule="evenodd" d="M40.8038 9.15932C39.5353 8.10639 37.8688 7.95604 35.8758 8.67063C32.4338 9.98685 29.5357 13.4468 27.5427 18.6746C26.0591 22.5484 25.5498 26.0461 25.5498 26.1967C25.5152 26.3847 25.5869 26.5727 25.6957 26.7232C25.8045 26.8736 25.9503 26.9865 26.1308 26.9865C26.1655 26.9865 26.2026 26.9865 26.2397 26.9865C26.566 26.9865 26.8553 26.7232 26.8924 26.3847C26.927 26.2343 28.8484 12.8075 36.348 9.98685C37.8687 9.42262 39.1001 9.49792 39.9704 10.2502C42.542 12.3939 42.1811 19.6524 41.8547 22.2475C41.8176 22.6237 42.0723 22.9997 42.4333 23.0374C42.7968 23.075 43.1578 22.8117 43.1949 22.4357C43.232 22.0218 44.5005 12.2436 40.8038 9.15932Z" fill="#B2B2C2"/>
<path id="Vector_42" opacity="0.81" fill-rule="evenodd" clip-rule="evenodd" d="M26.2027 26.5728C26.1656 26.5728 26.1656 26.5728 26.131 26.5728C25.9134 26.5352 25.7675 26.3095 25.8046 26.0839C25.8417 25.9333 26.3116 22.511 27.7977 18.6371C29.7906 13.4846 32.6169 10.0621 35.9847 8.78325C37.9059 8.06866 39.4638 8.21926 40.6581 9.19714C44.2089 12.1682 42.9775 21.7964 42.9058 22.21C42.8687 22.4357 42.6882 22.586 42.4335 22.5486C42.2184 22.5109 42.0725 22.323 42.0725 22.0597C42.0725 21.9467 43.3039 12.5068 40.1166 9.79878C39.1745 9.08419 37.869 9.00914 36.2765 9.61078C28.631 12.5068 26.638 26.0839 26.638 26.2342C26.6009 26.4222 26.4203 26.5728 26.2027 26.5728Z" fill="#B2B2C2"/>
<path id="Vector_43" opacity="0.42" fill-rule="evenodd" clip-rule="evenodd" d="M30.9843 15.8158C31.3824 15.2518 31.7459 14.6876 32.1069 14.0859C31.9635 14.2739 30.9126 16.2297 28.7391 15.9288C28.702 15.9288 29.9705 16.3424 30.9843 15.8158Z" fill="#595961"/>
<path id="Vector_44" opacity="0.42" fill-rule="evenodd" clip-rule="evenodd" d="M29.7537 18.2217C30.0801 17.6198 30.4064 16.9805 30.6586 16.3789C30.5498 16.6046 29.8253 18.6354 27.543 18.6354C27.543 18.6354 28.8116 18.8987 29.7537 18.2217Z" fill="#595961"/>
<path id="Vector_45" opacity="0.42" fill-rule="evenodd" clip-rule="evenodd" d="M28.8121 20.7072C29.1014 20.0676 29.3191 19.4283 29.5367 18.7891C29.4279 19.0147 29.0298 21.0832 26.6387 21.3465C26.6387 21.3088 27.9417 21.4594 28.8121 20.7072Z" fill="#595961"/>
<path id="Vector_46" opacity="0.62" fill-rule="evenodd" clip-rule="evenodd" d="M43.3031 13.3723C43.1225 12.6951 42.942 12.0558 42.6873 11.3789C42.759 11.6046 43.4836 13.7483 42 15.2902C42 15.2902 43.0855 14.5382 43.3031 13.3723Z" fill="#595961"/>
<path id="Vector_47" opacity="0.62" fill-rule="evenodd" clip-rule="evenodd" d="M41.8924 9.98668C41.3855 9.49774 40.876 9.04645 40.3691 8.63281C40.5521 8.82081 42.2534 10.2123 41.7836 12.3184C41.7465 12.3184 42.2905 11.0773 41.8924 9.98668Z" fill="#595961"/>
<path id="Vector_48" opacity="0.62" fill-rule="evenodd" clip-rule="evenodd" d="M43.6671 16.8324C43.63 16.1554 43.5213 15.4409 43.4125 14.7637C43.4125 15.027 43.7759 17.246 42.0352 18.4495C42.0352 18.4495 43.2319 17.9229 43.6671 16.8324Z" fill="#595961"/>
<path id="Vector_49" opacity="0.62" fill-rule="evenodd" clip-rule="evenodd" d="M43.8477 20.3673C43.8848 19.6903 43.8848 18.9758 43.8477 18.2988C43.8477 18.5621 43.8847 20.7812 42.0352 21.7965C42.0352 21.7591 43.3037 21.3828 43.8477 20.3673Z" fill="#595961"/>
<path id="Vector_50" opacity="0.42" fill-rule="evenodd" clip-rule="evenodd" d="M27.9787 23.4504C28.1963 22.7735 28.3422 22.0966 28.4856 21.457C28.4139 21.6827 28.0875 23.8264 25.877 24.353C25.914 24.353 27.2171 24.3154 27.9787 23.4504Z" fill="#595961"/>
<path id="Vector_51" opacity="0.42" fill-rule="evenodd" clip-rule="evenodd" d="M32.3624 13.7481C32.8693 13.2968 33.3415 12.8078 33.7767 12.2812C33.5937 12.4316 32.1448 13.9737 30.1172 13.4095C30.1518 13.4095 31.2745 14.0867 32.3624 13.7481Z" fill="#595961"/>
<path id="Vector_52" opacity="0.42" fill-rule="evenodd" clip-rule="evenodd" d="M33.9919 12.0174C34.573 11.6414 35.117 11.2652 35.6585 10.8516C35.4434 10.9645 33.7767 12.2054 31.8555 11.3029C31.8555 11.3029 32.8693 12.1678 33.9919 12.0174Z" fill="#595961"/>
<path id="Vector_53" opacity="0.62" fill-rule="evenodd" clip-rule="evenodd" d="M36.2025 10.7774C36.8552 10.5892 37.471 10.3635 38.0867 10.1379C37.8691 10.2132 35.9132 10.8901 34.3184 9.46094C34.3184 9.46094 35.0799 10.5892 36.2025 10.7774Z" fill="#595961"/>
<path id="Vector_54" opacity="0.62" fill-rule="evenodd" clip-rule="evenodd" d="M38.0496 10.1002C38.559 10.1755 39.0659 10.2131 39.5729 10.2508C39.3923 10.2131 37.8344 10.1002 37.1445 8.5957C37.1816 8.5957 37.3622 9.61122 38.0496 10.1002Z" fill="#595961"/>
<path id="Vector_55" opacity="0.62" fill-rule="evenodd" clip-rule="evenodd" d="M40.0073 10.9274C40.3337 11.341 40.6577 11.7547 40.9841 12.1309C40.8753 11.9803 39.8614 10.7394 40.3683 9.19727C40.4054 9.19727 39.8614 10.0624 40.0073 10.9274Z" fill="#595961"/>
<path id="Vector_56" fill-rule="evenodd" clip-rule="evenodd" d="M42.5077 22.0232C42.5423 21.6096 43.7763 12.0944 40.3343 9.19838C39.6815 8.63439 38.8853 8.37109 38.015 8.37109C37.3622 8.37109 36.6377 8.52144 35.8761 8.82238C32.5429 10.0636 29.7536 13.4108 27.7978 18.5256C26.3117 22.3618 25.8418 25.7844 25.8047 25.9348C25.8047 26.0475 25.8765 26.1604 25.9853 26.1604H26.0223C26.1311 26.1604 26.2028 26.0851 26.2028 25.9724C26.2399 25.8218 28.1958 12.0944 35.9848 9.16073C37.6514 8.52144 39.0658 8.63439 40.0796 9.49932C43.3756 12.2447 42.1444 21.8353 42.1097 21.9482C42.1097 22.0609 42.1814 22.1739 42.2902 22.1739C42.2902 22.1739 42.2902 22.1739 42.3248 22.1739C42.4336 22.2115 42.5077 22.1362 42.5077 22.0232Z" fill="url(#paint22_linear_1958_1604)"/>
<path id="Vector_57" fill-rule="evenodd" clip-rule="evenodd" d="M43.9574 17.3208C43.8115 13.259 42.9065 10.5133 41.2399 9.08415C40.3349 8.33217 39.247 7.99357 38.0156 8.06887C38.9577 8.14392 39.8256 8.48251 40.5526 9.08415C42.2192 10.4759 43.1241 13.259 43.2675 17.3208C43.3763 20.1792 43.0525 22.6613 43.0525 22.7742C42.9783 23.2255 42.689 23.5641 42.3255 23.6768C42.3997 23.7144 42.4342 23.7144 42.5084 23.7144C43.087 23.7897 43.6311 23.3758 43.7028 22.7742C43.7399 22.6613 44.0662 20.2168 43.9574 17.3208Z" fill="url(#paint23_linear_1958_1604)"/>
<path id="Vector_58" fill-rule="evenodd" clip-rule="evenodd" d="M35.9494 10.6637C28.6673 13.4091 26.7461 26.6102 26.7461 26.7605C26.6743 27.2118 26.3825 27.5504 26.0215 27.6631C26.0932 27.7008 26.1303 27.7008 26.202 27.7008C26.2391 27.7008 26.3108 27.7008 26.3479 27.7008C26.8919 27.7008 27.3246 27.2871 27.3988 26.7605C27.4334 26.6102 29.3176 13.4467 36.5997 10.7011C37.1091 10.5131 37.5419 10.4004 37.9424 10.3627C37.3984 10.2874 36.7085 10.4004 35.9494 10.6637Z" fill="url(#paint24_linear_1958_1604)"/>
</g>
<defs>
<linearGradient id="paint0_linear_1958_1604" x1="34.9036" y1="10.4091" x2="33.7673" y2="25.8796" gradientUnits="userSpaceOnUse">
<stop stop-color="white" stop-opacity="0.65"/>
<stop offset="1" stop-color="white" stop-opacity="0.01"/>
</linearGradient>
<linearGradient id="paint1_linear_1958_1604" x1="43.2078" y1="19.2665" x2="51.2078" y2="26.2735" gradientUnits="userSpaceOnUse">
<stop stop-opacity="0.01"/>
<stop offset="1" stop-opacity="0.4"/>
</linearGradient>
<linearGradient id="paint2_linear_1958_1604" x1="39.9999" y1="27.3727" x2="48.4677" y2="19.4855" gradientUnits="userSpaceOnUse">
<stop stop-opacity="0.01"/>
<stop offset="1" stop-opacity="0.4"/>
</linearGradient>
<linearGradient id="paint3_linear_1958_1604" x1="29.222" y1="4.35323" x2="-3.66759" y2="42.2492" gradientUnits="userSpaceOnUse">
<stop stop-color="#B8D26E"/>
<stop offset="1" stop-color="#7FB525"/>
</linearGradient>
<linearGradient id="paint4_linear_1958_1604" x1="74.213" y1="13.8417" x2="56.1625" y2="14.1768" gradientUnits="userSpaceOnUse">
<stop stop-color="#B4E034"/>
<stop offset="1" stop-color="#60A927"/>
</linearGradient>
<linearGradient id="paint5_linear_1958_1604" x1="20.5227" y1="39.1101" x2="5.72368" y2="75.1486" gradientUnits="userSpaceOnUse">
<stop stop-color="white"/>
<stop offset="1" stop-color="#CECEEB"/>
</linearGradient>
<linearGradient id="paint6_linear_1958_1604" x1="41.7404" y1="127.862" x2="65.1789" y2="127.814" gradientUnits="userSpaceOnUse">
<stop stop-color="#1D1D1B" stop-opacity="0.5"/>
<stop offset="0.038033" stop-color="#1D1D1B" stop-opacity="0.4837"/>
<stop offset="0.4243" stop-color="#1D1D1B" stop-opacity="0.3185"/>
<stop offset="1" stop-color="#1D1D1B" stop-opacity="0.01"/>
</linearGradient>
<linearGradient id="paint7_linear_1958_1604" x1="44.4639" y1="15.0598" x2="40.5755" y2="17.1526" gradientUnits="userSpaceOnUse">
<stop stop-opacity="0.01"/>
<stop offset="1" stop-opacity="0.4"/>
</linearGradient>
<linearGradient id="paint8_linear_1958_1604" x1="28.1609" y1="21.2671" x2="25.4275" y2="23.6161" gradientUnits="userSpaceOnUse">
<stop stop-opacity="0.01"/>
<stop offset="1" stop-opacity="0.4"/>
</linearGradient>
<linearGradient id="paint9_linear_1958_1604" x1="54.8233" y1="68.7236" x2="55.1001" y2="72.3715" gradientUnits="userSpaceOnUse">
<stop stop-opacity="0.01"/>
<stop offset="1" stop-opacity="0.4"/>
</linearGradient>
<linearGradient id="paint10_linear_1958_1604" x1="48.3622" y1="63.3831" x2="49.0038" y2="72.8675" gradientUnits="userSpaceOnUse">
<stop stop-color="white" stop-opacity="0.5"/>
<stop offset="0.0896271" stop-color="white" stop-opacity="0.4552"/>
<stop offset="1" stop-color="white" stop-opacity="0.01"/>
</linearGradient>
<linearGradient id="paint11_linear_1958_1604" x1="47.1283" y1="64.8583" x2="48.2696" y2="74.9897" gradientUnits="userSpaceOnUse">
<stop stop-opacity="0.01"/>
<stop offset="1" stop-opacity="0.4"/>
</linearGradient>
<linearGradient id="paint12_linear_1958_1604" x1="42.6519" y1="6.56901" x2="13.3821" y2="23.4975" gradientUnits="userSpaceOnUse">
<stop stop-color="white" stop-opacity="0.5"/>
<stop offset="1" stop-color="white" stop-opacity="0.01"/>
</linearGradient>
<linearGradient id="paint13_linear_1958_1604" x1="48.2987" y1="95.0413" x2="74.1333" y2="95.0934" gradientUnits="userSpaceOnUse">
<stop stop-color="#1D1D1B" stop-opacity="0.5"/>
<stop offset="0.0896271" stop-color="#1D1D1B" stop-opacity="0.4552"/>
<stop offset="1" stop-color="#1D1D1B" stop-opacity="0.01"/>
</linearGradient>
<linearGradient id="paint14_linear_1958_1604" x1="66.7994" y1="18.4908" x2="63.1294" y2="19.39" gradientUnits="userSpaceOnUse">
<stop stop-color="white" stop-opacity="0.4"/>
<stop offset="1" stop-color="white" stop-opacity="0.01"/>
</linearGradient>
<linearGradient id="paint15_linear_1958_1604" x1="33.8731" y1="73.44" x2="35.7814" y2="64.2398" gradientUnits="userSpaceOnUse">
<stop stop-color="#1D1D1B" stop-opacity="0.5"/>
<stop offset="0.0896271" stop-color="#1D1D1B" stop-opacity="0.4552"/>
<stop offset="1" stop-color="#1D1D1B" stop-opacity="0.01"/>
</linearGradient>
<linearGradient id="paint16_linear_1958_1604" x1="44.9054" y1="126.691" x2="68.4281" y2="126.712" gradientUnits="userSpaceOnUse">
<stop stop-color="#1D1D1B" stop-opacity="0.5"/>
<stop offset="1" stop-color="#1D1D1B" stop-opacity="0.01"/>
</linearGradient>
<linearGradient id="paint17_linear_1958_1604" x1="23.4114" y1="12.5774" x2="12.003" y2="56.4083" gradientUnits="userSpaceOnUse">
<stop stop-color="white" stop-opacity="0.5"/>
<stop offset="1" stop-color="white" stop-opacity="0.01"/>
</linearGradient>
<linearGradient id="paint18_linear_1958_1604" x1="23.4114" y1="12.5774" x2="12.003" y2="56.4083" gradientUnits="userSpaceOnUse">
<stop stop-color="white" stop-opacity="0.5"/>
<stop offset="1" stop-color="white" stop-opacity="0.01"/>
</linearGradient>
<linearGradient id="paint19_linear_1958_1604" x1="51.0984" y1="58.5243" x2="42.0811" y2="70.9355" gradientUnits="userSpaceOnUse">
<stop stop-color="white" stop-opacity="0.5"/>
<stop offset="0.0896271" stop-color="white" stop-opacity="0.4552"/>
<stop offset="1" stop-color="white" stop-opacity="0.01"/>
</linearGradient>
<linearGradient id="paint20_linear_1958_1604" x1="53.8169" y1="61.3777" x2="52.9241" y2="63.379" gradientUnits="userSpaceOnUse">
<stop stop-opacity="0.01"/>
<stop offset="1" stop-opacity="0.4"/>
</linearGradient>
<linearGradient id="paint21_linear_1958_1604" x1="62.6723" y1="64.0236" x2="62.6282" y2="64.5616" gradientUnits="userSpaceOnUse">
<stop stop-opacity="0.01"/>
<stop offset="1" stop-opacity="0.4"/>
</linearGradient>
<linearGradient id="paint22_linear_1958_1604" x1="30.2011" y1="7.10507" x2="26.3029" y2="22.505" gradientUnits="userSpaceOnUse">
<stop stop-color="white" stop-opacity="0.65"/>
<stop offset="1" stop-color="white" stop-opacity="0.01"/>
</linearGradient>
<linearGradient id="paint23_linear_1958_1604" x1="38.9256" y1="15.9874" x2="45.7068" y2="22.8816" gradientUnits="userSpaceOnUse">
<stop stop-opacity="0.01"/>
<stop offset="1" stop-opacity="0.4"/>
</linearGradient>
<linearGradient id="paint24_linear_1958_1604" x1="34.5894" y1="26.1397" x2="43.9586" y2="16.5175" gradientUnits="userSpaceOnUse">
<stop stop-opacity="0.01"/>
<stop offset="1" stop-opacity="0.4"/>
</linearGradient>
</defs>
</svg>
