<svg width="32" height="32" viewBox="0 0 32 32" fill="none" xmlns="http://www.w3.org/2000/svg">
<g id="Group 483">
<circle id="Ellipse 45" cx="16.4227" cy="17.245" r="14.4227" fill="#43CEEF"/>
<path id="Ellipse 46" opacity="0.75" d="M32 0C32 4.11487 30.3143 8.06121 27.3137 10.9709C24.3131 13.8805 20.2435 15.5152 16 15.5152C11.7565 15.5152 7.68688 13.8805 4.68629 10.9709C1.68571 8.06122 6.40745e-07 4.11488 0 2.34272e-06L4.21772 1.72516e-06C4.21772 3.03016 5.45907 5.93622 7.66867 8.07886C9.87828 10.2215 12.8751 11.4252 16 11.4252C19.1249 11.4252 22.1217 10.2215 24.3313 8.07886C26.5409 5.93622 27.7823 3.03016 27.7823 0H32Z" fill="#3B5AFB"/>
</g>
</svg>
