<svg width="65" height="31" viewBox="0 0 65 31" fill="none" xmlns="http://www.w3.org/2000/svg">
<g id="sound_cloud">
<circle id="bg" cx="32.877" cy="32.5586" r="28" fill="#FF5502"/>
<g id="sound_cloud_2">
<path d="M48.7374 42.5586H32.3653V22.7795C33.8822 21.3943 35.8469 20.5586 37.9932 20.5586C42.7428 20.5586 46.6032 24.6511 46.6894 29.7347C47.3299 29.4911 48.0193 29.3586 48.7374 29.3586C52.1282 29.3586 54.8769 32.3135 54.8769 35.9586C54.8769 39.6037 52.1282 42.5586 48.7374 42.5586Z" fill="white"/>
<path d="M30.877 24.5586H28.877V42.5586H30.877V24.5586Z" fill="white"/>
<path d="M24.877 26.5586H26.877V42.5586H24.877V26.5586Z" fill="white"/>
<path d="M22.877 30.5586H20.877V42.5586H22.877V30.5586Z" fill="white"/>
<path d="M16.877 28.5586H18.877V42.5586H16.877V28.5586Z" fill="white"/>
<path d="M14.877 32.5586H12.877V42.5586H14.877V32.5586Z" fill="white"/>
</g>
</g>
</svg>
