<svg width="40" height="40" viewBox="0 0 40 40" fill="none" xmlns="http://www.w3.org/2000/svg">
<g id="Underwriting &#38; funding" clip-path="url(#clip0_1920_1423)">
<g id="Group">
<path id="Vector" d="M10.8593 7.10938H19.6111C20.8644 4.30047 23.0683 2.02914 23.0867 1.99219C23.4383 1.66406 23.5321 1.17188 23.3446 0.726562C23.1571 0.28125 22.7353 0 22.2665 0C20.1571 0 19.0087 0.75 18.0946 1.35938C17.2743 1.92188 16.6415 2.34375 15.2353 2.34375C13.829 2.34375 13.1962 1.92188 12.3759 1.35938C11.4618 0.75 10.3134 0 8.20401 0C7.73526 0 7.31339 0.28125 7.12589 0.726562C6.93839 1.17188 7.03214 1.66406 7.3837 1.99219C7.40221 2.02914 9.60604 4.30047 10.8593 7.10938Z" fill="#43CEEF"/>
<path id="Vector_2" d="M23.3672 18.9531C21.0703 16.7031 19.1953 14.7969 18.8203 11.7969H19.9219C20.5781 11.7969 21.0938 11.2812 21.0938 10.625C21.0938 9.96875 20.5781 9.45312 19.9219 9.45312H10.5469C9.89062 9.45312 9.375 9.96875 9.375 10.625C9.375 11.2812 9.89062 11.7969 10.5469 11.7969H11.6484C11.2734 14.7969 9.39844 16.7031 7.10156 18.9531C3.77344 22.2109 0 25.9141 0 34.375C0.046875 37.4688 2.69531 40 5.85938 40H21.3094C21.1781 39.632 21.0938 39.2406 21.0938 38.8281V29.4531C21.0938 27.5148 22.6711 25.9375 24.6094 25.9375H28.807C27.3891 22.8984 25.2859 20.8359 23.3672 18.9531ZM15.2344 25.9375C17.173 25.9375 18.75 27.5145 18.75 29.4531C18.75 30.9789 17.7673 32.2675 16.4062 32.7529V34.1406C16.4062 34.7884 15.8821 35.3125 15.2344 35.3125C14.5866 35.3125 14.0625 34.7884 14.0625 34.1406V32.7529C12.7014 32.2676 11.7188 30.9789 11.7188 29.4531C11.7188 28.8054 12.2429 28.2812 12.8906 28.2812C13.5384 28.2812 14.0625 28.8054 14.0625 29.4531C14.0625 30.0997 14.5878 30.625 15.2344 30.625C15.8809 30.625 16.4062 30.0997 16.4062 29.4531C16.4062 28.8066 15.8809 28.2812 15.2344 28.2812C13.2958 28.2812 11.7188 26.7042 11.7188 24.7656C11.7188 23.2398 12.7014 21.9513 14.0625 21.4659V20.0781C14.0625 19.4304 14.5866 18.9062 15.2344 18.9062C15.8821 18.9062 16.4062 19.4304 16.4062 20.0781V21.4659C17.7673 21.9512 18.75 23.2398 18.75 24.7656C18.75 25.4134 18.2259 25.9375 17.5781 25.9375C16.9304 25.9375 16.4062 25.4134 16.4062 24.7656C16.4062 24.1191 15.8809 23.5938 15.2344 23.5938C14.5878 23.5938 14.0625 24.1191 14.0625 24.7656C14.0625 25.4122 14.5878 25.9375 15.2344 25.9375Z" fill="#43CEEF"/>
<g id="Vector_3">
<path d="M23.5156 38.8281V36.4844C23.5156 35.8372 24.0403 35.3125 24.6875 35.3125H38.8281C39.4753 35.3125 40 35.8372 40 36.4844V38.8281C40 39.4753 39.4753 40 38.8281 40H24.6875C24.0403 40 23.5156 39.4753 23.5156 38.8281Z" fill="#3B5AFB"/>
<path d="M40 29.4531V31.7969C40 32.4441 39.4753 32.9688 38.8281 32.9688H24.6875C24.0403 32.9688 23.5156 32.4441 23.5156 31.7969V29.4531C23.5156 28.8059 24.0403 28.2812 24.6875 28.2812H38.8281C39.4753 28.2812 40 28.8059 40 29.4531Z" fill="#3B5AFB"/>
</g>
</g>
</g>
<defs>
<clipPath id="clip0_1920_1423">
<rect width="40" height="40" fill="white"/>
</clipPath>
</defs>
</svg>
