<svg width="64" height="64" viewBox="0 0 64 64" fill="none" xmlns="http://www.w3.org/2000/svg">
<g id="zapier">
<path id="zapier_2" d="M37.9102 37.9228C34.111 39.3525 29.8535 39.3551 26.0542 37.9237C24.6227 34.1285 24.6223 29.8719 26.052 26.0762C29.8504 24.6441 34.112 24.6438 37.9104 26.076C39.3414 29.8706 39.3407 34.1281 37.9102 37.9228ZM59.6107 27.3325H43.256L54.8198 15.7752C53.005 13.2275 50.7645 10.9895 48.2152 9.17577L36.6505 20.733V4.38887C33.564 3.86998 30.3986 3.87077 27.3121 4.38887V20.733L15.7474 9.17577C13.1988 10.9883 10.9575 13.2294 9.14258 15.7752L20.7082 27.3325H4.35366C3.94996 30.5095 3.8188 33.4952 4.35366 36.6656H20.7084L9.1428 48.2229C10.9622 50.7744 13.1943 53.005 15.7474 54.8232L27.3121 43.2651V59.6101C30.399 60.1271 33.5635 60.1274 36.6503 59.6101V43.2651L48.2161 54.8232C50.7665 53.0077 53.0031 50.7715 54.8198 48.2229L43.2542 36.6656H59.6107C60.1298 33.5838 60.1298 30.4143 59.6107 27.3325Z" fill="#FF4A00"/>
</g>
</svg>
